<?xml version="1.0" encoding="UTF-8" standalone="no"?>
<svg
   width="556"
   height="515"
   version="1.1"
   id="svg135"
   xmlns="http://www.w3.org/2000/svg"
   xmlns:svg="http://www.w3.org/2000/svg">
  <defs
     id="defs139" />
  <path
     style="fill:#00ff00;stroke:none"
     d="M 17,0.72223 15,2.11108 14,3.02777 12,5 11,6 8,9 6,11 5,12 3.02778,14 2.11111,15 0.72222,17 0.33333,18 0.11111,19 0,21 v 1 3 14 48 29 5 2 1 l 0.02778,2 0.08333,1 0.61111,2 1.38889,2 0.91667,1 1.97222,2 2,2 2,2 0.9722,1 0.9445,1 1.6944,2 1.6111,1.917 1.7778,1.694 0.9167,0.778 1.6944,1.694 0.75,0.945 1.4722,1.972 0.7223,1 1.1666,2 0.4445,1 0.4444,1 0.6945,2 0.2777,1 0.1945,1 0.1389,1 0.0833,2 v 1 1 2 11 35 109 23 5 2 l -0.0278,1 -0.0555,1 -0.3334,2 -0.5833,2 -0.3333,1 -0.75,2 -0.4723,1 -0.5277,1 -0.6389,1 -0.6945,1 -1.6666,2 -0.9445,1 -0.9722,1 -2,2 -1,1 -2,2 -5,5 -2,2 -1.97222,2 -1.69445,2 -0.61111,1 -0.38889,1 -0.22222,1 L 0,390 v 1 3 15 48 30 4 2 1 l 0.08333,2 0.41667,2 0.44444,1 1.30556,2 1.77778,2 1.97222,2 2,2 2,2 2,2 1,0.972 1,0.917 2,1.389 2,0.611 1,0.083 2,0.028 h 2 3 22 78 96 201 83 23 3 2 l 2,-0.028 1,-0.083 2,-0.611 2,-1.389 1,-0.917 2,-1.972 1,-1 3,-3 2,-2 1,-1 1,-1 1.889,-2 1.389,-2 0.389,-1 0.222,-1 0.111,-2 v -1 -3 -14 -48 -2 -27 -5 -2 -1 -1 l -0.111,-2 -0.611,-2 -1.389,-2 -0.917,-1 -1.972,-2 -2,-2 -6,-6 -2,-2 -1,-1 -1,-1 -1.917,-2 -1.666,-2 -1.389,-2 -0.611,-1 -1,-2 -0.389,-1 -0.611,-2 -0.195,-1 -0.139,-1 -0.083,-2 v -1 -1 -2 -11 -36 -109 -22 -4 -2 -2 l 0.083,-2 0.139,-1 0.195,-1 0.277,-1 0.695,-2 0.444,-1 0.945,-2 0.472,-1 1.222,-2 1.611,-2 1.917,-2 2,-2 1,-1 2,-2 5,-5 2,-2 1.972,-2 1.695,-2 0.611,-1 0.389,-1 0.222,-1 0.111,-2 v -1 -3 -14 -48 -30 -4 -2 -2 l -0.028,-1 -0.083,-1 -0.222,-1 -1,-2 -1.695,-2 L 551,12 550,11 547,8 545,6 544,5 542,3.02777 541,2.11108 539,0.72223 538,0.33337 536,0.02777 534,0 H 532 527 505 431 375 134 51 28 24 22 21 L 19,0.11108 17,0.72223 M 20,3.33331 22,3.02777 23,3 h 2 2 5 25 85 284 82 19 3 2 l 2,0.02777 2,0.30554 1,0.38892 2,1.38888 1,0.91666 2,1.97223 2,2 3,3 1,1 1.972,2 1.695,2 1,2 0.222,1 0.083,1 0.028,1 v 1 3 17 59 16 3 1 l -0.111,2 -0.611,2 -1.389,2 -0.917,1 -1.972,2 -2,2 -7,7 -2,2 -1.972,2 -0.945,1 -1.611,2 -1.222,2 -0.472,1 -0.528,1 -0.861,2 -0.695,2 -0.277,1 -0.195,1 -0.139,1 -0.083,2 v 2 2 5 21 67 67 21 5 2 2 l 0.083,2 0.139,1 0.195,1 0.611,2 0.389,1 1,2 0.611,1 1.389,2 1.666,2 1.917,2 1,1 1,1 2,2 6,6 2,2 1.972,2 0.917,1 1.389,2 0.611,2 0.111,2 v 1 1 3 2 64 21 6 2 l -0.028,1 -0.083,1 -0.611,2 -1.389,2 -1.889,2 -1,1 -1,1 -2,2 -2,2 -1,1 -1,1 -2,1.889 -2,1.389 -1,0.389 -2,0.305 -1,0.028 h -2 -2 -5 H 499 414 132 48 28 25 23 l -2,-0.028 -1,-0.083 -2,-0.611 -2,-1.389 -1,-0.917 L 14,508 12,506 11,505 9,503 8,502 7.02778,501 5.25,499 3.94444,497 3.5,496 3.08333,494 3,492 v -1 -1 -2 -15 -60 -17 -3 -1 l 0.11111,-2 0.61111,-2 1.38889,-2 0.91667,-1 L 8,383 l 2,-2 5,-5 2,-2 1,-1 1,-1 1.9722,-2 0.9445,-1 1.6666,-2 1.3334,-2 1,-2 0.75,-2 0.6389,-2 0.4722,-2 0.1389,-1 L 28,354 v -2 -2 -5 -22 -67 -65 -21 -5 -2 -2 l -0.0833,-2 -0.1389,-1 -0.1945,-1 -0.2777,-1 -0.6945,-2 -0.4444,-1 -0.4445,-1 -1.1666,-2 -0.7223,-1 -1.4722,-2 -0.75,-0.972 -0.8333,-0.945 L 19,143.389 18.0833,142.611 17.2222,141.778 16.3889,140.917 15.6111,139.972 13.9167,138 12.9722,137 12,136 10,134 8,132 6.02778,130 5.11111,129 3.72222,127 3.11111,125 3,123 v -1 -1 -3 V 52 31 25 23 L 3.02778,22 3.11111,21 3.72222,19 4.33333,18 5.11111,17 7,15 8,14 10,12 13,9 14,8 16,6.02777 17,5.11111 19,3.72223 20,3.33331 m 51,10.08339 -2,0.6111 -1,0.3611 -2,0.8889 -2,1.1944 L 63,17.25 62,18.0833 60.0278,20 58.25,22 57.4722,23 56.25,25 55.7778,26 55.25,27 54.4722,29 54,31 l -0.3889,2 -0.3889,2 -0.1389,1 v 2 l 0.3056,2 0.4167,2 0.3888,2 0.2223,1 0.6111,2 0.3889,1 1,2 1.2777,2 1.5278,1.9722 0.8611,0.9445 1.9167,1.6666 2,1.3889 1,0.6111 2,1 1,0.3889 2,0.6111 1,0.1945 1,0.1389 L 74,61 h 1 1 2 2 1 l 2,-0.0833 2,-0.3334 1,-0.2778 2,-0.7222 2,-1 1,-0.6111 2,-1.3889 1.9722,-1.6666 L 96.75,53 l 0.7778,-1 1.2222,-2 0.472,-1 0.528,-1 0.778,-2 0.25,-1 0.222,-1 0.389,-2 0.222,-1 0.306,-2 0.083,-2 -0.028,-1 -0.055,-1 -0.306,-2 -0.25,-1 -0.5,-2 -0.25,-1 L 99.972,27 99.583,26 98.5833,24 97.3056,22 96.5833,21.0278 94.9167,19.2222 93.9722,18.4167 93,17.6945 91,16.3889 90,15.8333 89,15.2778 87,14.3889 85,13.6945 84,13.4167 83,13.2222 82,13.0833 80,13 h -1 -2 -2 l -2,0.0833 -2,0.3334 m 401,0 -1,0.2778 -2,0.6944 -2,0.8889 -1,0.5555 -1,0.5556 -2,1.3056 -0.972,0.7222 -1.806,1.6666 -1.528,1.9167 -0.666,1 -0.639,1 -1.111,2 -0.834,2 -0.277,1 -0.306,1 -0.472,2 -0.306,2 -0.055,1 -0.028,2 0.028,2 0.055,1 0.306,2 0.25,1 0.222,1 0.583,2 0.806,2 0.528,1 1.083,2 0.611,1 0.778,1 1.778,1.9167 0.972,0.8611 2,1.5277 2,1.2778 2,1 2,0.7222 1,0.2778 2,0.3334 2,0.0833 h 1 1 2 2 1 l 2,-0.0833 2,-0.3889 1,-0.3889 1,-0.3889 1,-0.5278 2,-1.0555 1,-0.5556 2,-1.3056 0.972,-0.7222 1.778,-1.6666 0.778,-0.9445 1.222,-1.9722 0.472,-1 1,-2 0.528,-1 0.806,-2 0.583,-2 0.222,-1 0.25,-1 0.306,-2 0.055,-2 -0.055,-1 -0.306,-2 -0.222,-1 -0.389,-2 -0.222,-1 -0.25,-1 -0.778,-2 -0.528,-1 -0.472,-1 -1.222,-2 -0.778,-1 -1.778,-2 -1.972,-1.9167 -1,-0.8333 -1,-0.7778 -2,-1.1944 -2,-0.8889 -1,-0.3611 -2,-0.6111 -2,-0.3334 L 481,13 h -1 -2 -2 l -2,0.0833 -2,0.3334 M 74,16.2222 76,16.0278 77,16 l 2,0.0278 1,0.0555 2,0.3334 1,0.2778 2,0.6944 1,0.4444 1,0.4445 1,0.5555 1,0.5556 1.9722,1.3056 0.9445,0.7222 1.6666,1.6666 0.7223,0.9445 1.2777,1.9722 0.5278,1 0.4722,1 0.3889,1 0.6389,2 0.25,1 0.5,2 0.25,1 0.2222,2 -0.0833,1 -0.1389,1 -0.4167,2 -0.4166,2 -0.25,1 -0.7778,2 -0.5278,1 -1.0833,2 -0.6111,1 -1.6111,1.9167 -1.9167,1.6666 -1,0.7222 -2,1.2778 -1,0.5278 -1,0.4722 -2,0.7222 -1,0.2778 -1,0.1945 -1,0.1389 L 79,58 h -1 -2 l -2,-0.0833 -1,-0.1389 -1,-0.1945 -2,-0.6111 -1,-0.3889 -2,-1 L 66,54.9722 65,54.3055 64.0278,53.5833 62.2222,51.9167 60.6944,50 l -0.6666,-1 -0.6111,-1 -1,-2 L 58.0278,45 57.6944,44 57.4167,43 57,41 56.6389,39 56.4722,38 v -2 l 0.3334,-2 0.4166,-2 0.25,-1 L 58.25,29 58.7778,28 59.25,27 60.4722,25 61.25,24 63.0278,22.0278 65,20.25 l 1,-0.7778 1,-0.6111 2,-1.0278 1,-0.4444 2,-0.6944 1,-0.2778 1,-0.1945 m 401,0 2,-0.1944 L 478,16 h 1 l 2,0.0833 2,0.3334 1,0.2778 2,0.6944 1,0.4444 2,1.0278 1,0.6111 1,0.7778 1.972,1.7778 1.778,1.9722 0.778,1 1.222,2 0.472,1 0.528,1 0.778,2 0.25,1 0.416,2 0.195,1 0.305,2 -0.111,2 -0.222,1 -0.528,2 -0.277,1 -0.806,2 -0.528,1 -0.444,1 -0.556,1 -0.472,1 -1.222,1.9167 -0.778,0.8611 -0.833,0.8055 -0.945,0.7222 -1.972,1.3056 -1,0.5556 -2,1.0555 -1,0.5278 -2,0.7778 -1,0.2222 -1,0.1667 L 480,58 h -1 -2 l -2,-0.0833 -2,-0.3334 -2,-0.6111 -1,-0.3889 -2,-1 -2,-1.2778 -1.972,-1.5277 -0.945,-0.8611 -1.611,-1.9167 -1.222,-2 -0.472,-1 -0.528,-1 -0.806,-2 -0.277,-1 -0.528,-2 -0.25,-1 -0.306,-2 v -2 l 0.139,-1 0.417,-2 0.528,-2 0.277,-1 0.834,-2 1.111,-2 1.305,-1.9722 0.723,-0.9445 0.805,-0.8611 1.806,-1.5277 1.972,-1.3056 1,-0.5556 2,-1 1,-0.4444 2,-0.6944 1,-0.2778 1,-0.1945 M 301,49 l -1,1.5 -0.222,0.5555 -0.556,1 -0.389,0.9445 -0.472,1 -0.417,1 -1,2 -1.111,2 -0.583,1 -0.472,1 -1,2 -0.556,1 -0.444,1 -0.556,1 -0.444,1 -1.028,2 -0.583,1 -1.111,2 -1,2 -0.417,1 -0.472,1 -0.417,1 -0.528,1 -0.472,1 -0.583,1 -0.556,1 -1.222,2 -0.583,1 -1.195,2 -1.222,2 -1.139,2 -0.5,1 -1.139,2 -1.222,2 -1.195,2 -0.583,1 -1.222,2 -1.139,2 -0.5,1 -1.139,2 -1.222,2 -1.139,2 -0.5,1 -1.139,2 -0.639,1 -1.305,2 -1.334,2 -0.666,1 -0.639,1 -0.639,1 -0.583,1 -1.195,2 -1.278,2 -0.666,1 -1.334,2 -3.333,5 -1.333,2 -1.278,2 -1.195,2 -0.583,1 -0.639,1 -0.639,1 -1.333,2 -1.333,2 -0.667,1 -1.389,2 -0.75,1 -0.722,1 -1.445,2 -1.305,2 -0.583,1 -0.639,1 -0.611,1 -0.723,1 -0.694,1 -0.75,1 -1.389,2 -1.333,2 -2,3 -0.667,1 -0.694,1 -0.695,1 -1.472,2 -0.75,1 -0.695,1 -1.388,2 -0.695,1 -0.75,1 -1.472,2 -0.695,1 -1.388,2 -0.695,1 -1.472,2 -0.778,1 -0.722,1 -0.778,1 -0.722,1 -1.5,2 -0.778,1 -1.472,2 -0.695,1 -0.694,1 -1.333,2 -0.667,1 -1.417,2 -1.583,2 -1.611,2 -1.528,2 -0.722,1 -1.5,2 -0.778,1 -0.722,1 -0.778,1 -1.5,2 -0.722,1 -1.528,2 -0.805,1 -1.612,2 -0.805,1 -1.528,2 -0.722,1 -0.778,1 -0.75,1 -0.805,1 -1.612,2 -0.805,1 -1.528,2 -0.722,1 -0.778,1 -1.5,2 -1.5,2 -0.75,1 -0.833,1 -0.834,1 -0.888,1 -1.667,2 -0.75,1 -1.5,2 -0.778,1 -0.75,1 -1.667,2 -1.722,2 -1.611,2 -1.667,2 -0.888,1 -1.667,2 -1.611,2 -1.722,2 -1.667,2 -0.778,1 -0.805,1 -1.612,2 -0.805,1 -0.778,1 -1.667,2 -0.888,1 -1.667,2 -1.611,2 -0.861,1 -1.834,2 -0.861,1 -1.611,2 -1.694,2 -0.945,1 -1.944,2 -0.945,1 -1.694,2 -0.778,1 -1.694,2 -0.945,1 -1.944,2 -0.945,1 -1.694,2 -0.778,1 -1.694,2 -1.889,2 -0.945,1 -1.583,2 -1,2 -0.25,1 -0.222,2 -0.028,2 v 2 12 43 l 1,1 h 188 l 1,1 v 90 l 1,1 h 80 l 1,-1 v -90 l 1,-1 h 60 l 1,-1 v -60 l -1,-1 h -60 l -1,-1 V 50 l -1,-1 h -83 m 81,3 v 67 129 50 8 3 1 2 l 0.028,1 0.083,1 0.611,1.972 0.611,0.917 0.778,0.778 1.889,1 1,0.222 1,0.083 2,0.028 h 1 2 6 45 v 56 h -44 -7 -2 -1 l -2,0.028 -1,0.083 -1.972,0.611 -0.917,0.611 -0.778,0.778 -1,1.889 -0.222,1 -0.083,1 -0.028,1 v 2 2 3 11 67 h -76 v -66 -16 -2 -1 l -0.111,-2 -0.222,-1 -1,-1.889 -0.778,-0.778 -1.889,-1 -1,-0.222 -1,-0.083 -2,-0.028 h -2 -4 -35 -141 v -40 -11 -2 l 0.028,-2 0.222,-2 0.25,-1 1,-2 1.583,-2 0.945,-1 1.889,-2 0.861,-1 1.611,-2 1.694,-2 0.945,-1 1.944,-2 0.945,-1 1.694,-2 0.778,-1 1.694,-2 0.945,-1 1.944,-2 0.945,-1 1.694,-2 1.611,-2 0.861,-1 1.834,-2 1.694,-2 1.611,-2 1.722,-2 1.667,-2 0.778,-1 0.805,-1 1.612,-2 0.805,-1 0.778,-1 1.667,-2 1.722,-2 1.611,-2 1.667,-2 0.888,-1 1.667,-2 1.611,-2 1.722,-2 1.667,-2 0.75,-1 0.778,-1 1.5,-2 0.75,-1 1.667,-2 0.888,-1 0.834,-1 0.833,-1 0.75,-1 1.5,-2 1.5,-2 0.778,-1 0.722,-1 1.528,-2 0.805,-1 1.612,-2 0.805,-1 1.528,-2 0.722,-1 0.778,-1 0.75,-1 0.805,-1 1.612,-2 0.805,-1 1.528,-2 0.722,-1 1.5,-2 0.778,-1 0.722,-1 0.778,-1 1.5,-2 0.722,-1 1.528,-2 1.611,-2 1.583,-2 1.417,-2 0.667,-1 1.333,-2 0.694,-1 0.695,-1 1.472,-2 0.778,-1 0.722,-1 0.778,-1 0.722,-1 1.5,-2 0.778,-1 1.472,-2 0.695,-1 1.388,-2 0.695,-1 1.472,-2 0.75,-1 0.695,-1 1.388,-2 0.695,-1 0.75,-1 1.472,-2 0.695,-1 0.694,-1 0.667,-1 2,-3 1.333,-2 1.389,-2 0.75,-1 1.417,-2 0.611,-1 0.639,-1 1.222,-2 1.361,-2 0.75,-1 1.472,-2 1.389,-2 0.667,-1 1.333,-2 1.333,-2 0.639,-1 0.639,-1 0.583,-1 1.195,-2 1.278,-2 1.333,-2 3.333,-5 1.334,-2 0.666,-1 1.278,-2 0.583,-1 1.195,-2 1.278,-2 0.666,-1 1.334,-2 0.666,-1 0.639,-1 0.639,-1 1.139,-2 0.5,-1 1.139,-2 1.222,-2 1.139,-2 0.5,-1 1.139,-2 1.222,-2 1.195,-2 0.583,-1 1.222,-2 1.139,-2 0.5,-1 1.139,-2 1.222,-2 0.583,-1 1.195,-2 1.222,-2 0.556,-1 0.583,-1 0.472,-1 0.528,-1 0.417,-1 0.472,-1 0.417,-1 1,-2 0.583,-1 1.111,-2 0.472,-1 0.556,-1 0.444,-1 1,-2 0.556,-1 0.444,-1 1.028,-2 0.583,-1 0.528,-1 0.583,-1 1,-2 0.862,-1.9445 0.388,-1 L 302.5,53.5 303,52 h 79 m -193,266 1,1 h 85 21 3 l 2,-0.028 1.972,-0.305 0.917,-0.389 0.778,-0.611 0.611,-0.778 0.389,-0.917 0.222,-0.972 0.111,-2 v -2 -4 -29 -117 l -1,-1 -1.5,0.028 -1.528,0.305 -0.889,0.389 -1.666,1.389 -0.723,0.917 -1.305,1.972 -0.583,1 -1.195,2 -0.611,1 -1.194,2 -0.612,1 -0.583,1 -1.222,2 -0.583,1 -1.195,2 -1.222,2 -0.583,1 -1.195,2 -1.222,2 -1.195,2 -0.583,1 -0.639,1 -0.639,1 -1.333,2 -2,3 -0.667,1 -1.333,2 -0.694,1 -0.695,1 -0.75,1 -1.472,2 -1.389,2 -1.333,2 -3.334,5 -1.333,2 -0.694,1 -0.695,1 -1.472,2 -0.75,1 -0.695,1 -1.388,2 -0.695,1 -1.472,2 -0.778,1 -0.722,1 -1.5,2 -0.778,1 -0.722,1 -0.778,1 -0.722,1 -1.5,2 -0.778,1 -1.472,2 -0.695,1 -1.388,2 -0.695,1 -1.472,2 -0.778,1 -0.722,1 -0.778,1 -0.722,1 -1.528,2 -0.805,1 -1.612,2 -1.583,2 -1.611,2 -1.611,2 -1.528,2 -0.722,1 -0.778,1 -0.75,1 -1.611,2 -1.611,2 -1.583,2 -1.612,2 -0.805,1 -1.528,2 -0.722,1 -0.778,1 -0.75,1 -0.805,1 -1.612,2 -1.583,2 -1.667,2 -0.888,1 -1.667,2 -0.778,1 -1.667,2 -0.888,1 -1.667,2 -1.583,2 -1.612,2 -0.805,1 -0.778,1 -0.805,1 -1.612,2 -0.805,1 -0.778,1 -0.805,1 -1.612,2 -0.805,1 -1.5,2 -1.195,2 -0.361,1 -0.305,1.944 L 189,318 M 303,164 v 151 l -1,1 H 192 l 0.75,-1.5 0.472,-0.556 0.667,-1 0.75,-0.944 0.75,-1 0.805,-1 1.612,-2 0.805,-1 0.778,-1 1.611,-2 1.611,-2 0.778,-1 0.805,-1 1.612,-2 0.805,-1 0.778,-1 1.667,-2 0.888,-1 1.667,-2 0.778,-1 1.667,-2 0.888,-1 1.667,-2 1.583,-2 1.612,-2 0.805,-1 0.75,-1 0.778,-1 0.722,-1 1.528,-2 0.805,-1 1.612,-2 1.583,-2 1.611,-2 1.611,-2 1.528,-2 0.722,-1 0.778,-1 0.75,-1 1.611,-2 1.611,-2 1.583,-2 1.612,-2 0.805,-1 1.528,-2 0.722,-1 0.778,-1 0.722,-1 0.778,-1 1.472,-2 0.695,-1 1.388,-2 0.695,-1 1.472,-2 0.778,-1 1.5,-2 0.722,-1 0.778,-1 0.722,-1 0.778,-1 1.5,-2 0.722,-1 0.778,-1 1.472,-2 0.695,-1 1.388,-2 0.695,-1 0.75,-1 1.472,-2 1.389,-2 1.333,-2 3.334,-5 1.333,-2 1.389,-2 1.472,-2 0.75,-1 0.695,-1 0.694,-1 0.667,-1 2,-3 2,-3 0.666,-1 1.278,-2 1.195,-2 0.583,-1 1.222,-2 1.195,-2 0.583,-1 1.222,-2 1.195,-2 0.583,-1 1.222,-2 1.195,-2 0.583,-1 1.222,-2 1.195,-2 1.166,-1.889 0.639,-0.805 0.333,-0.528 L 303,164 m -231,290.389 -1,0.25 -2,0.528 -1,0.277 -2,0.834 -1,0.583 -1,0.611 -2,1.611 -1,0.945 -1.9167,1.972 -0.8333,1 -0.7778,1 -1.2222,2 -0.4722,1 -0.5278,1 -0.7778,2 -0.25,1 -0.2222,1 -0.3889,2 -0.3889,2 -0.1389,1 v 2 l 0.3056,2 0.2222,1 0.3889,2 0.4167,2 0.2777,1 0.3334,1 0.3889,1 1,2 1.2777,2 1.5278,1.972 0.8611,0.945 1.9167,1.611 2,1.222 1,0.472 1,0.528 2,0.861 2,0.695 1,0.277 1,0.195 1,0.139 2,0.083 h 1 2 2 1 l 2,-0.083 2,-0.334 1,-0.277 2,-0.723 2,-1 1,-0.611 2,-1.389 0.9722,-0.805 0.9445,-0.861 1.6666,-1.917 0.7223,-1 1.3055,-2 1.1109,-2 0.806,-2 0.25,-1 0.222,-1 0.389,-2 0.222,-1 0.306,-2 0.083,-2 -0.028,-1 -0.055,-1 -0.306,-2 -0.25,-1 -0.5,-2 -0.25,-1 -0.639,-2 -0.389,-1 -0.9997,-2 -1.2777,-2 -0.7223,-0.972 -1.6666,-1.806 -0.9445,-0.805 -1.9722,-1.389 -2,-1.195 -1,-0.555 -1,-0.417 -1,-0.417 -1,-0.277 -1,-0.306 -2,-0.472 -2,-0.306 -1,-0.055 L 79,454 h -2 -1 l -2,0.083 -2,0.306 m 401,0 -1,0.25 -1,0.222 -2,0.583 -2,0.806 -1,0.528 -1,0.472 -2,1.222 -1.917,1.611 -0.861,0.945 -0.805,0.972 -1.389,2 -1.195,2 -0.555,1 -0.834,2 -0.583,2 -0.472,2 -0.306,2 -0.055,1 -0.028,2 v 1 1 l 0.083,2 0.334,2 0.277,1 0.695,2 0.444,1 0.417,1 0.528,1 0.472,1 1.222,2 1.611,1.972 1.917,1.806 2,1.528 2,1.277 2,1 2,0.723 1,0.277 1,0.195 1,0.139 2,0.083 h 1 1 2 2 1 l 2,-0.083 1,-0.167 1,-0.222 2,-0.778 1,-0.528 2,-1.055 1,-0.556 2,-1.305 0.972,-0.723 1.778,-1.666 0.778,-0.945 1.278,-1.972 0.555,-1 0.583,-1 0.973,-2 0.361,-1 0.528,-2 0.388,-2 0.417,-2 0.167,-1 0.139,-1 v -2 l -0.306,-2 -0.222,-1 -0.389,-2 -0.222,-1 -0.25,-1 -0.778,-2 -0.528,-1 -0.472,-1 -1.222,-2 -1.611,-2 -0.945,-1 -0.972,-0.972 -1,-0.945 -2,-1.611 -2,-1.194 -1,-0.417 -2,-0.694 -1,-0.306 -2,-0.472 -2,-0.306 -1,-0.055 -2,-0.028 h -1 -1 l -2,0.083 -2,0.306 m -398,2.833 1,-0.139 1,-0.055 2,0.055 2,0.306 1,0.25 1,0.222 2,0.583 1,0.417 1,0.417 1,0.555 2,1.195 1.9167,1.389 1.6666,1.666 0.7223,0.945 1.2777,1.972 1,2 0.3889,1 0.6389,2 0.25,1 0.5,2 0.25,1 0.2222,2 -0.0833,1 -0.1389,1 -0.4167,2 -0.4166,2 -0.25,1 -0.8056,2 -1.1111,2 -0.6389,1 -0.6666,1 -1.5278,1.917 -1.8056,1.666 -0.9722,0.723 -1,0.666 -1,0.611 -2,1 -1,0.389 -2,0.611 -1,0.195 -1,0.139 -2,0.083 h -1 l -2,-0.028 -1,-0.055 -2,-0.334 -1,-0.277 -2,-0.695 -1,-0.444 -1,-0.417 -1,-0.528 -1,-0.472 -1.9722,-1.222 -1.8056,-1.611 -1.5278,-1.917 -1.2777,-2 -1,-2 -0.7223,-2 -0.2777,-1 -0.4167,-2 -0.3611,-2 -0.1667,-1 v -2 l 0.3334,-2 0.4166,-2 0.25,-1 0.7778,-2 0.5278,-1 0.4722,-1 1.2222,-2 0.7778,-1 1.7778,-1.972 1.9722,-1.778 1,-0.778 2,-1.194 2,-0.834 1,-0.277 2,-0.528 2,-0.417 m 401,0 1,-0.139 1,-0.055 2,0.055 2,0.306 1,0.25 2,0.528 1,0.277 1,0.417 1,0.417 2,1.194 1,0.778 1.972,1.778 1.778,1.972 0.778,1 1.222,2 0.472,1 0.528,1 0.778,2 0.25,1 0.416,2 0.334,2 v 2 l -0.167,1 -0.361,2 -0.417,2 -0.666,2 -0.973,2 -0.583,1 -0.555,1 -1.278,1.917 -0.778,0.861 -0.833,0.805 -0.945,0.723 -1.972,1.305 -1,0.556 -2,1.055 -1,0.528 -2,0.778 -2,0.389 -1,0.055 -2,0.028 h -2 l -2,-0.083 -2,-0.334 -2,-0.611 -1,-0.389 -2,-1 -2,-1.277 -1.972,-1.528 -0.945,-0.861 -1.611,-1.917 -1.222,-2 -0.472,-1 -0.528,-1 -0.861,-2 -0.695,-2 -0.277,-1 -0.334,-2 -0.055,-2 0.055,-1 0.306,-2 0.25,-1 0.528,-2 0.277,-1 0.834,-2 0.555,-1 1.195,-2 1.389,-1.972 0.805,-0.945 1.806,-1.611 0.972,-0.611 2,-1.083 1,-0.528 2,-0.806 2,-0.583 1,-0.222 z"
     id="path133" />
</svg>
