<?xml version="1.0" encoding="UTF-8" standalone="no"?>
<svg
   width="871"
   height="478"
   version="1.1"
   id="svg4"
   xml:space="preserve"
   xmlns="http://www.w3.org/2000/svg"
   xmlns:svg="http://www.w3.org/2000/svg"><defs
     id="defs8" /><path
     style="display:inline;fill:#00ff00;stroke:none"
     d="m 199.34646,1.38889 -1,0.22222 -2,0.30555 -2,0.08334 h -1 -2 -7 -3 -1 l -2,0.08334 -2,0.30555 -1,0.22222 -2,0.30555 -1,0.05557 -2,0.02777 h -2 -8 -2 l -2,0.02777 -1,0.05557 -2,0.30555 -1,0.22222 -2,0.30555 -1,0.05557 -2,0.02777 h -3 -10 -3 l -2,0.02777 -1,0.05557 -2,0.30555 -1,0.22222 -2,0.30555 -2,0.08334 h -1 -3 -8 -2 l -2,0.02777 -1,0.05557 -2,0.30555 -1,0.22222 -2,0.30555 -1,0.05557 -2,0.02777 h -1 -4 -11 -4 -2 l -2,0.08334 -2,0.30555 -1,0.22222 -2,0.30555 -1,0.05557 -2,0.02777 h -1 -2 -6 -3 l -2,0.02777 -1,0.05557 -2,0.30555 -1,0.22222 -2,0.30555 -1,0.05557 -1,0.02777 h -2 -5 -3 -2 l -2,0.02777 -1,0.05557 -2,0.30555 -1,0.22222 -2,0.30555 -1,0.05557 -2,0.05554 -1,0.08334 -2,0.58335 -1,0.55554 -2,1.3889 -1,0.75 -2,1.6944 -1.0000002,0.9445 -2,1.9722 -2,2 -1.88889,2 -1.38889,2 -0.38889,1 -0.22222,1 -0.08333,1 -0.02778,2 v 1 2 15 67 6 2 1 l 0.02778,2 0.08333,1 0.61111,2 1.38889,2 0.91667,1 0.97222,1 2,2 2,2 5.0000002,5 2,2 1,1 1.9722,2 1.7778,2 0.75,1 1,2 0.4444,2 0.2778,2 0.1667,1 0.2222,1 0.3056,2 0.0555,1 0.0278,2 v 2 3 14 42 70 23 8 3 1 l -0.0833,2 -0.3056,2 -0.4167,2 -0.4166,2 -0.2778,1 -0.4167,1 -1.1111,2 -0.6666,1 -0.7223,1 -1.6666,2 -0.9445,1 -1.9722,2 -2,2 -4.0000002,4 -3,3 -1,1 -1.88889,2 -0.77778,1 -0.61111,1 -0.61111,2 -0.08333,1 -0.02778,2 v 2 5 62 19 3 2 l 0.02778,2 0.30555,2 0.38889,1 1.38889,2 0.91667,1 1.97222,2 2,2 2.0000002,2 1,1 2,1.972 2,1.695 2,1 1,0.222 1,0.083 1,0.028 h 1 2 13 52 122 40 13 3 1 l 2,-0.028 1,-0.055 2,-0.417 2,-1 2,-1.583 2,-1.917 1,-1 2,-2 3,-3 2,-2 1,-1 2,-1.917 1,-0.833 1,-0.75 2,-1.083 1,-0.389 2,-0.611 1,-0.195 1,-0.139 2,-0.083 h 1 2 9 27 84 101 13 18 2 10 2 1 1 l 2,0.083 1,0.139 2,0.417 1,0.222 2,0.611 2,1.028 1,0.75 1,0.833 2,1.917 1,1 2,2 3,3 1,1 2,2 1,0.972 1,0.945 2,1.583 2,1 1,0.25 2,0.222 1,0.028 h 1 2 11 12 17 1 5 13 18 2 5 11 5 8 6 1 8 4 4 16 5 5 16 20 3 2 8 4 1 5 2 2 5 8 4 4 2 l 2,-0.028 2,-0.222 1,-0.25 2,-1 2,-1.583 2,-1.917 1,-1 2,-2 2,-2 1,-1 1.889,-2 0.778,-1 0.611,-1 0.611,-2 0.083,-1 0.028,-1 v -2 -6 -2 -18 -2 -6 -2 -19 -33 -3 -1 -1 l -0.111,-2 -0.611,-2 -1.389,-2 -0.917,-1 -0.972,-1 -2,-2 -1,-1 -2,-2 -3,-3 -2,-2 -2,-2 -1.972,-2 -0.945,-1 -1.583,-2 -1.083,-2 -0.723,-2 -0.277,-1 -0.334,-2 -0.083,-2 v -1 -3 -8 -1 -1 -23 -2 -8 -63 -2 -4 -1 -2 -1 -33 -1 -13 -3 -2 l 0.028,-2 0.055,-1 0.334,-2 0.611,-2 0.389,-1 1.083,-2 0.75,-1 0.833,-1 1.917,-2 1,-1 1,-1 2,-2 6,-6 2,-2 1,-1 1.889,-2 0.778,-1 1,-2 0.222,-1 0.083,-1 0.028,-1 v -1 -3 -16 -2 V 99 81 49 33 30 28 l -0.111,-2 -0.222,-1 -0.389,-1 -1.389,-2 -0.917,-1 -1.972,-2 -2,-2 -2,-2 -1,-1 -2,-1.9722 -1,-0.9167 -2,-1.38887 -1,-0.38892 -1,-0.2222 -1,-0.08334 -2,-0.05554 -1,-0.05557 -2,-0.30555 -1,-0.22222 -2,-0.30555 -2,-0.08334 h -1 -2 -6 -1 -3 -1 l -2,-0.08334 -1,-0.13889 -2,-0.38888 -2,-0.30555 -1,-0.05557 -1,-0.02777 h -2 -3 -4 -3 -1 l -2,-0.02777 -1,-0.05557 -2,-0.30555 -2,-0.38888 -1,-0.13889 -2,-0.08334 h -2 -4 -3 -8 -4 l -2,-0.02777 -1,-0.05557 -2,-0.30555 -1,-0.22222 -2,-0.30555 -2,-0.08334 h -1 -3 -8 -2 l -2,-0.02777 -1,-0.05557 -2,-0.30555 -1,-0.22222 -2,-0.30555 -1,-0.05557 -2,-0.02777 h -3 -4 -6 -2 -1 l -2,-0.02777 -1,-0.05557 -2,-0.30555 -1,-0.22222 -2,-0.30555 -2,-0.08334 h -1 -3 -3 -4 -2 l -2,-0.02777 -1,-0.05557 -2,-0.30555 -1,-0.22222 -2,-0.30555 -1,-0.05557 -2,-0.02777 h -2 -8 -2 l -2,-0.02777 -1,-0.05557 -2,-0.30555 -1,-0.22222 -2,-0.30555 -1,-0.05557 -2,-0.02777 h -2 -1 -9 -4 -6 -2 -5 -10 -5 -2 -13 -4 -2 l -2,0.02777 -2,0.30554 -1,0.38892 -1,0.61108 -2,1.69446 -1,0.97223 -2,2 -2,2 -0.972,1 -0.945,1 -1.694,2 -0.778,1 -1.694,2 -0.945,1 -1.972,2 -2,2 -1,1 -2,1.9167 -1,0.8333 -1,0.7778 -2,1.1944 -2,0.8056 -2,0.3889 -1,0.0555 -2,0.0278 h -2 -2 -1 -14 -4 -4 -16 -8 -12 -134 -46 -14 -2 l -2,-0.0278 -2,-0.2222 -1,-0.25 -2,-1 -2,-1.5833 -1,-0.9445 -1,-0.9722 -2,-2 -1,-1 -3,-3 -9,-9 -2,-2 -2,-1.97223 -1,-0.91666 -2,-1.38888 -2,-0.61112 -2,-0.11111 h -1 -2 -14 -34 -11 -3 -1 l -2,0.08334 -2,0.30555 m 3,2.83334 1,-0.13889 2,-0.08334 h 1 3 10 32 13 2 1 l 2,0.11111 2,0.61112 2,1.38888 1,0.91666 2,1.97223 2,2 9,9 3,3 1,1 2,2 1,0.9722 1,0.9445 2,1.5833 2,1 1,0.25 2,0.2222 2,0.0278 h 3 16 53 130 43 4 10 3 1 l 2,-0.0278 1,-0.0555 2,-0.3889 2,-0.8056 2,-1.1944 1,-0.7778 1,-0.8333 2,-1.9167 1,-1 1,-1 2,-2 1.972,-2 0.945,-1 1.694,-2 0.778,-1 1.694,-2 0.945,-1 1.972,-2 2,-2 1,-0.97223 2,-1.69446 1,-0.61108 1,-0.38892 2,-0.30554 2,-0.02777 h 2 3 3 17 25 8 3 l 2,0.02777 1,0.05557 2,0.30555 1,0.22222 2,0.30555 1,0.05557 2,0.02777 h 2 8 2 l 2,0.02777 1,0.05557 2,0.30555 1,0.22222 2,0.30555 1,0.05557 2,0.02777 h 2 3 4 3 1 l 2,0.08334 2,0.30555 1,0.22222 2,0.30555 1,0.05557 2,0.02777 h 3 4 6 3 l 2,0.02777 1,0.05557 2,0.30555 1,0.22222 2,0.30555 2,0.08334 h 1 3 8 2 l 2,0.02777 1,0.05557 2,0.30555 1,0.22222 2,0.30555 1,0.05557 2,0.02777 h 4 1 10 4 2 l 2,0.08334 1,0.13889 2,0.38888 2,0.30555 1,0.05557 2,0.02777 h 2 8 2 l 2,0.0278 1,0.0555 2,0.3056 1,0.2222 2,0.3056 1,0.0555 2,0.0278 h 3 5 2 1 2 l 1,0.0278 1,0.0555 2,0.3056 1,0.2222 2,0.3056 1,0.0555 2,0.0556 1,0.0833 1,0.2222 2,1 1,0.7778 2,1.8889 2,2 2,2 1,1 1.972,2 0.917,1 1.389,2 0.389,1 0.222,1 0.111,2 v 2 3 16 1 52 14 2 1 l -0.028,1 -0.083,1 -0.222,1 -1,2 -1.695,2 -0.972,1 -2,2 -1,1 -2,2 -3,3 -2,2 -2,2 -1.972,2 -0.945,1 -1.583,2 -1.083,2 -0.723,2 -0.277,1 -0.334,2 -0.083,2 v 1 3 9 4 21 1 11 63 44 14 3 2 l 0.028,2 0.055,1 0.334,2 0.611,2 0.389,1 1.083,2 1.583,2 0.945,1 1.972,2 1,1 1,1 2,2 5,5 2,2 1,1 0.972,1 0.917,1 1.389,2 0.389,1 0.222,1 0.111,2 v 1 2 2 3 13 2 3 37 8 12 6 2 l -0.028,1 -0.083,1 -0.611,2 -0.611,1 -0.778,1 -1.889,2 -2,2 -2,2 -1,1 -2,1.917 -2,1.583 -2,1 -1,0.25 -2,0.222 -1,0.028 h -1 -2 -1 -2 -4 -4 -4 -10 -3 -2 -10 -4 -1 -1 -8 -16 -5 -2 -7 -5 -3 -4 -3 -4 -5 -3 -4 -2 -1 -2 -6 -1 -8 -3 -6 -1 -2 -1 -5 -1 -2 -1 -2 -7 -7 -3 -6 -4 -6 -8 -5 -7 -2 -2 -5 -5 -3 -4 -4 -2 l -2,-0.028 -2,-0.222 -1,-0.25 -2,-1 -2,-1.583 -1,-0.945 -1,-0.972 -2,-2 -1,-1 -3,-3 -2,-2 -1,-1 -2,-1.917 -1,-0.833 -1,-0.75 -2,-1.028 -2,-0.611 -1,-0.222 -2,-0.417 -1,-0.139 -2,-0.083 h -1 -1 -2 -5 -6 -7 -1 -25 -102 -86 -27 -9 -2 -1 l -2,0.083 -1,0.139 -1,0.195 -2,0.611 -1,0.389 -2,1.083 -1,0.75 -1,0.833 -2,1.917 -1,1 -2,2 -4,4 -1,1 -1,1 -2,1.917 -2,1.583 -2,1 -2,0.417 -1,0.055 -2,0.028 h -1 -3 -13 -39 -120 -52 -12 -2 -1 l -1,-0.028 -1,-0.083 -1,-0.222 -2,-1 -1,-0.778 -2,-1.889 -2,-2 -2,-2 -1.0000002,-1 -1.97222,-2 -0.91667,-1 -1.38889,-2 -0.38889,-1 -0.30555,-2 -0.02778,-2 v -2 -3 -19 -62 -3 -1 l 0.11111,-2 0.61111,-2 0.61111,-1 0.77778,-1 1.88889,-2 1,-1 3.0000002,-3 4,-4 2,-2 1.9722,-2 0.9445,-1 1.6666,-2 0.7223,-1 0.6666,-1 1.1111,-2 0.4167,-1 0.2778,-1 0.4166,-2 0.4167,-2 0.3056,-2 0.0833,-2 v -1 -3 -8 -24 -72 -43 -14 -3 -2 l -0.0278,-2 -0.0555,-1 -0.3056,-2 -0.2222,-1 -0.1667,-1 -0.2778,-2 -0.4444,-2 -1,-2 -0.75,-1 -1.7778,-2 -1.9722,-2 -1,-1 -2,-2 -5,-5 -2,-2 -2.0000002,-2 -0.97222,-1 -0.91667,-1 -1.38889,-2 -0.61111,-2 -0.08333,-1 -0.02778,-2 v -2 -4 -66 -15 -2 -1 l 0.02778,-2 0.08333,-1 0.22222,-1 0.38889,-1 1.38889,-2 1.88889,-2 2.0000002,-2 2,-1.9167 2,-1.6944 1,-0.75 2,-1.3889 1,-0.5555 2,-0.5834 1,-0.0833 2,-0.0556 1,-0.0555 2,-0.3056 1,-0.2222 2,-0.3056 1,-0.0555 2,-0.0278 h 2 3 5 2 l 1,-0.0278 1,-0.0555 2,-0.3056 1,-0.2222 2,-0.3056 1,-0.0555 2,-0.0278 h 3 6 2 1 l 2,-0.02777 1,-0.05557 2,-0.30555 1,-0.22222 2,-0.30555 1,-0.05557 2,-0.02777 h 1 4 12 4 l 2,-0.02777 1,-0.05557 2,-0.30555 1,-0.22222 2,-0.30555 1,-0.05557 2,-0.02777 h 2 8 3 l 2,-0.02777 1,-0.05557 2,-0.30555 1,-0.22222 2,-0.30555 2,-0.08334 h 2 3 9 3 l 2,-0.02777 1,-0.05557 2,-0.30555 1,-0.22222 2,-0.30555 1,-0.05557 2,-0.02777 h 2 7 3 1 l 2,-0.08334 2,-0.30555 1,-0.22222 2,-0.30555 1,-0.05557 2,-0.02777 h 2 8 2 1 l 2,-0.08334 1,-0.13889 1,-0.16666 2,-0.38888 m -173,53.19447 -1,0.2778 -2,0.7222 -2,1 -1,0.6111 -2,1.3889 -0.9722,0.8055 -0.9445,0.8611 -1.6111,1.9167 -1.2222,2 -0.4722,1 -0.9445,2 -0.4444,1 -0.6945,2 -0.2777,1 -0.1945,1 -0.1944,2 -0.0278,1 0.0278,2 0.0555,1 0.3056,2 0.4722,2 0.5833,2 0.8334,2 0.5555,1 1.1945,2 0.6666,1 1.5278,1.9167 1.8056,1.6666 1.9722,1.3334 2,1 2,0.75 1,0.3333 2,0.583 2,0.334 1,0.055 1,0.028 h 2 1 l 2,-0.083 2,-0.334 2,-0.6108 1,-0.3611 2,-0.8889 1,-0.5555 1,-0.5556 1.9722,-1.3056 0.9445,-0.7222 1.6666,-1.6666 0.7223,-0.9445 1.2777,-1.9722 1,-2 0.7223,-2 0.2777,-1 0.4167,-2 0.3889,-2 0.2222,-1 0.2778,-2 v -1 l -0.2778,-2 -0.25,-1 -0.5,-2 -0.25,-1 -0.6389,-2 -0.3889,-1 -1,-2 -0.6111,-1 -0.6666,-1 -1.5278,-1.9167 -1.8056,-1.6666 -0.9722,-0.7222 -1,-0.6667 -1,-0.6111 -2,-1 -1,-0.3889 -2,-0.6111 -1,-0.1945 -1,-0.1389 -2,-0.0833 h -1 -2 -2 l -2,0.0833 -2,0.3334 m 801,0 -1,0.2778 -2,0.6944 -2,0.8889 -2,1.1944 -1.972,1.6111 -0.945,0.9445 -1.666,1.9722 -0.723,1 -0.666,1 -0.611,1 -0.945,2 -0.305,1 -0.528,2 -0.25,1 -0.306,2 -0.055,1 -0.028,2 0.028,2 0.055,1 0.334,2 0.583,2 0.333,1 0.75,2 1,2 1.334,2 1.666,1.9167 1.917,1.6666 2,1.3889 1,0.6111 2,1 2,0.7227 1,0.277 2,0.334 2,0.083 h 2 2 l 2,-0.083 2,-0.334 2,-0.6108 2,-0.8055 1,-0.4445 2,-1.1944 1,-0.7778 1,-0.8333 1.917,-1.9167 0.861,-1 1.5,-2 0.639,-1 1,-2 0.361,-1 0.305,-1 0.334,-2 0.083,-2 v -1 -1 -2 -2 l -0.028,-1 -0.055,-1 -0.334,-2 -0.277,-1 -0.723,-2 -1.055,-2 -0.695,-1 -0.694,-0.9722 -1.528,-1.8056 -0.833,-0.8333 -0.861,-0.75 -1.917,-1.4167 -2,-1.1389 -1,-0.4444 -2,-0.8056 -1,-0.3611 -2,-0.3889 -2,-0.0833 h -1 -2 -2 l -2,0.0833 -2,0.3334 m -798,2.8055 2,-0.1944 1,-0.0278 h 1 l 2,0.0833 2,0.3334 2,0.6111 1,0.3889 2,1 1,0.6111 0.9722,0.6667 0.9445,0.7222 1.6666,1.6666 0.7223,0.9445 1.2777,1.9722 1,2 0.3889,1 0.6389,2 0.25,1 0.4167,2 0.1111,1 -0.0833,2 -0.1389,1 -0.1667,1 -0.4167,2 -0.2777,1 -0.7223,2 -1,2 -1.2777,1.9167 -0.7223,0.8611 -0.8055,0.8055 -0.8611,0.7222 -1.9167,1.3056 -1,0.5556 -2,1 -1,0.4444 -2,0.6944 -1,0.2778 -1,0.1945 -1,0.1389 -2,0.0555 -1,-0.0555 -2,-0.3334 -1,-0.2778 -2,-0.6388 -2,-0.75 -2,-1 -0.9722,-0.6389 -0.9445,-0.6945 -0.8611,-0.8055 -0.8055,-0.8611 -1.3889,-1.9167 -0.6389,-1 -1.1111,-2 -0.8334,-2 -0.2777,-1 -0.5278,-2 -0.25,-1 -0.2778,-2 v -1 l 0.3056,-2 0.6111,-2 0.3611,-1 0.4444,-1 0.9445,-2 0.4722,-1 0.6111,-1 0.6111,-0.9722 1.6111,-1.8056 0.9445,-0.8055 1.9722,-1.3889 2,-1.1389 1,-0.4722 2,-0.7222 1,-0.2778 1,-0.1945 m 801,0 2,-0.1944 2,-0.0278 2,0.0833 2,0.3889 1,0.3611 2,0.8056 1,0.4444 1.972,1.1389 0.945,0.6667 1.694,1.5 1.528,1.6944 1.389,1.9167 1.055,2 0.389,1 0.611,2 0.334,2 0.055,1 0.028,2 -0.028,2 -0.055,1 -0.334,2 -0.666,2 -1,2 -1.334,2 -0.805,1 -1.806,1.9167 -0.972,0.8333 -1,0.7778 -1,0.6111 -2,1.0278 -1,0.4444 -2,0.6944 -1,0.2778 -1,0.1945 -2,0.1944 h -2 l -1,-0.0555 -2,-0.3334 -1,-0.2778 -2,-0.7222 -2,-1 -1,-0.6111 -1.972,-1.3889 -0.945,-0.8055 -1.666,-1.8056 -0.695,-0.9722 -0.639,-1 -1,-2 -0.389,-1 -0.694,-2 -0.583,-2 -0.195,-1 -0.139,-1 v -2 l 0.306,-2 0.25,-1 0.528,-2 0.305,-1 0.945,-2 1.277,-2 0.723,-1 1.666,-1.9167 1.917,-1.6111 1,-0.6111 2,-1.0278 1,-0.4444 2,-0.6944 1,-0.2778 1,-0.1945 m -805,326.2498 -1,0.389 -2,0.917 -2,1.083 -1,0.611 -1.9722,1.611 -0.9445,0.945 -1.6666,1.972 -1.3334,2 -1,2 -0.75,2 -0.3333,1 -0.5833,2 -0.3334,2 -0.0833,2 0.0278,2 0.0555,1 0.3056,2 0.4722,2 0.3056,1 0.2777,1 0.8334,2 0.5555,1 1.1945,2 1.3889,1.917 1.6666,1.666 0.9445,0.723 1.9722,1.305 1,0.556 1,0.555 2,0.889 2,0.695 1,0.277 1,0.195 1,0.139 2,0.083 h 1 1 l 2,-0.028 1,-0.055 2,-0.334 1,-0.277 2,-0.695 1,-0.444 1,-0.445 2,-1.194 1,-0.778 1,-0.833 1.9722,-1.917 1.7778,-2 0.75,-1 0.5833,-1 0.5,-1 0.7223,-2 0.2777,-1 0.4167,-2 0.3889,-2 0.2222,-1 0.2778,-2 v -1 l -0.2778,-2 -0.2222,-1 -0.3889,-2 -0.2222,-1 -0.25,-1 -0.8056,-2 -1.1111,-2 -0.6389,-1 -1.3889,-2 -0.8055,-0.972 -0.8611,-0.945 -1.9167,-1.611 -2,-1.222 -1,-0.472 -1,-0.528 -2,-0.778 -2,-0.389 -1,-0.055 -2,-0.028 h -1 -2 -2 -1 l -2,0.083 -2,0.389 m 801,-0.055 -1,0.305 -1,0.361 -2,1 -1,0.639 -2,1.5 -1,0.861 -1.917,1.917 -1.611,2 -0.611,1 -0.583,1 -0.417,1 -0.417,1 -0.277,1 -0.528,2 -0.25,1 -0.306,2 -0.055,1 -0.028,2 v 1 l 0.083,2 0.334,2 0.277,1 0.695,2 0.444,1 0.417,1 0.528,1 1.083,2 0.611,1 1.611,1.917 1.917,1.666 2,1.334 1,0.527 1,0.473 2,0.75 2,0.639 2,0.472 1,0.139 2,0.083 h 1 l 2,-0.028 1,-0.055 2,-0.306 1,-0.25 1,-0.222 2,-0.583 1,-0.417 1,-0.417 2,-1.194 2,-1.611 1.917,-1.917 1.611,-2 0.611,-1 1.083,-2 0.917,-2 0.389,-1 0.389,-2 0.083,-2 v -1 -1 -2 -2 l -0.083,-2 -0.139,-1 -0.195,-1 -0.277,-1 -0.723,-2 -0.472,-1 -1.139,-2 -1.389,-1.972 -1.666,-1.806 -0.945,-0.805 -1.972,-1.389 -2,-1.139 -1,-0.472 -2,-0.723 -1,-0.277 -1,-0.195 -1,-0.139 -2,-0.083 h -1 -2 -2 -1 l -2,0.083 -2,0.334 m -798,2.833 1,-0.167 2,-0.083 h 1 2 l 1,0.028 1,0.055 2,0.389 2,0.778 1,0.528 2,1.083 0.9722,0.611 1.8056,1.611 0.8055,0.945 1.3889,1.972 1.1945,2 0.5555,1 0.8056,2 0.25,1 0.2222,1 0.3056,2 0.0833,2 -0.2222,2 -0.3611,2 -0.5,2 -0.7223,2 -0.5,1 -0.5833,1 -1.5833,2 -0.9445,0.972 -1.9722,1.778 -1,0.778 -2,1.194 -1,0.445 -2,0.805 -2,0.611 -2,0.334 -2,0.055 -1,-0.055 -2,-0.334 -2,-0.611 -1,-0.361 -2,-0.889 -1,-0.555 -1,-0.556 -1.9167,-1.305 -1.6666,-1.528 -1.3889,-1.806 -0.6389,-0.972 -1.1111,-2 -0.8334,-2 -0.2777,-1 -0.5278,-2 -0.25,-1 -0.2778,-2 0.1111,-2 0.1945,-1 0.2777,-1 0.6389,-2 0.75,-2 1,-2 1.3334,-2 1.6666,-1.917 1.9167,-1.611 1,-0.611 2,-1.083 1,-0.528 2,-0.778 1,-0.222 m 801,-0.028 2,-0.194 2,-0.028 2,0.028 2,0.194 1,0.195 1,0.277 2,0.723 2,1 1,0.611 1.917,1.389 0.861,0.805 1.528,1.806 0.666,0.972 0.611,1 1,2 0.389,1 0.611,2 0.334,2 0.083,2 v 1 1 l -0.083,2 -0.389,2 -0.389,1 -0.917,2 -1.083,2 -0.611,1 -1.611,1.972 -0.945,0.945 -1.972,1.611 -1,0.611 -1,0.583 -2,0.834 -1,0.277 -2,0.528 -1,0.25 -2,0.306 -1,0.027 -1,-0.027 -2,-0.334 -2,-0.583 -1,-0.333 -2,-0.75 -2,-1 -1,-0.639 -1.917,-1.5 -1.611,-1.806 -1.222,-1.972 -0.472,-1 -0.945,-2 -0.444,-1 -0.695,-2 -0.277,-1 -0.334,-2 v -2 l 0.306,-2 0.25,-1 0.528,-2 0.277,-1 0.417,-1 0.417,-1 0.583,-1 0.611,-1 1.611,-1.972 0.945,-0.945 1.972,-1.666 2,-1.334 2,-1 2,-0.666 z"
     id="path2" /><path
     style="display:inline;fill:#00ff00;stroke:none;stroke-width:0.918128"
     d="m 461.24073,51.08137 -0.91811,1.377191 -0.20384,0.510019 -0.51047,0.918128 -0.35716,0.867173 -0.43335,0.918132 -0.38285,0.918125 -0.91815,1.836257 -1.02002,1.836257 -0.53529,0.918125 -0.43335,0.918123 -0.91811,1.836258 -0.5105,0.918134 -0.40764,0.918123 -0.51047,0.918124 -0.40766,0.918135 -0.94382,1.836258 -0.53528,0.918122 -1.02004,1.83626 -0.91812,1.836257 -0.38286,0.918123 -0.43336,0.918123 -0.38287,0.918136 -0.48476,0.918122 -0.43335,0.918135 -0.53528,0.918124 -0.51047,0.918123 -1.12196,1.836258 -0.53526,0.918122 -1.09717,1.83626 -1.12195,1.836257 -1.04575,1.836263 -0.45907,0.918123 -1.04575,1.836258 -1.12194,1.836259 -1.09715,1.836257 -0.53528,0.918123 -1.12195,1.836255 -1.04574,1.83625 -0.45908,0.918138 -1.04574,1.83626 -1.12195,1.83625 -1.04576,1.83626 -0.45906,0.91813 -1.04575,1.83626 -0.58668,0.91812 -1.19815,1.83625 -1.22479,1.83626 -0.61147,0.91813 -0.58669,0.91812 -0.58668,0.91814 -0.53527,0.91812 -1.09716,1.83627 -1.17337,1.83625 -0.61147,0.91812 -1.22478,1.83625 -3.06011,4.59063 -1.22388,1.83626 -1.17336,1.83626 -1.09716,1.83627 -0.53528,0.91811 -0.58668,0.91814 -0.58667,0.91813 -1.22389,1.83626 -1.22385,1.83625 -0.6124,0.91813 -1.27527,1.83625 -0.6886,0.91812 -0.6629,0.91812 -1.32668,1.83626 -1.19816,1.83626 -0.53526,0.91813 -0.58669,0.91814 -0.56097,0.91811 -0.6638,0.91813 -0.63719,0.91813 -0.6886,0.91813 -1.27527,1.83625 -1.22387,1.83627 -1.83626,2.75437 -0.61239,0.91814 -0.63718,0.91812 -0.6381,0.91812 -1.35148,1.83626 -0.6886,0.91814 -0.6381,0.91813 -1.27436,1.83625 -0.6381,0.91813 -0.68858,0.91812 -1.3515,1.83625 -0.6381,0.91814 -1.27436,1.83624 -0.6381,0.91814 -1.35148,1.83625 -0.71431,0.91812 -0.66289,0.91814 -0.7143,0.91813 -0.66288,0.91812 -1.37721,1.83625 -0.7143,0.91814 -1.35146,1.83625 -0.6381,0.91814 -0.6372,0.91811 -1.22385,1.83626 -0.6124,0.91812 -1.30099,1.83626 -1.45339,1.83627 -1.4791,1.83626 -1.4029,1.83623 -0.66288,0.91815 -1.3772,1.83626 -0.7143,0.91811 -0.66289,0.91812 -0.71431,0.91815 -1.37719,1.83624 -0.6629,0.91813 -1.40288,1.83627 -0.73909,0.91811 -1.48002,1.83626 -0.7391,0.91813 -1.4029,1.83625 -0.66288,0.91813 -0.71431,0.91813 -0.68861,0.91813 -0.73909,0.91814 -1.48001,1.83624 -0.7391,0.91813 -1.40289,1.83626 -0.66289,0.91812 -0.7143,0.91813 -1.37721,1.83625 -1.37718,1.83627 -0.6886,0.91811 -0.76481,0.91813 -0.7657,0.91813 -0.8153,0.91814 -1.53053,1.83624 -0.68859,0.91813 -1.37719,1.83627 -0.7143,0.91812 -0.6886,0.91813 -1.53052,1.83626 -1.58101,1.83624 -1.47911,1.83626 -1.53052,1.83626 -0.8153,0.91812 -1.53052,1.83626 -1.47911,1.83626 -1.58101,1.83626 -1.53052,1.83624 -0.71431,0.91814 -0.73907,0.91813 -1.48003,1.83625 -0.73909,0.91812 -0.7143,0.91814 -1.53053,1.83624 -0.8153,0.91815 -1.53051,1.83624 -1.47911,1.83626 -0.7905,0.91814 -1.68386,1.83623 -0.7905,0.91814 -1.4791,1.83626 -1.55531,1.83625 -0.86764,0.91813 -1.78482,1.83624 -0.86765,0.91814 -1.55531,1.83626 -0.7143,0.91812 -1.5553,1.83626 -0.86765,0.91813 -1.78481,1.83625 -0.86765,0.91813 -1.5553,1.83626 -0.71431,0.91813 -1.5553,1.83625 -1.73435,1.83625 -0.86763,0.91813 -1.4534,1.83626 -0.91812,1.83626 -0.22953,0.91812 -0.20384,1.83626 -0.0258,1.83626 v 1.83626 11.01753 39.4795 l 0.91813,0.91812 h 172.608 l 0.91813,0.91811 v 82.63151 l 0.91813,0.91813 h 73.45022 l 0.91814,-0.91813 v -82.63151 l 0.9181,-0.91811 h 55.08768 l 0.91812,-0.91812 v -55.08767 l -0.91812,-0.91814 h -55.0875 l -0.91812,-0.91812 V 51.999477 l -0.91811,-0.918129 h -76.20455 m 74.36833,2.754384 v 61.514568 118.43848 45.90638 7.34503 2.75439 0.91812 1.83627 l 0.0257,0.91811 0.0762,0.91813 0.56099,1.81055 0.56098,0.84192 0.71429,0.71431 1.73435,0.91814 0.91812,0.20381 0.91813,0.0762 1.83626,0.0257 h 0.91812 1.83627 5.50875 41.31577 v 51.41517 h -40.39763 -6.42689 -1.83627 -0.91812 l -1.83626,0.0257 -0.91813,0.0762 -1.81055,0.56099 -0.84192,0.56096 -0.71429,0.71431 -0.91813,1.73434 -0.20384,0.91814 -0.0762,0.91812 -0.0257,0.91813 v 1.83624 1.83626 2.75439 10.09942 61.51454 h -69.77771 v -60.59643 -14.69003 -1.83626 -0.91813 l -0.10194,-1.83625 -0.20382,-0.91814 -0.91813,-1.73434 -0.7143,-0.71431 -1.73435,-0.91811 -0.91811,-0.20384 -0.91815,-0.0762 -1.83625,-0.0257 H 456.6502 452.97767 420.8432 291.38719 v -36.72512 -10.09941 -1.83624 l 0.0258,-1.83626 0.2038,-1.83627 0.22955,-0.91811 0.91813,-1.83626 1.45339,-1.83627 0.86764,-0.91811 1.73433,-1.83627 0.79052,-0.91811 1.47911,-1.83626 1.55531,-1.83626 0.86761,-0.91812 1.78484,-1.83627 0.86764,-0.91811 1.55531,-1.83627 0.71431,-0.91814 1.5553,-1.83623 0.86763,-0.91814 1.78483,-1.83627 0.86765,-0.91811 1.55531,-1.83626 1.4791,-1.83626 0.7905,-0.91812 1.68384,-1.83626 1.55531,-1.83625 1.47911,-1.83626 1.58102,-1.83625 1.53051,-1.83627 0.7143,-0.91812 0.73911,-0.91812 1.48002,-1.83626 0.73909,-0.91813 0.7143,-0.91812 1.53052,-1.83627 1.58101,-1.83624 1.47911,-1.83626 1.53051,-1.83626 0.8153,-0.91812 1.53052,-1.83626 1.4791,-1.83626 1.58102,-1.83626 1.53053,-1.83624 0.68858,-0.91814 0.71432,-0.91812 1.37719,-1.83625 0.68858,-0.91813 1.53052,-1.83627 0.8153,-0.91812 0.76572,-0.91812 0.7648,-0.91814 0.6886,-0.91813 1.3772,-1.83624 1.37718,-1.83627 0.71431,-0.91812 0.66289,-0.91813 1.40289,-1.83626 0.7391,-0.91813 1.48002,-1.83625 0.73909,-0.91813 1.4029,-1.83625 0.66288,-0.91813 0.71431,-0.91813 0.68859,-0.91813 0.73909,-0.91813 1.48004,-1.83625 0.73909,-0.91813 1.4029,-1.83625 0.66289,-0.91813 1.37718,-1.83626 0.71431,-0.91812 0.66289,-0.91813 0.7143,-0.91814 1.37719,-1.83623 0.66288,-0.91814 1.40291,-1.83627 1.47911,-1.83623 1.45339,-1.83627 1.30099,-1.83626 0.61239,-0.91811 1.22387,-1.83627 0.63717,-0.91812 0.6381,-0.91814 1.35149,-1.83625 0.7143,-0.91813 0.66289,-0.91812 0.7143,-0.91814 0.66289,-0.91812 1.37718,-1.83626 0.7143,-0.91812 1.3515,-1.83626 0.6381,-0.91812 1.27436,-1.83627 0.63809,-0.91812 1.35148,-1.83626 0.68861,-0.91813 0.63809,-0.91812 1.27436,-1.83625 0.6381,-0.91814 0.6886,-0.91812 1.35147,-1.83626 0.63811,-0.91812 0.63718,-0.91814 0.6124,-0.91813 1.83625,-2.75436 1.22387,-1.83627 1.27528,-1.83626 0.68859,-0.91812 1.301,-1.83626 0.56096,-0.91813 0.58669,-0.91813 1.12195,-1.83625 1.24957,-1.83625 0.68859,-0.91814 1.35149,-1.83626 1.27528,-1.83624 0.61241,-0.91813 1.22385,-1.83625 1.22386,-1.83625 0.58669,-0.91815 0.58668,-0.91811 0.53526,-0.91813 1.09718,-1.83625 1.17336,-1.83626 1.22386,-1.83627 3.06012,-4.59064 1.22478,-1.83625 0.61147,-0.91813 1.17339,-1.83624 0.53525,-0.91814 1.09717,-1.83626 1.17336,-1.83624 0.61148,-0.91814 1.22478,-1.83626 0.61148,-0.91812 0.58668,-0.91812 0.58667,-0.91813 1.04575,-1.83625 0.45908,-0.91814 1.04574,-1.83625 1.12195,-1.83626 1.04575,-1.83625 0.45906,-0.91813 1.04575,-1.836268 1.12194,-1.83625 1.09718,-1.836256 0.53526,-0.918122 1.12196,-1.836259 1.04574,-1.836257 0.45906,-0.918125 1.04575,-1.836256 1.12196,-1.836264 0.53525,-0.918124 1.09718,-1.836258 1.12195,-1.836258 0.51048,-0.918123 0.53526,-0.918134 0.43336,-0.918124 0.48477,-0.918123 0.38286,-0.918135 0.43335,-0.918123 0.38287,-0.918134 0.91813,-1.836247 0.53526,-0.918135 1.02005,-1.836258 0.43335,-0.918123 0.51048,-0.918124 0.40765,-0.918134 0.91813,-1.836258 0.51048,-0.918123 0.40764,-0.918124 0.94384,-1.836257 0.53527,-0.918134 0.48476,-0.918124 0.53527,-0.918124 0.91814,-1.836258 0.79142,-1.7853 0.35623,-0.918134 0.28096,-0.510014 0.45905,-1.377193 h 72.53209 M 358.4106,298.05776 l 0.91813,0.91812 h 78.04086 19.28069 2.75438 l 1.83626,-0.0257 1.81055,-0.28002 0.84191,-0.35715 0.71431,-0.56098 0.56096,-0.71431 0.35715,-0.84193 0.20385,-0.8924 0.10192,-1.83627 v -1.83625 -3.67251 -26.6257 -107.42095 l -0.91812,-0.91813 -1.37719,0.0258 -1.40289,0.28003 -0.81622,0.35716 -1.5296,1.27528 -0.66381,0.84192 -1.19815,1.81055 -0.53528,0.91811 -1.09714,1.83627 -0.561,0.91813 -1.09624,1.83624 -0.56189,0.91814 -0.53527,0.91813 -1.12195,1.83625 -0.53527,0.91812 -1.09716,1.83627 -1.12196,1.83626 -0.53528,0.91811 -1.09715,1.83627 -1.12195,1.83625 -1.09715,1.83625 -0.53528,0.91814 -0.58669,0.91811 -0.58667,0.91814 -1.22387,1.83625 -1.83625,2.75439 -0.6124,0.91812 -1.22386,1.83626 -0.63718,0.91813 -0.63809,0.91812 -0.68861,0.91813 -1.35148,1.83626 -1.27528,1.83626 -1.22387,1.83626 -3.06104,4.59064 -1.22385,1.83623 -0.6372,0.91815 -0.63809,0.91812 -1.35148,1.83626 -0.68861,0.91811 -0.63808,0.91815 -1.27437,1.83623 -0.63809,0.91815 -1.35149,1.83625 -0.7143,0.91812 -0.66289,0.91813 -1.37719,1.83626 -0.7143,0.91813 -0.66289,0.91812 -0.71432,0.91813 -0.66289,0.91814 -1.37719,1.83626 -0.71429,0.91811 -1.35148,1.83626 -0.6381,0.91812 -1.27436,1.83626 -0.63811,0.91812 -1.35148,1.83626 -0.7143,0.91814 -0.66289,0.91813 -0.71431,0.91811 -0.66288,0.91814 -1.40291,1.83626 -0.73909,0.91812 -1.48002,1.83626 -1.4534,1.83624 -1.4791,1.83627 -1.47911,1.83625 -1.40289,1.83625 -0.66288,0.91814 -0.7143,0.91813 -0.68861,0.91812 -1.47911,1.83625 -1.47909,1.83627 -1.45339,1.83625 -1.48004,1.83625 -0.73909,0.91814 -1.40291,1.83625 -0.66289,0.91813 -0.71428,0.91811 -0.68859,0.91815 -0.73911,0.91812 -1.48001,1.83626 -1.45341,1.83626 -1.53051,1.83624 -0.8153,0.91814 -1.53052,1.83625 -0.71431,0.91812 -1.5305,1.83627 -0.81531,0.91812 -1.53052,1.83625 -1.45339,1.83627 -1.48002,1.83624 -0.73909,0.91813 -0.7143,0.91813 -0.73911,0.91814 -1.48003,1.83624 -0.73909,0.91813 -0.7143,0.91813 -0.73908,0.91814 -1.48002,1.83624 -0.73909,0.91814 -1.37721,1.83625 -1.09716,1.83625 -0.33145,0.91813 -0.28002,1.78485 -0.0258,1.88766 m 104.66659,-141.3918 v 138.63729 l -0.91813,0.91812 H 361.16495 l 0.6886,-1.37719 0.43336,-0.51048 0.61239,-0.91812 0.6886,-0.86671 0.6886,-0.91814 0.73907,-0.91813 1.48003,-1.83626 0.73909,-0.91812 0.7143,-0.91813 1.47911,-1.83624 1.47911,-1.83627 0.7143,-0.91812 0.73909,-0.91813 1.48002,-1.83627 0.73909,-0.91812 0.71431,-0.91812 1.53051,-1.83626 0.81531,-0.91814 1.53051,-1.83624 0.71431,-0.91813 1.53051,-1.83627 0.81531,-0.91811 1.53051,-1.83626 1.45341,-1.83625 1.48001,-1.83626 0.7391,-0.91814 0.68859,-0.91811 0.71431,-0.91813 0.66289,-0.91814 1.40289,-1.83625 0.73909,-0.91812 1.48003,-1.83627 1.45339,-1.83624 1.47911,-1.83626 1.4791,-1.83626 1.4029,-1.83626 0.66289,-0.91812 0.71431,-0.91812 0.6886,-0.91814 1.47909,-1.83626 1.4791,-1.83624 1.4534,-1.83627 1.48002,-1.83625 0.73911,-0.91812 1.40288,-1.83625 0.66288,-0.91813 0.71431,-0.91814 0.6629,-0.91813 0.7143,-0.91812 1.35148,-1.83626 0.6381,-0.91813 1.27436,-1.83624 0.6381,-0.91813 1.35147,-1.83627 0.71432,-0.91812 1.3772,-1.83625 0.66288,-0.91814 0.71431,-0.91812 0.66289,-0.91813 0.7143,-0.91813 1.37719,-1.83625 0.66288,-0.91813 0.71431,-0.91813 1.3515,-1.83626 0.63808,-0.91812 1.27437,-1.83626 0.63809,-0.91813 0.6886,-0.91811 1.35149,-1.83627 1.27528,-1.83625 1.22385,-1.83627 3.06104,-4.59064 1.22387,-1.83623 1.27527,-1.83626 1.35149,-1.83627 0.6886,-0.91811 0.63809,-0.91815 0.63718,-0.91812 0.61241,-0.91812 1.83623,-2.7544 1.83627,-2.75438 0.61148,-0.91812 1.17336,-1.83626 1.09715,-1.83626 0.53528,-0.91812 1.12196,-1.83626 1.09716,-1.83626 0.53526,-0.91811 1.12196,-1.83627 1.09716,-1.83624 0.53527,-0.91813 1.12195,-1.83627 1.09716,-1.83625 0.53527,-0.91812 1.12195,-1.83628 1.09717,-1.83624 1.07053,-1.73434 0.58668,-0.73909 0.30574,-0.48477 0.96954,-0.7143"
     id="path181" /></svg>
