<?xml version="1.0" encoding="UTF-8" standalone="no"?>
<!-- Created with Inkscape (http://www.inkscape.org/) -->

<svg
   version="1.1"
   id="svg2"
   width="870"
   height="476.99997"
   viewBox="0 0 870 476.99997"
   xml:space="preserve"
   xmlns="http://www.w3.org/2000/svg"
   xmlns:svg="http://www.w3.org/2000/svg"><defs
     id="defs6" /><g
     id="g8"
     style="display:inline"
     transform="matrix(1.1062242,0,0,1.1062244,-16.016729,-3.7225167)"><path
       style="display:inline;fill:#00ff00;stroke:none;stroke-width:0.903976"
       d="m 193.46597,3.7165838 -0.90398,0.2008719 -1.80797,0.276209 -1.80794,0.075326 h -0.90397 -1.80795 -6.32784 -2.71192 -0.90398 l -1.80795,0.075326 -1.80795,0.2762088 -0.90398,0.2008719 -1.80795,0.2762203 -0.90398,0.050254 -1.80795,0.025072 h -1.80795 -7.23181 -1.80795 l -1.80795,0.025072 -0.90397,0.050254 -1.80796,0.2762088 -0.90398,0.2008834 -1.80795,0.2762089 -0.90398,0.050254 -1.80795,0.025072 h -2.71192 -9.03976 -2.71193 l -1.80794,0.025072 -0.90399,0.050254 -1.80795,0.2762089 -0.90399,0.2008833 -1.80794,0.2762089 -1.80795,0.075326 h -0.90397 -2.71193 -7.23182 -1.80794 l -1.80796,0.025072 -0.90396,0.050254 -1.80796,0.2762089 -0.90398,0.2008833 -1.80795,0.2762089 -0.90397,0.050254 -1.80796,0.025071 h -0.90397 -3.615904 -9.943735 -3.615904 -1.807952 l -1.807952,0.075326 -1.807951,0.2762089 -0.903976,0.2008833 -1.807952,0.2762089 -0.903976,0.050254 -1.807951,0.025071 h -0.903976 -1.807952 -5.423855 -2.711927 l -1.807952,0.025071 -0.903976,0.050255 -1.807951,0.2762089 -0.903978,0.2008833 -1.80795,0.276209 -0.903977,0.050254 -0.903976,0.025071 h -1.807952 -4.519879 -2.711928 -1.807951 l -1.807952,0.025072 -0.903976,0.050254 -1.807952,0.2762087 -0.903974,0.200884 -1.807953,0.276208 -0.903975,0.05025 -1.807952,0.05025 -0.903977,0.07532 -1.807951,0.527336 -0.903977,0.502197 -1.807952,1.255533 -0.903976,0.677974 -1.807951,1.531697 -0.903976,0.85381 -1.807952,1.782822 -1.807952,1.80795 -1.707511,1.80795 -1.255522,1.807951 -0.351547,0.903974 -0.200882,0.903975 -0.0753,0.903986 -0.02514,1.807951 v 0.903974 1.80795 13.559635 60.566382 5.42385 1.80796 0.90398 l 0.02514,1.80796 0.0753,0.90396 0.552429,1.80795 1.255522,1.80796 0.828648,0.90397 0.878863,0.90398 1.807952,1.80796 1.807952,1.80794 4.519879,4.51989 1.807953,1.80794 0.903976,0.90398 1.782821,1.80796 1.607088,1.80794 0.677982,0.90398 0.903975,1.80795 0.401728,1.80795 0.251124,1.80796 0.150693,0.90397 0.200863,0.90398 0.276256,1.80796 0.05017,0.90396 0.02513,1.80796 v 1.80794 2.71194 12.65566 37.96698 63.27831 20.79145 7.23181 2.71192 0.90398 l -0.0753,1.80796 -0.276256,1.80795 -0.376687,1.80796 -0.376596,1.80794 -0.251125,0.90397 -0.376687,0.90399 -1.004407,1.80794 -0.60259,0.90397 -0.652942,0.90398 -1.506566,1.80796 -0.853805,0.90397 -1.782822,1.80796 -1.807952,1.80794 -3.615903,3.6159 -2.711927,2.71194 -0.903977,0.90397 -1.707511,1.80796 -0.703093,0.90397 -0.552429,0.90397 -0.552429,1.80796 -0.0753,0.90398 -0.02514,1.80794 v 1.80797 4.51987 56.04651 17.17553 2.71193 1.80795 l 0.02514,1.80795 0.27621,1.80796 0.351547,0.90398 1.255522,1.80794 0.828648,0.90398 1.78284,1.80795 1.807951,1.80795 1.807952,1.80795 0.903976,0.90398 1.807951,1.78265 1.807952,1.53222 1.807953,0.90399 0.903975,0.20068 0.903977,0.075 0.903975,0.0253 h 0.903976 1.807952 11.751686 47.006746 110.285054 36.15905 11.75168 2.71193 0.90398 l 1.80794,-0.0253 0.90397,-0.0496 1.80796,-0.37695 1.80796,-0.90399 1.80794,-1.43098 1.80795,-1.73293 0.90399,-0.90398 1.80794,-1.80795 2.71193,-2.71193 1.80795,-1.80795 0.90399,-0.90397 1.80794,-1.73292 0.90397,-0.75302 0.90399,-0.67797 1.80794,-0.97903 0.90397,-0.35163 1.80797,-0.55233 0.90397,-0.17628 0.90397,-0.12565 1.80796,-0.075 h 0.90397 1.80795 8.1358 24.40733 75.93397 91.30157 11.75169 16.27158 1.80794 9.03976 1.80795 0.90397 0.90398 l 1.80795,0.075 0.90397,0.12565 1.80796,0.37696 0.90397,0.20068 1.80796,0.55233 1.80795,0.9293 0.90397,0.67797 0.90398,0.75302 1.80795,1.73292 0.90397,0.90397 1.80795,1.80795 2.71194,2.71193 0.90397,0.90397 1.80795,1.80796 0.90398,0.87865 0.90397,0.85428 1.80795,1.43098 1.80795,0.90399 0.904,0.22598 1.80794,0.20068 0.90397,0.0253 h 0.90399 1.80794 9.94375 10.8477 15.36758 0.90399 4.51987 11.75169 16.27157 1.80795 4.51987 9.94374 4.51988 7.2318 5.42386 0.90398 7.23181 3.6159 3.6159 14.46362 4.51987 4.51988 14.46362 18.07951 2.71194 1.80795 7.23181 3.6159 0.90397 4.51988 1.80796 1.80796 4.51986 7.23181 3.6159 3.61591 1.80795 l 1.80796,-0.0253 1.80794,-0.20068 0.90398,-0.22598 1.80795,-0.90399 1.80795,-1.43098 1.80796,-1.73293 0.90397,-0.90398 1.80795,-1.80795 1.80795,-1.80795 0.90398,-0.90398 1.70761,-1.80795 0.70329,-0.90397 0.55233,-0.90397 0.55232,-1.80796 0.075,-0.90398 0.0253,-0.90397 v -1.80796 -5.42385 -1.80795 -16.27157 -1.80795 -5.42386 -1.80795 -17.17553 -29.83121 -2.71194 -0.90397 -0.90398 l -0.10029,-1.80795 -0.55232,-1.80795 -1.25562,-1.80795 -0.82894,-0.90397 -0.87867,-0.90398 -1.80795,-1.80796 -0.90398,-0.90397 -1.80795,-1.80795 -2.71193,-2.71193 -1.80795,-1.80794 -1.80795,-1.80796 -1.78264,-1.80795 -0.85426,-0.90398 -1.43098,-1.80795 -0.97901,-1.80795 -0.65358,-1.80795 -0.25041,-0.90398 -0.30193,-1.80795 -0.0751,-1.80796 v -0.90396 -2.71194 -7.23181 -0.90396 -0.90399 -20.79144 -1.80795 -7.2318 -56.95048 -1.80796 -3.6159 -0.90399 -1.80795 -0.90397 -29.83121 -0.90397 -11.75169 -2.71192 -1.80794 l 0.0253,-1.80796 0.0497,-0.90398 0.30193,-1.80796 0.55234,-1.80795 0.35165,-0.90397 0.97901,-1.80795 0.67797,-0.90398 0.75301,-0.90397 1.73292,-1.80795 0.90398,-0.90398 0.90397,-0.90398 1.80795,-1.80795 5.42386,-5.42385 1.80795,-1.80794 0.90398,-0.90399 1.70761,-1.80795 0.70329,-0.90397 0.90397,-1.80796 0.20068,-0.90398 0.075,-0.90396 0.0253,-0.90399 v -0.90402 -2.71194 -14.463609 -1.80795 -1.80795 -16.27157 -28.927229 -14.463609 -2.711925 -1.80795 l -0.10029,-1.80795 -0.20068,-0.903986 -0.35164,-0.903975 -1.25562,-1.80795 -0.82894,-0.903975 -1.78265,-1.807949 -1.80795,-1.807951 -1.80795,-1.80795 -0.90397,-0.903986 -1.80796,-1.78281 -0.90398,-0.828683 -1.80795,-1.2555 -0.90397,-0.35158 -0.90398,-0.20086 -0.90397,-0.07532 -1.80795,-0.05026 -0.90398,-0.05026 -1.80794,-0.276208 -0.90399,-0.200884 -1.80795,-0.2762087 -1.80795,-0.075326 h -0.90398 -1.80795 -5.42386 -0.90397 -2.71193 -0.90397 L 761.163,9.6174182 760.25901,9.4918605 758.45105,9.140326 756.6431,8.8641172 755.73913,8.813863 754.83515,8.7887914 h -1.80795 -2.71192 -3.61591 -2.71193 -0.90397 l -1.80795,-0.025071 -0.90398,-0.050254 -1.80794,-0.276209 -1.80797,-0.3515457 -0.90397,-0.1255464 -1.80795,-0.075326 h -1.80795 -3.6159 -2.71194 -7.2318 -3.61591 l -1.80811,-0.025071 -0.90397,-0.050255 -1.80795,-0.276209 -0.90398,-0.2008832 -1.80795,-0.276209 -1.80795,-0.075326 h -0.90398 -2.71193 -7.2318 -1.80796 L 691.55668,6.9558151 690.6527,6.9055611 688.84475,6.6293522 687.94078,6.4284688 686.13283,6.15226 685.22886,6.102006 683.42089,6.076935 h -2.71192 -3.6159 -5.42386 -1.80795 -0.90398 L 667.14933,6.051863 666.24536,6.001608 664.43741,5.7253992 663.53343,5.5245158 661.72547,5.248307 659.91752,5.172981 h -0.90396 -2.71194 -2.71192 -3.61591 -1.80795 l -1.80795,-0.025072 -0.90398,-0.050254 -1.80794,-0.2762202 -0.90398,-0.200872 -1.80796,-0.2762089 -0.90398,-0.050254 -1.80795,-0.025071 h -1.80794 -7.23182 -1.80795 l -1.80795,-0.025072 -0.90397,-0.050254 -1.80795,-0.2762089 -0.90398,-0.200872 -1.80796,-0.2762202 -0.90397,-0.050254 -1.80794,-0.025072 h -1.80796 -0.90398 -8.13578 -3.6159 -5.42386 -1.80795 -4.51987 -9.03977 -4.51988 -1.80794 -11.7517 -3.61589 -1.80796 l -1.80794,0.025072 -1.80797,0.2762088 -0.90398,0.3515685 -0.90396,0.5524064 -1.80796,1.5317523 -0.90398,0.8788701 -1.80795,1.8079499 -1.80795,1.8079492 -0.87866,0.903975 -0.85426,0.903975 -1.53134,1.80795 -0.70329,0.903974 -1.53133,1.807961 -0.85426,0.903977 -1.78264,1.807949 -1.80795,1.807951 -0.90398,0.903974 -1.80795,1.732647 -0.90398,0.75329 -0.90398,0.703113 -1.80794,1.079709 -1.80796,0.728242 -1.80795,0.351557 -0.90397,0.05014 -1.80796,0.02519 h -1.80795 -1.80795 -0.90398 -12.65566 -3.61589 -3.61592 -14.46361 -7.23181 -10.84771 -121.13276 -41.58289 -12.65565 -1.80797 l -1.80795,-0.02519 -1.80796,-0.20086 -0.90397,-0.225989 -1.80795,-0.903975 -1.80795,-1.431265 -0.90397,-0.85381 -0.90397,-0.878847 -1.80797,-1.807951 -0.90397,-0.903974 -2.71193,-2.711925 -8.13579,-8.135786 -1.80795,-1.8079498 -1.80795,-1.782845 -0.90396,-0.8286494 -1.80796,-1.2555093 -1.80795,-0.5524406 -1.80796,-0.1003962 h -0.90398 -1.80794 -12.65567 -30.73518 -9.94373 -2.71193 -0.90398 l -1.80795,0.075326 -1.80794,0.2762203 m 2.71191,2.5612622 0.90398,-0.1255464 1.80795,-0.075326 h 0.90398 2.71193 9.03976 28.92723 11.75168 1.80796 0.90398 l 1.80794,0.1003963 1.80796,0.5524292 1.80795,1.2555207 0.90398,0.828638 1.80794,1.782845 1.80795,1.80795 8.1358,8.135787 2.71191,2.711925 0.90399,0.903974 1.80794,1.80795 0.90397,0.878847 0.904,0.853811 1.80794,1.431265 1.80795,0.903975 0.90398,0.225988 1.80794,0.200872 1.80796,0.02508 h 2.71193 14.46361 47.91072 117.51686 38.87097 3.6159 9.03976 2.71193 0.90398 l 1.80795,-0.02508 0.90397,-0.05014 1.80796,-0.351558 1.80794,-0.728241 1.80796,-1.079708 0.90397,-0.703114 0.90398,-0.753279 1.80796,-1.732658 0.90397,-0.903975 0.90397,-0.903974 1.80795,-1.80795 1.78265,-1.807951 0.85425,-0.903974 1.53135,-1.807951 0.70328,-0.903975 1.53134,-1.807961 0.85425,-0.903975 1.78264,-1.807949 1.80795,-1.8079509 0.90399,-0.8788701 1.80794,-1.5317523 0.90397,-0.5524064 0.904,-0.3515685 1.80794,-0.2761976 1.80796,-0.025072 h 1.80794 2.71192 2.71194 15.36759 22.59939 7.23181 2.71193 l 1.80796,0.025072 0.90396,0.050254 1.80795,0.2762089 0.904,0.2008833 1.80794,0.2762089 0.90397,0.050254 1.80795,0.02507 h 1.80795 7.23181 1.80796 l 1.80794,0.025072 0.90398,0.050254 1.80795,0.2762089 0.90398,0.2008833 1.80796,0.2762089 0.90397,0.050254 1.80795,0.025071 h 1.80795 2.71192 3.61591 2.71193 0.90397 l 1.80795,0.075326 1.80795,0.2762089 0.90398,0.2008833 1.80796,0.2762089 0.90397,0.050254 1.80795,0.025072 h 2.71193 3.61591 5.42385 2.71192 l 1.80795,0.025071 0.90399,0.050254 1.80795,0.2762088 0.90397,0.2008834 1.80795,0.2762088 1.80795,0.075326 h 0.90398 2.71192 7.23181 1.80796 l 1.80795,0.025071 0.90398,0.050255 1.80795,0.2762085 0.90398,0.200883 1.80795,0.276209 0.90397,0.05025 1.80795,0.02507 h 3.61591 0.90398 9.03977 3.61589 1.80795 l 1.80795,0.07532 0.90397,0.125558 1.80795,0.351534 1.80797,0.276209 0.90397,0.05025 1.80795,0.02507 h 1.80795 7.23181 1.80795 l 1.80795,0.02519 0.90397,0.05014 1.80795,0.276253 0.90398,0.200861 1.80796,0.276255 0.90397,0.05014 1.80795,0.02518 h 2.71193 4.51988 1.80795 0.90398 1.80795 l 0.90397,0.02508 0.90398,0.05014 1.80795,0.276254 0.90397,0.20086 1.80796,0.276256 0.90398,0.05014 1.80795,0.05025 0.90398,0.07532 0.90397,0.200872 1.80795,0.903975 0.90397,0.703114 1.80795,1.707519 1.80796,1.807951 1.80795,1.80795 0.90398,0.903974 1.78264,1.807951 0.82895,0.903974 1.25562,1.80795 0.35165,0.903986 0.20068,0.903976 0.10028,1.807949 v 1.80795 2.711925 14.463622 0.903974 47.006737 12.655653 1.80797 0.90396 l -0.0253,0.90398 -0.075,0.90398 -0.20068,0.90398 -0.90398,1.80794 -1.53224,1.80796 -0.87867,0.90396 -1.80795,1.80796 -0.90397,0.90399 -1.80796,1.80794 -2.71193,2.71193 -1.80795,1.80794 -1.80794,1.80796 -1.78264,1.80796 -0.85426,0.90398 -1.431,1.80794 -0.97901,1.80796 -0.65357,1.80794 -0.2504,0.90397 -0.30193,1.80796 -0.075,1.80795 v 0.90399 2.71191 8.13579 3.6159 18.98349 0.90399 9.94372 56.95048 39.77495 12.65565 2.71194 1.80794 l 0.0253,1.80797 0.0497,0.90396 0.30193,1.80796 0.55234,1.80794 0.35163,0.90398 0.97901,1.80796 1.431,1.80795 0.85426,0.90398 1.78264,1.80795 0.90397,0.90397 0.90397,0.90397 1.80795,1.80796 4.51989,4.51988 1.80795,1.80796 0.90397,0.90397 0.87867,0.90397 0.82895,0.90397 1.25562,1.80796 0.35165,0.90398 0.20068,0.90396 0.10028,1.80796 v 0.90399 1.80794 1.80796 2.71192 11.75169 1.80794 2.71194 33.44711 7.23181 10.84771 5.42384 1.80795 l -0.0253,0.90399 -0.075,0.90397 -0.55233,1.80795 -0.55233,0.90399 -0.70329,0.90397 -1.70762,1.80794 -1.80795,1.80796 -1.80795,1.80794 -0.90398,0.90399 -1.80795,1.73291 -1.80795,1.431 -1.80795,0.90398 -0.90397,0.22599 -1.80796,0.20069 -0.90397,0.0253 h -0.90398 -1.80796 -0.90397 -1.80795 -3.6159 -3.61591 -3.6159 -9.03976 -2.71193 -1.80795 -9.03975 -3.61591 -0.90397 -0.90399 -7.2318 -14.46362 -4.51987 -1.80795 -6.32784 -4.51988 -2.71192 -3.61591 -2.71193 -3.61589 -4.51989 -2.71192 -3.61591 -1.80796 -0.90397 -1.80795 -5.42385 -0.90398 -7.23181 -2.71192 -5.42386 -0.90398 -1.80795 -0.90397 -4.51989 -0.90397 -1.80795 -0.90397 -1.80796 -6.32783 -6.32783 -2.71193 -5.42384 -3.61591 -5.42386 -7.23181 -4.51988 -6.32783 -1.80795 -1.80795 -4.51988 -4.51988 -2.71193 -3.6159 -3.61591 -1.80795 l -1.80794,-0.0253 -1.80796,-0.20069 -0.90398,-0.22599 -1.80796,-0.90398 -1.80795,-1.431 -0.90396,-0.85425 -0.90399,-0.87866 -1.80795,-1.80796 -0.90397,-0.90397 -2.71193,-2.71193 -1.80796,-1.80794 -0.90397,-0.90399 -1.80795,-1.73292 -0.90398,-0.753 -0.90397,-0.678 -1.80795,-0.92929 -1.80795,-0.55232 -0.90398,-0.20068 -1.80795,-0.37696 -0.90398,-0.12565 -1.80795,-0.0751 h -0.90397 -0.90398 -1.80795 -4.51989 -5.42385 -6.32782 -0.90399 -22.59939 -92.20555 -77.74194 -24.40735 -8.13578 -1.80796 -0.90398 l -1.80795,0.0751 -0.90397,0.12565 -0.90398,0.17627 -1.80795,0.55233 -0.90397,0.35165 -1.80795,0.979 -0.90398,0.678 -0.90398,0.753 -1.80795,1.73292 -0.90398,0.90399 -1.80795,1.80794 -3.6159,3.6159 -0.90397,0.90397 -0.90398,0.90399 -1.80796,1.73291 -1.80795,1.431 -1.80795,0.90398 -1.80795,0.37696 -0.90397,0.0497 -1.80795,0.0253 H 252.2244 249.51247 237.76078 202.50572 94.028612 47.021866 36.174155 34.366204 33.462228 l -0.903976,-0.0253 -0.903976,-0.075 -0.903976,-0.20068 -1.807951,-0.90398 -0.903977,-0.70329 -1.807952,-1.70761 -1.807952,-1.80796 -1.807951,-1.80794 -0.903976,-0.90397 -1.782839,-1.80796 -0.828649,-0.90397 -1.255523,-1.80795 -0.351546,-0.90399 -0.27621,-1.80794 -0.02513,-1.80796 v -1.80794 -2.71194 -17.17553 -56.04651 -2.71192 -0.90399 l 0.100442,-1.80796 0.552428,-1.80794 0.552429,-0.90397 0.703095,-0.90399 1.707511,-1.80794 0.903975,-0.90397 2.711927,-2.71194 3.615905,-3.6159 1.807952,-1.80795 1.782821,-1.80795 0.853805,-0.90397 1.506566,-1.80796 0.652942,-0.90398 0.60259,-0.90397 1.004408,-1.80796 0.376686,-0.90398 0.251125,-0.90396 0.376596,-1.80796 0.376687,-1.80794 0.276256,-1.80797 0.0753,-1.80794 v -0.90398 -2.71192 -7.23181 -21.69543 -65.08627 -38.87095 -12.65566 -2.71193 -1.80796 l -0.02513,-1.80794 -0.05017,-0.90397 -0.276256,-1.80796 -0.200863,-0.90398 -0.150693,-0.90397 -0.251124,-1.80796 -0.401728,-1.80794 -0.903976,-1.80796 -0.677982,-0.90397 -1.607088,-1.80795 -1.782821,-1.80796 -0.903976,-0.90397 -1.807951,-1.80796 -4.519881,-4.51987 -1.807951,-1.80796 -1.807951,-1.80796 -0.878863,-0.90396 -0.828648,-0.90398 -1.255524,-1.80796 -0.552428,-1.80794 -0.0753,-0.90397 -0.02513,-1.80795 v -1.80791 -3.6159 -59.662412 -13.559635 -1.80795 -0.903974 l 0.02513,-1.80795 0.0753,-0.903975 0.200881,-0.903987 0.351547,-0.903974 1.255524,-1.80795 1.707511,-1.80795 1.807951,-1.80795 1.807951,-1.732647 1.807952,-1.531707 0.903976,-0.677975 1.807953,-1.255532 0.903976,-0.502163 1.807951,-0.527381 0.903977,-0.07532 1.807951,-0.05025 0.903977,-0.05014 1.80795,-0.276254 0.903976,-0.200861 1.807953,-0.276255 0.903975,-0.05014 1.807951,-0.02508 h 1.807953 2.711927 4.519879 1.807953 l 0.903974,-0.02518 0.903976,-0.05014 1.807953,-0.276256 0.903976,-0.200861 1.807952,-0.276253 0.903976,-0.05014 1.807951,-0.02519 h 2.711929 5.423854 1.807952 0.903975 l 1.807952,-0.02507 0.903976,-0.05025 1.807952,-0.27621 0.903975,-0.200883 1.807952,-0.276209 0.903977,-0.05025 1.80795,-0.02508 h 0.903977 3.615904 10.847705 3.615921 l 1.80795,-0.02507 0.90397,-0.05025 1.80796,-0.276208 0.90398,-0.200884 1.80795,-0.276208 0.90397,-0.050254 1.80795,-0.025072 h 1.80795 7.23181 2.71193 l 1.80796,-0.025071 0.90396,-0.050254 1.80796,-0.276209 0.90398,-0.2008832 1.80794,-0.2762089 1.80796,-0.075326 h 1.80794 2.71194 8.13577 2.71194 l 1.80795,-0.025071 0.90398,-0.050254 1.80795,-0.2762089 0.90397,-0.2008833 1.80796,-0.2762089 0.90398,-0.050254 1.80795,-0.025072 h 1.80795 6.32783 2.71193 0.90398 l 1.80795,-0.075326 1.80795,-0.2762089 0.90397,-0.2008833 1.80794,-0.2762089 0.90399,-0.050254 1.80796,-0.02507 h 1.80795 7.23181 1.80795 0.90396 l 1.80796,-0.075326 0.90398,-0.1255577 0.90397,-0.1506512 1.80795,-0.3515458 m -156.387835,48.086421 -0.903977,0.251126 -1.807952,0.652849 -1.80795,0.903975 -0.903977,0.552418 -1.807951,1.255528 -0.878846,0.728151 -0.853806,0.778418 -1.456396,1.732646 -1.104838,1.807961 -0.426858,0.903975 -0.853806,1.807949 -0.401726,0.903976 -0.627811,1.807949 -0.251035,0.903975 -0.175822,0.903975 -0.175734,1.807962 -0.02513,0.903975 0.02513,1.807949 0.05017,0.903976 0.276254,1.807949 0.426857,1.80795 0.52729,1.80795 0.753373,1.807961 0.502159,0.903975 1.079799,1.80795 0.602591,0.903974 1.381094,1.732659 1.632219,1.506557 1.782822,1.205368 1.807951,0.903974 1.807951,0.677976 0.903977,0.301303 1.807952,0.527017 1.80795,0.301927 0.903977,0.04969 0.903976,0.0253 h 1.807952 0.903975 l 1.807952,-0.07498 1.807952,-0.301927 1.807952,-0.552145 0.903976,-0.32643 1.807951,-0.803545 0.903976,-0.502162 0.903977,-0.502242 1.782821,-1.180229 0.853805,-0.652861 1.506565,-1.506568 0.652943,-0.853799 1.155009,-1.782822 0.903977,-1.80795 0.652942,-1.807961 0.251034,-0.903975 0.376687,-1.807949 0.351556,-1.80795 0.200863,-0.903975 0.251125,-1.80795 V 72.971183 L 65.653789,71.163221 65.427794,70.259246 64.975808,68.451296 64.749814,67.547322 64.172262,65.739371 63.820707,64.835397 62.91673,63.027447 62.36431,62.123472 61.761721,61.219486 60.380627,59.48684 58.748408,57.980271 57.869563,57.327423 56.965587,56.724743 56.06161,56.172325 54.253657,55.26835 53.349683,54.916792 51.54173,54.364375 50.637755,54.18855 49.733778,54.062993 47.925828,53.987669 H 47.021851 45.2139 43.405948 l -1.807951,0.07532 -1.807952,0.301382 m 724.084695,0 -0.90397,0.251126 -1.80795,0.627721 -1.80795,0.803545 -1.80797,1.079704 -1.78264,1.456393 -0.85425,0.853812 -1.50602,1.78281 -0.65358,0.903986 -0.60204,0.903975 -0.55234,0.903975 -0.85425,1.807949 -0.27573,0.903976 -0.47728,1.807949 -0.22599,0.903975 -0.27661,1.80795 -0.0497,0.903987 -0.0253,1.80795 0.0253,1.80795 0.0497,0.903975 0.30192,1.80795 0.52701,1.807949 0.30102,0.903975 0.67799,1.807961 0.90398,1.80795 1.2059,1.807949 1.50602,1.732659 1.73292,1.506557 1.80795,1.255533 0.90399,0.552428 1.80795,0.903975 1.80795,0.653302 0.90397,0.2504 1.80794,0.301927 1.80796,0.07498 h 1.80795 1.80796 l 1.80794,-0.07498 1.80796,-0.301927 1.80794,-0.552145 1.80796,-0.728162 0.90398,-0.401813 1.80795,-1.079708 0.90398,-0.703114 0.90398,-0.753279 1.73291,-1.732657 0.77834,-0.903976 1.35594,-1.807949 0.57765,-0.903975 0.90397,-1.807961 0.32634,-0.903975 0.27571,-0.903975 0.30193,-1.807949 0.075,-1.80795 v -0.903975 -0.903976 -1.807949 -1.807962 l -0.0253,-0.903975 -0.0497,-0.903975 -0.30193,-1.807949 -0.25039,-0.903975 -0.65359,-1.80795 -0.95369,-1.80795 -0.62825,-0.903975 -0.62737,-0.878847 -1.38128,-1.632216 -0.753,-0.753291 -0.77833,-0.677975 -1.73292,-1.280671 -1.80795,-1.029529 -0.90398,-0.401733 -1.80796,-0.728242 -0.90396,-0.326417 -1.80796,-0.351558 -1.80794,-0.07532 h -0.90398 -1.80796 -1.80795 l -1.80796,0.07532 -1.80794,0.301382 m -721.372769,2.536097 1.807953,-0.175729 0.903976,-0.02507 h 0.903976 l 1.807952,0.07532 1.80795,0.301378 1.807952,0.552419 0.903977,0.351557 1.80795,0.903975 0.903977,0.552429 0.878846,0.602672 0.853805,0.65286 1.506566,1.506557 0.652942,0.85381 1.155011,1.782822 0.903974,1.80795 0.351558,0.903975 0.57755,1.80795 0.225994,0.903974 0.376687,1.807963 0.100429,0.903974 -0.0753,1.80795 -0.125563,0.903975 -0.150691,0.903975 -0.376688,1.80795 -0.251034,0.903975 -0.652942,1.80795 -0.903974,1.807961 -1.155012,1.732646 -0.652941,0.778417 -0.728153,0.728151 -0.778413,0.652848 -1.732652,1.180241 -0.903976,0.502243 -1.807951,0.903975 -0.903976,0.401732 -1.807952,0.627721 -0.903975,0.251114 -0.903976,0.175826 -0.903976,0.125568 -1.807952,0.05014 -0.903974,-0.05014 -1.807953,-0.301394 -0.903974,-0.251114 -1.807952,-0.577466 -1.807953,-0.677977 -1.807952,-0.903974 -0.878846,-0.577556 -0.853804,-0.627812 -0.778414,-0.728151 -0.728152,-0.778417 -1.255532,-1.732646 -0.57755,-0.903975 -1.004409,-1.807961 -0.753372,-1.80795 -0.251035,-0.903975 -0.477119,-1.80795 -0.225993,-0.903975 -0.251124,-1.80795 v -0.903975 l 0.276255,-1.807962 0.552419,-1.807949 0.326427,-0.903976 0.401726,-0.903974 0.853805,-1.80795 0.426858,-0.903975 0.552419,-0.903975 0.55242,-0.878847 1.456394,-1.632217 0.853807,-0.72815 1.78282,-1.255532 1.807952,-1.029544 0.903976,-0.42686 1.807952,-0.652849 0.903977,-0.251127 0.903974,-0.175823 m 724.084678,0 1.80796,-0.17573 1.80795,-0.02508 1.80796,0.07532 1.80794,0.351554 0.90398,0.326418 1.80794,0.728252 0.90398,0.401722 1.78264,1.029544 0.85427,0.602672 1.53133,1.355963 1.38127,1.531706 1.25562,1.732648 0.9537,1.807949 0.35165,0.903975 0.55233,1.80795 0.30192,1.807951 0.0497,0.903986 0.0253,1.80795 -0.0253,1.807949 -0.0497,0.903976 -0.30192,1.807949 -0.60205,1.80795 -0.90399,1.807949 -1.20589,1.807962 -0.7277,0.903974 -1.63259,1.732648 -0.87866,0.753278 -0.90397,0.703125 -0.90398,0.552419 -1.80796,0.929102 -0.90396,0.401732 -1.80796,0.627721 -0.90398,0.251115 -0.90396,0.175825 -1.80796,0.175733 h -1.80795 l -0.90398,-0.05014 -1.80796,-0.301395 -0.90396,-0.251114 -1.80795,-0.65286 -1.80795,-0.903975 -0.90398,-0.552417 -1.78264,-1.255533 -0.85427,-0.728151 -1.50602,-1.632228 -0.62826,-0.878835 -0.57764,-0.903976 -0.90398,-1.80796 -0.35164,-0.903976 -0.62736,-1.807949 -0.52702,-1.80795 -0.17628,-0.903975 -0.12565,-0.903974 v -1.807951 l 0.27662,-1.807961 0.22598,-0.903974 0.47732,-1.807952 0.27571,-0.903974 0.85425,-1.807949 1.15438,-1.807951 0.65357,-0.903974 1.50602,-1.732659 1.73294,-1.456393 0.90397,-0.552417 1.80794,-0.929102 0.90399,-0.401734 1.80795,-0.62772 0.90396,-0.251127 0.90398,-0.175823 M 38.886065,351.82261 l -0.903976,0.35165 -1.807952,0.82894 -1.80795,0.97901 -0.903977,0.55232 -1.782821,1.45632 -0.853806,0.85424 -1.506566,1.78265 -1.205362,1.80795 -0.903974,1.80795 -0.677983,1.80795 -0.301296,0.90396 -0.527288,1.80797 -0.301385,1.80794 -0.0753,1.80796 0.02513,1.80795 0.05017,0.90398 0.276254,1.80795 0.426857,1.80796 0.276256,0.90397 0.251034,0.90398 0.753373,1.80795 0.502159,0.90397 1.079799,1.80795 1.255532,1.73293 1.506567,1.50603 0.853804,0.65356 1.782823,1.1797 0.903976,0.50261 0.903974,0.5017 1.807952,0.80364 1.807953,0.62827 0.903975,0.25041 0.903977,0.17626 0.903974,0.12567 1.807953,0.075 h 0.903975 0.903977 l 1.807951,-0.0253 0.903976,-0.0496 1.807951,-0.30194 0.903976,-0.25041 1.807953,-0.62827 0.903974,-0.40136 0.903976,-0.40228 1.807953,-1.07933 0.903977,-0.70329 0.903975,-0.75302 1.782821,-1.73293 1.607087,-1.80795 0.677984,-0.90397 0.527288,-0.90398 0.451988,-0.90397 0.652943,-1.80795 0.251034,-0.90398 0.376687,-1.80796 0.351555,-1.80795 0.200864,-0.90397 0.251124,-1.80795 v -0.90398 l -0.251124,-1.80796 -0.200864,-0.90396 -0.351555,-1.80795 -0.200865,-0.904 -0.225994,-0.90396 -0.728242,-1.80795 -1.004407,-1.80795 -0.577552,-0.90398 -1.255532,-1.80795 -0.728152,-0.87867 -0.778414,-0.85424 -1.732649,-1.45632 -1.807953,-1.10465 -0.903977,-0.42669 -0.903976,-0.47729 -1.807951,-0.70329 -1.807952,-0.35165 -0.903976,-0.0497 -1.807951,-0.0253 h -0.903976 -1.807952 -1.807952 -0.903976 l -1.807951,0.075 -1.807952,0.35165 m 724.084695,-0.0496 -0.90399,0.27572 -0.90396,0.32633 -1.80795,0.90397 -0.90399,0.57765 -1.80795,1.35595 -0.90397,0.77834 -1.73293,1.73291 -1.4563,1.80795 -0.55233,0.90399 -0.52701,0.90396 -0.37697,0.90398 -0.37696,0.90397 -0.25041,0.90399 -0.47728,1.80795 -0.22599,0.90397 -0.27661,1.80795 -0.0497,0.90398 -0.0253,1.80796 v 0.90397 l 0.0751,1.80794 0.30192,1.80796 0.2504,0.90398 0.62826,1.80795 0.40135,0.90398 0.37696,0.90397 0.47732,0.90397 0.979,1.80796 0.55233,0.90397 1.4563,1.73293 1.73292,1.50602 1.80795,1.2059 0.90399,0.4764 0.90397,0.42759 1.80794,0.67797 1.80796,0.57764 1.80794,0.42668 0.90398,0.12566 1.80796,0.075 h 0.90397 l 1.80796,-0.0252 0.90398,-0.0497 1.80794,-0.27661 0.90398,-0.22601 0.90398,-0.20068 1.80794,-0.52703 0.90398,-0.37695 0.90398,-0.37696 1.80795,-1.07934 1.80796,-1.45629 1.7329,-1.73294 1.45632,-1.80794 0.55233,-0.90398 0.97901,-1.80795 0.82895,-1.80795 0.35165,-0.90398 0.35163,-1.80795 0.075,-1.80796 v -0.90397 -0.90397 -1.80796 -1.80795 l -0.075,-1.80796 -0.12565,-0.90397 -0.17628,-0.90399 -0.2504,-0.90396 -0.65358,-1.80796 -0.42668,-0.90398 -1.02962,-1.80795 -1.25562,-1.78263 -1.50602,-1.63258 -0.85426,-0.7277 -1.78264,-1.25562 -1.80795,-1.02964 -0.90398,-0.42668 -1.80796,-0.65357 -0.90396,-0.2504 -0.90398,-0.17629 -0.90398,-0.12564 -1.80794,-0.075 h -0.90398 -1.80796 -1.80795 -0.90398 l -1.80794,0.075 -1.80795,0.30194 m -721.372766,2.56096 0.903974,-0.15096 1.807953,-0.0751 h 0.903975 1.807952 l 0.903976,0.0253 0.903976,0.0497 1.807951,0.35165 1.807952,0.70329 0.903977,0.4773 1.80795,0.979 0.878846,0.55235 1.632219,1.45629 0.728153,0.85426 1.255532,1.78263 1.079799,1.80795 0.502158,0.90399 0.728244,1.80795 0.225994,0.90397 0.200864,0.90399 0.276254,1.80794 0.0753,1.80796 -0.200863,1.80794 -0.326425,1.80795 -0.451988,1.80796 -0.652943,1.80795 -0.451988,0.90398 -0.527288,0.90397 -1.431265,1.80795 -0.853806,0.87867 -1.782821,1.60726 -0.903976,0.70331 -1.807951,1.07934 -0.903976,0.40227 -1.807952,0.72768 -1.807952,0.55234 -1.807952,0.30193 -1.807952,0.0497 -0.903975,-0.0497 -1.807953,-0.30193 -1.80795,-0.55234 -0.903976,-0.32633 -1.807953,-0.80363 -0.903975,-0.50171 -0.903977,-0.50261 -1.73265,-1.17969 -1.506566,-1.38127 -1.255532,-1.63259 -0.577549,-0.87866 -1.00441,-1.80795 -0.753371,-1.80795 -0.251036,-0.90398 -0.477118,-1.80796 -0.225994,-0.90397 -0.251124,-1.80794 0.100429,-1.80796 0.175825,-0.90397 0.251034,-0.90397 0.57755,-1.80796 0.677982,-1.80795 0.903975,-1.80796 1.205361,-1.80794 1.506566,-1.73293 1.732653,-1.45629 0.903974,-0.55235 1.807952,-0.979 0.903977,-0.4773 1.807951,-0.70329 0.903977,-0.20069 m 724.084678,-0.0253 1.80796,-0.17537 1.80795,-0.0253 1.80796,0.0253 1.80794,0.17537 0.90398,0.17627 0.90398,0.25041 1.80794,0.65357 1.80796,0.90398 0.90398,0.55232 1.73292,1.25562 0.77832,0.72769 1.38128,1.63259 0.60205,0.87866 0.55232,0.90398 0.90398,1.80796 0.35165,0.90396 0.55233,1.80797 0.30192,1.80795 0.0751,1.80794 v 0.90399 0.90397 l -0.0751,1.80794 -0.35164,1.80796 -0.35165,0.90398 -0.82895,1.80796 -0.979,1.80794 -0.55233,0.90397 -1.4563,1.78265 -0.85427,0.85425 -1.78263,1.45632 -0.90398,0.55233 -0.90398,0.52701 -1.80794,0.75393 -0.90398,0.25039 -1.80796,0.47729 -0.90396,0.226 -1.80796,0.27661 -0.90398,0.0244 -0.90397,-0.0244 -1.80796,-0.30192 -1.80794,-0.52702 -0.90398,-0.30103 -1.80796,-0.67797 -1.80794,-0.90398 -0.90397,-0.57764 -1.73294,-1.35597 -1.45631,-1.63257 -1.10465,-1.78264 -0.42667,-0.90397 -0.85426,-1.80796 -0.40136,-0.90398 -0.62827,-1.80795 -0.2504,-0.90399 -0.30193,-1.80794 v -1.80796 l 0.27662,-1.80794 0.22598,-0.90397 0.47732,-1.80796 0.25039,-0.90399 0.37696,-0.90396 0.37696,-0.90399 0.52702,-0.90397 0.55232,-0.90398 1.45632,-1.78263 0.85425,-0.85426 1.78265,-1.50601 1.80795,-1.20591 1.80795,-0.90399 1.80795,-0.60204 z"
       id="path12" /><path
       style="display:inline;fill:#00ff00;stroke:none;stroke-width:0.82241"
       d="m 323.59385,49.07304 -0.8224,0.82241 v 2.512874 0.776767 l -0.0231,1.64482 -0.0452,0.82241 -0.25167,1.644821 -0.18257,0.82241 -0.25166,1.644821 -0.0452,0.82241 -0.0231,1.644821 v 0.82241 4.112051 1.64482 l -0.0231,0.82241 -0.0452,0.822412 -0.25165,1.64482 -0.18259,0.822411 -0.25166,1.64482 -0.0452,0.82241 -0.0231,1.64482 v 2.467231 0.82241 l -0.0231,1.64482 -0.0452,0.822411 -0.25166,1.64482 -0.18259,0.82241 -0.25165,1.64482 -0.0452,0.822411 -0.0231,1.644821 -0.0231,0.82241 -0.0452,0.822413 -0.25166,1.644813 -0.18257,0.822413 -0.25167,1.644825 -0.0452,0.822412 -0.0231,1.644814 v 0.822413 2.467225 l -0.0231,1.64483 -0.0452,0.82241 -0.25166,1.64482 -0.18257,0.82241 -0.25165,1.64483 -0.0452,0.8224 -0.0231,1.64482 v 1.64482 2.46724 0.8224 l -0.0231,1.64482 -0.0452,0.82241 -0.25166,1.64483 -0.18258,0.82241 -0.25164,1.64481 -0.0452,0.82242 -0.0231,1.64482 v 0.82241 1.64481 l -0.0231,1.64483 -0.0452,0.82241 -0.25166,1.64482 -0.18257,0.82242 -0.25166,1.64482 -0.0452,0.8224 -0.0231,0.82241 v 1.64483 l -0.0231,1.64481 -0.0452,0.82241 -0.25166,1.64482 -0.18257,0.82242 -0.25166,1.64482 -0.0452,0.8224 -0.0231,1.64483 v 1.64481 2.46724 0.8224 l -0.0231,1.64483 -0.0452,0.82241 -0.25165,1.64482 -0.18257,0.8224 -0.25167,1.64483 -0.0452,0.82242 -0.0231,1.64481 v 0.82241 2.46723 l -0.0231,1.64482 -0.0452,0.82241 -0.25166,1.64481 -0.18257,0.82242 -0.25165,1.64483 -0.0452,0.8224 -0.0231,1.64482 v 0.82241 1.64483 0.82241 l -0.0231,1.64481 -0.0452,0.82242 -0.25167,1.64482 -0.18256,0.8224 -0.25166,1.64482 -0.0452,0.82242 -0.0231,1.64481 v 0.82241 1.64484 l -0.0682,1.6448 -0.25165,1.64483 -0.18258,0.82241 -0.25166,1.64482 -0.0452,0.82241 -0.0231,1.64483 v 0.8224 1.64482 l -0.0231,1.64482 -0.0452,0.82242 -0.25164,1.64481 -0.18259,0.82241 -0.25165,1.64483 -0.0452,0.8224 -0.0231,1.64483 v 0.8224 2.46724 0.8224 l -0.0231,1.64483 -0.0452,0.8224 -0.25166,1.64483 -0.18257,0.82241 -0.25167,1.64481 -0.0452,0.82242 -0.0231,1.64482 v 0.82241 1.64481 l -0.0231,1.64483 -0.0452,0.82242 -0.25166,1.64481 -0.18257,0.82241 -0.25166,1.64482 -0.0452,0.82242 -0.023,1.64481 v 1.64483 5.75686 l 0.8224,0.82241 h 4.11205 1.64482 l 0.82242,-0.0231 0.82241,-0.0452 1.64481,-0.25166 0.82242,-0.18257 1.64482,-0.25167 1.64482,-0.0682 h 1.64482 0.82241 l 1.64481,-0.0231 0.82242,-0.0452 1.64483,-0.25165 0.82239,-0.18258 1.64483,-0.25166 0.82241,-0.0452 0.82241,-0.0231 h 0.82242 1.64481 l 1.64483,-0.0231 0.8224,-0.0452 1.64482,-0.25167 0.82242,-0.18258 1.64482,-0.25164 0.8224,-0.0452 1.64482,-0.0231 h 1.64483 2.46723 0.8224 l 1.64482,-0.0231 0.82242,-0.0452 1.64482,-0.25166 0.82241,-0.18258 1.64481,-0.25165 0.82242,-0.0452 1.64482,-0.023 h 3.28964 9.04652 6.57928 1.64482 l 1.64482,0.023 0.8224,0.0452 1.64483,0.25165 0.82242,0.18258 1.64481,0.25166 0.82241,0.0452 1.64482,0.046 0.82241,0.0452 1.64482,0.25164 0.82241,0.18258 1.64481,0.25167 1.64483,0.0912 0.82242,0.0452 1.64481,0.25166 1.64482,0.31992 0.82241,0.13652 0.82242,0.0921 1.64481,0.29689 0.82241,0.22781 1.64482,0.52552 1.64482,0.54854 0.82242,0.25166 0.8224,0.25084 1.64482,0.43423 0.82241,0.2056 0.82241,0.25083 0.82242,0.25167 1.64481,0.54855 0.82241,0.29689 0.82242,0.29688 1.64482,0.7081 0.82241,0.4112 1.64482,0.73113 0.82241,0.34294 1.64481,0.82241 1.64483,0.93591 0.82242,0.50331 0.8224,0.47946 1.64482,1.07325 0.82242,0.5946 0.8224,0.63901 1.64483,1.32573 1.64481,1.30187 0.79939,0.68507 0.77718,0.70811 0.70809,0.77717 0.68507,0.79938 1.30187,1.64482 1.32573,1.64482 0.63901,0.8224 1.14233,1.64484 0.52552,0.8224 0.93672,1.64482 0.38817,0.82242 0.45727,0.8224 0.36515,0.82242 0.43423,0.8224 0.7081,1.64482 0.29689,0.82242 0.57157,1.64482 0.27387,0.8224 0.50249,1.64482 0.43423,1.64483 0.18258,0.82241 0.2056,0.8224 0.31992,1.64483 0.31991,1.64481 0.18258,0.82242 0.25167,1.64482 0.0452,0.82241 0.046,1.64482 0.0452,0.82241 0.11431,0.82241 0.25166,1.64481 0.0231,0.82242 -0.0231,0.82241 -0.25166,1.64482 -0.11431,0.82241 -0.0682,1.64482 -0.0682,1.64483 -0.25167,1.64481 -0.18258,0.82241 -0.13734,0.82242 -0.22863,1.64481 -0.13652,0.82241 -0.13734,0.82242 -0.2056,0.8224 -0.18259,0.82242 -0.43422,1.64481 -0.52552,1.64483 -0.63983,1.64481 -0.66204,1.64483 -0.63985,1.64482 -0.36515,0.8224 -0.36596,0.82242 -0.45643,0.8224 -0.45727,0.82242 -1.00498,1.64482 -1.00499,1.64482 -0.52553,0.82242 -1.25664,1.64482 -0.66286,0.8224 -0.66203,0.82241 -0.63984,0.82241 -1.39316,1.64483 -0.77718,0.8224 -0.79939,0.82241 -1.64481,1.57657 -1.64483,1.39316 -0.82241,0.63984 -1.64482,1.32489 -1.64481,1.30188 -1.64483,1.14233 -0.82242,0.52552 -1.64481,0.93672 -0.82241,0.38817 -0.82241,0.45727 -0.82241,0.36515 -0.82241,0.45726 -0.82241,0.36515 -0.82241,0.43424 -1.64483,0.70809 -0.82239,0.29689 -0.82242,0.29689 -1.64483,0.57157 -1.64481,0.63985 -0.82242,0.29689 -0.8224,0.31991 -1.64483,0.47946 -0.82241,0.18258 -1.64482,0.41121 -1.64482,0.41119 -0.8224,0.20561 -1.64483,0.25166 -1.64482,0.13652 -0.82241,0.11432 -1.64482,0.31991 -1.64483,0.25166 -0.82239,0.0452 -0.82242,0.0231 h -1.64482 l -1.64482,0.0231 -0.82241,0.0452 -1.64482,0.25165 -1.64481,0.31991 -0.82242,0.11432 -1.64483,0.0682 h -0.8224 l -1.64482,-0.0682 -1.64482,-0.25165 -0.82242,-0.18258 -1.64481,-0.25165 -0.82241,-0.0452 -1.64482,-0.0231 h -2.46724 l -1.64482,-0.0231 -0.82241,-0.0452 -1.64481,-0.25166 -0.82242,-0.18257 -1.64482,-0.25166 -0.8224,-0.0452 -1.64483,-0.046 -1.64483,-0.15955 -1.6448,-0.31991 -0.82242,-0.16038 -1.64483,-0.3191 -0.8224,-0.16037 -0.82241,-0.18257 -0.82242,-0.16037 -1.64482,-0.3191 -0.8224,-0.16037 -1.64482,-0.38818 -0.82242,-0.22863 -0.82241,-0.18257 -0.8224,-0.22863 -0.82241,-0.18258 -1.64483,-0.43423 -0.82241,-0.25084 -0.8224,-0.25165 -0.82242,-0.27386 -2.46723,-0.82241 -1.64481,-0.54855 -1.64483,-0.50249 -1.64481,-0.43424 -0.82242,-0.2056 -1.64482,-0.52552 -1.64483,-0.66204 -0.82239,-0.34295 -0.82242,-0.4112 -1.64483,-0.70809 -1.64481,-0.63984 -0.82241,-0.34294 -1.64482,-0.66205 -1.64482,-0.63983 -1.64482,-0.7081 -0.82242,-0.43423 -0.8224,-0.36515 -0.82241,-0.45725 -0.82241,-0.38818 -1.64482,-0.93673 -1.64482,-1.00499 -1.64482,-0.93673 -0.82242,-0.38817 -0.82241,-0.43423 -1.64481,-0.63984 -0.77635,-0.18258 -1.27968,-0.18256 -1.23361,-0.0231 -0.82242,0.82241 v 44.41015 11.51374 1.64483 l 0.0231,1.64481 0.0682,0.82241 0.50249,1.55354 1.14233,1.21059 1.55353,0.77717 0.82241,0.2969 1.64481,0.54772 1.64483,0.54854 1.64482,0.54855 1.64482,0.52553 0.82241,0.25082 1.64483,0.43425 0.8224,0.18257 0.82241,0.22862 0.82241,0.18258 0.82242,0.22863 1.64481,0.41121 0.82241,0.18257 1.64482,0.43423 0.82242,0.25084 1.64481,0.50331 0.82241,0.22781 1.64483,0.29689 0.8224,0.0921 0.82241,0.13652 0.82242,0.13735 0.8224,0.18257 1.64484,0.25166 1.6448,0.13653 0.82242,0.11431 1.64482,0.31991 1.64482,0.25165 1.64482,0.13652 0.82242,0.11432 1.64481,0.31992 1.64483,0.27387 0.82241,0.0921 1.64481,0.27386 1.64482,0.31993 0.82242,0.11431 1.64482,0.0912 0.8224,0.0452 0.82242,0.11431 1.64481,0.31993 1.64483,0.25166 0.82241,0.0452 1.64481,0.0231 h 0.82242 2.46723 0.82241 l 1.64482,0.0231 0.82241,0.0452 1.64481,0.25166 0.82242,0.18258 1.64482,0.25166 0.82241,0.0452 1.64482,0.0231 h 0.82241 1.64483 9.04651 9.0465 3.28965 l 1.64482,-0.0231 0.82241,-0.0452 1.64483,-0.25166 0.8224,-0.18258 1.64482,-0.25166 1.64482,-0.0682 h 1.64482 0.82242 l 1.64482,-0.0231 0.8224,-0.0452 1.64482,-0.25166 1.64483,-0.31993 0.8224,-0.11431 1.64483,-0.13652 0.8224,-0.11431 1.64482,-0.31992 0.82242,-0.16038 1.64482,-0.31909 0.82241,-0.16037 0.8224,-0.18257 1.64483,-0.27387 0.82241,-0.0921 1.64481,-0.27386 1.64482,-0.34294 1.64483,-0.3191 0.82242,-0.16037 0.82239,-0.20559 0.82242,-0.18259 0.82241,-0.22863 0.82242,-0.2056 1.64481,-0.50249 0.82241,-0.27387 2.46724,-0.8224 1.64481,-0.54856 1.64483,-0.50248 0.82241,-0.2056 0.8224,-0.25166 0.82241,-0.2278 1.64483,-0.66287 0.82241,-0.41121 1.64481,-0.70809 1.64483,-0.63984 1.64481,-0.70809 0.82242,-0.43424 1.64482,-0.79939 0.82241,-0.34293 0.82241,-0.36515 1.64482,-0.63984 0.82241,-0.36514 0.82242,-0.36598 0.82239,-0.45644 0.82242,-0.45726 1.64483,-1.00498 1.64481,-0.93673 0.82241,-0.41121 1.64482,-0.93672 1.64482,-1.00498 1.64482,-1.005 0.82242,-0.50249 1.64481,-1.16534 0.82241,-0.63985 1.64482,-1.23361 0.82242,-0.59378 0.8224,-0.63984 0.82241,-0.59378 0.82241,-0.63983 1.64483,-1.23362 0.82241,-0.6168 1.64482,-1.39316 1.64482,-1.57657 0.82241,-0.8224 1.64481,-1.64482 1.64483,-1.64483 0.82241,-0.82241 1.62179,-1.64482 0.77718,-0.82241 1.39316,-1.64482 0.63984,-0.82241 0.68507,-0.8224 0.68589,-0.82242 0.73029,-0.82242 1.37096,-1.6448 0.61682,-0.82242 0.63983,-0.82242 1.21059,-1.64482 1.1193,-1.64482 1.00498,-1.64482 0.50331,-0.82241 0.47947,-0.82241 1.05104,-1.64482 0.54773,-0.82241 0.52552,-0.82241 0.52552,-0.8224 0.93672,-1.64483 0.38818,-0.82241 0.45726,-0.82241 0.36516,-0.82241 0.45726,-0.8224 0.36513,-0.82242 0.82242,-1.64483 0.43423,-0.82239 0.34294,-0.82242 0.36516,-0.82241 0.63984,-1.64482 0.66202,-1.64482 0.34296,-0.82241 0.59378,-1.64483 0.27469,-0.82239 0.54773,-1.64483 0.8224,-2.46723 0.27469,-0.82241 0.52552,-1.64482 0.25083,-0.82242 0.43423,-1.64481 0.18258,-0.82241 0.2056,-0.82242 0.16037,-0.8224 0.15955,-0.82242 0.34294,-1.64482 0.47947,-1.64482 0.47946,-1.64481 0.16037,-0.82241 0.18259,-1.64483 0.0682,-0.82241 0.25166,-1.64482 0.18256,-0.8224 0.25167,-1.64484 0.0452,-0.8224 0.0912,-1.64482 0.25166,-1.64482 0.18257,-0.82241 0.25166,-1.64483 0.0452,-0.8224 0.0231,-1.64482 v -1.64482 -6.57928 -7.4017 -1.64482 -0.82241 l -0.0231,-1.64482 -0.0452,-0.82241 -0.25166,-1.64482 -0.18257,-0.82241 -0.25166,-1.64482 -0.0912,-1.64482 -0.0452,-0.82241 -0.25167,-1.64483 -0.31991,-1.64481 -0.13652,-0.82241 -0.0921,-0.82242 -0.27387,-1.64481 -0.20559,-0.82241 -0.41121,-1.64482 -0.18258,-0.82242 -0.41119,-1.64481 -0.22864,-0.82241 -0.18257,-0.82242 -0.22863,-0.82241 -0.18258,-0.8224 -0.43424,-1.64483 -0.25083,-0.82241 -0.25166,-0.82241 -0.54854,-1.64482 -0.54773,-1.64482 -0.27468,-0.82242 -0.59378,-1.64481 -0.34295,-0.82241 -0.66204,-1.64482 -0.63983,-1.64482 -0.36515,-0.82241 -0.34294,-0.82241 -0.79939,-1.64482 -0.45727,-0.82241 -0.36515,-0.82241 -0.84543,-1.64482 -0.47946,-0.82241 -0.45727,-0.82241 -1.00498,-1.64482 -0.98278,-1.64482 -0.47946,-0.82241 -1.07326,-1.64483 -0.59459,-0.82241 -0.63902,-0.8224 -1.32572,-1.64483 -0.66204,-0.8224 -1.30188,-1.64483 -1.32572,-1.64481 -0.66204,-0.82242 -0.63983,-0.82241 -1.39317,-1.64481 -0.77718,-0.82242 -1.62179,-1.57656 -1.64482,-1.39316 -0.82242,-0.63984 -1.64481,-1.39316 -0.82241,-0.77718 -1.64482,-1.55353 -1.64482,-1.37014 -0.82242,-0.5946 -1.64482,-1.14151 -0.8224,-0.57157 -1.64482,-1.18756 -0.82242,-0.59461 -1.64482,-1.02801 -0.8224,-0.47946 -1.64482,-1.00498 -1.64484,-0.93674 -0.8224,-0.41119 -0.8224,-0.47947 -0.82242,-0.43423 -0.82242,-0.47947 -1.6448,-0.82241 -0.82242,-0.34295 -1.64482,-0.73111 -0.82242,-0.41122 -1.64481,-0.70809 -1.64483,-0.63983 -1.64481,-0.66204 -0.82241,-0.34295 -0.82242,-0.29688 -0.8224,-0.2969 -0.82242,-0.27469 -1.64482,-0.54772 -1.64482,-0.54854 -0.82241,-0.25166 -0.8224,-0.25084 -1.64483,-0.43424 -0.82241,-0.18257 -0.82241,-0.22862 -0.8224,-0.18258 -0.82242,-0.22863 -1.64482,-0.41121 -0.82241,-0.18258 -0.82241,-0.22863 -1.64482,-0.4112 -0.82241,-0.18257 -0.82241,-0.22863 -1.64482,-0.38818 -1.64482,-0.27386 -0.82241,-0.0921 -0.82241,-0.13651 -0.8224,-0.13734 -0.82242,-0.18259 -1.64483,-0.25164 -0.82239,-0.0452 -1.64483,-0.0231 h -1.64482 l -0.82242,-0.0231 -0.8224,-0.0452 -1.64482,-0.25166 -0.82242,-0.18258 -1.64481,-0.25165 -0.82241,-0.0452 -1.64482,-0.023 h -1.64482 -7.4017 -11.51374 -4.11206 -1.64481 l -1.64483,0.0683 -0.8224,0.11432 -1.64482,0.31991 -1.64482,0.25166 -0.82242,0.0452 -1.64481,0.0231 h -0.82241 -1.64483 -7.40169 l 0.0231,-1.23361 0.15954,-1.27967 0.31992,-1.59876 0.25166,-1.64483 0.0452,-0.8224 0.0231,-0.82241 0.0231,-1.64483 0.0452,-0.82241 0.25165,-1.64482 0.18257,-0.8224 0.25167,-1.64483 0.0452,-0.82242 0.023,-0.82239 v -1.64483 -4.11205 -1.64483 l 0.0683,-1.64481 0.11432,-0.82241 0.31991,-1.64483 0.25166,-1.64481 0.0452,-0.82241 0.0231,-1.64483 v -0.82241 -1.64482 l 0.0231,-1.64482 0.0452,-0.8224 0.25164,-1.64483 0.18259,-0.82241 0.25165,-1.64482 0.0452,-0.82241 0.0231,-1.64482 v -0.82242 -2.46722 l 0.0231,-1.64482 0.0452,-0.82241 0.25166,-1.64482 0.18258,-0.82241 0.25166,-1.64482 0.0452,-0.82241 0.0231,-1.64483 v -0.8224 -2.46724 l 0.0231,-1.64482 0.0452,-0.82241 0.25166,-1.64481 0.18258,-0.82242 0.25166,-1.64482 0.0452,-0.8224 0.0231,-1.64482 v -1.59877 -2.51329 l 0.82241,-0.82242 h 125.8297 l 0.82242,-0.8224 V 49.89545 L 507.8145,49.07304 H 323.59394 m 182.57509,2.46723 v 55.10149 h -94.57719 -23.02748 -2.46723 -0.82241 -0.82241 l -1.64482,0.0912 -0.82242,0.18258 -1.55353,0.8224 -0.63984,0.63985 -0.50249,0.75414 -0.50249,1.6218 -0.0913,1.64481 -0.0231,1.64484 -0.0452,0.8224 -0.25166,1.64482 -0.18257,0.82241 -0.25166,1.64483 -0.0452,0.82241 -0.0231,1.64481 v 2.46724 0.82241 l -0.0231,1.64481 -0.0452,0.82242 -0.25167,1.64482 -0.18256,0.8224 -0.25166,1.64483 -0.0452,0.82241 -0.0231,1.64482 v 0.8224 1.64483 0.82242 l -0.0231,1.64481 -0.0452,0.82241 -0.25166,1.64482 -0.18257,0.82241 -0.25166,1.64482 -0.0452,0.82241 -0.0231,1.64482 v 0.82241 1.64483 l -0.0231,1.64481 -0.0452,0.82241 -0.25164,1.64482 -0.18259,0.82242 -0.25165,1.64481 -0.0452,0.82241 -0.0231,0.82242 v 1.64481 3.28965 1.64482 l -0.0231,1.64482 -0.0452,0.82242 -0.25166,1.64481 -0.18258,0.82241 -0.25166,1.64482 -0.0452,0.82241 -0.0231,1.64482 -0.0231,0.82241 -0.0452,0.82242 -0.25166,1.64481 -0.18257,0.82241 -0.25167,1.64482 -0.0452,0.82242 -0.0231,1.59876 v 0.82241 1.69088 l 0.82241,0.8224 h 9.86893 3.28964 l 1.64482,-0.0231 0.82241,-0.0452 1.64482,-0.25165 0.82241,-0.18257 1.64483,-0.25166 0.82239,-0.0452 1.64483,-0.023 h 3.28964 9.86892 7.4017 1.64482 l 1.64482,0.023 0.8224,0.0452 1.64483,0.25166 0.8224,0.18257 1.64483,0.25165 0.82242,0.0452 0.8224,0.0231 h 1.64482 l 1.64482,0.0231 0.82242,0.0452 1.64481,0.25167 0.82241,0.18256 0.82242,0.13735 0.8224,0.13652 0.82242,0.0921 1.64482,0.27385 1.64482,0.38818 0.82241,0.22863 0.8224,0.18258 1.64483,0.41121 0.82241,0.22863 0.82241,0.18258 1.64482,0.41119 0.82241,0.22863 0.82241,0.18258 0.82241,0.22863 0.82241,0.18258 1.64482,0.43423 0.82241,0.25084 0.82242,0.25165 1.64481,0.54855 1.64482,0.54773 0.82241,0.27468 0.82241,0.29689 0.82241,0.29689 0.82241,0.34294 1.64483,0.66204 1.64481,0.63985 1.64483,0.70808 0.8224,0.41121 1.64482,0.73112 0.82241,0.34294 1.64483,0.82242 0.8224,0.47946 0.82241,0.43424 0.82241,0.47947 0.82242,0.4112 1.64481,0.93672 1.64483,1.00499 0.8224,0.47947 1.64482,1.02801 0.82241,0.5946 1.64483,1.18757 0.82242,0.57157 1.64481,1.1415 0.82241,0.5946 0.82241,0.66204 1.64483,1.48527 0.8224,0.77635 0.82241,0.77718 1.64483,1.39317 0.8224,0.63983 1.64482,1.39317 0.79939,0.77718 0.77718,0.79938 1.39316,1.64483 0.63984,0.8224 0.66203,0.82241 1.32573,1.64483 1.30188,1.64482 0.66204,0.82241 1.32572,1.64481 0.63901,0.82242 0.5946,0.82241 1.07325,1.64481 0.47947,0.82242 0.98277,1.64482 1.00499,1.64482 0.45727,0.8224 0.47946,0.82242 0.84543,1.64482 0.36515,0.8224 0.45727,0.82242 0.79937,1.64482 0.34296,0.82241 0.36514,0.82241 0.63984,1.64482 0.66204,1.64483 0.34294,0.82239 0.59378,1.64483 0.27469,0.82241 0.54772,1.64482 0.54855,1.64482 0.25165,0.82241 0.25084,0.82242 0.43423,1.64481 0.18259,0.82241 0.22863,0.82242 0.18256,0.82241 0.22863,0.8224 0.41121,1.64482 0.18258,0.82242 0.4112,1.64481 0.2056,0.82241 0.27387,1.64483 0.0921,0.82241 0.13652,0.8224 0.31991,1.64483 0.25166,1.64482 0.0452,0.82241 0.0912,1.64482 0.25165,1.64483 0.18258,0.8224 0.25165,1.64482 0.0452,0.82241 0.0231,0.82241 v 1.64482 4.93446 7.40169 1.64483 l -0.0231,1.64482 -0.0452,0.8224 -0.25165,1.64482 -0.18258,0.82242 -0.25165,1.64482 -0.0912,1.64482 -0.0452,0.82241 -0.25166,1.64481 -0.18257,0.82242 -0.25166,1.64482 -0.0682,0.82241 -0.18257,1.64481 -0.16038,0.82242 -0.47946,1.64483 -0.47946,1.64481 -0.34294,1.64482 -0.15956,0.82242 -0.16037,0.8224 -0.20559,0.82242 -0.18259,0.8224 -0.43422,1.64483 -0.25085,0.82241 -0.52551,1.64482 -0.27469,0.82241 -0.82241,2.46723 -0.54772,1.64482 -0.27469,0.82241 -0.59378,1.64481 -0.34295,0.82242 -0.66204,1.64482 -0.63982,1.64482 -0.36516,0.82241 -0.34294,0.82241 -0.43423,0.82241 -0.82242,1.64481 -0.36515,0.82242 -0.45726,0.82241 -0.36515,0.82242 -0.45726,0.8224 -0.38818,0.82241 -0.93672,1.64482 -0.52552,0.82241 -0.52552,0.82242 -0.54772,0.8224 -1.05105,1.64482 -0.98278,1.64482 -0.47946,0.82241 -0.52552,0.82241 -1.11931,1.64482 -0.6168,0.82242 -1.23361,1.64481 -0.61682,0.82241 -1.37096,1.64483 -0.73029,0.8224 -1.37096,1.64483 -0.63983,0.82241 -1.39316,1.64481 -0.77719,0.82242 -0.79938,0.8224 -1.64482,1.64484 -2.46723,2.46722 -1.64482,1.62179 -0.82241,0.77719 -1.64482,1.39315 -1.64483,1.25664 -0.8224,0.59378 -0.82241,0.63984 -0.82241,0.59378 -0.82241,0.63984 -0.82241,0.59378 -1.64482,1.23361 -0.82241,0.63984 -1.64483,1.16535 -0.8224,0.5025 -1.64482,1.00498 -1.64482,1.00499 -1.64482,0.93673 -0.82241,0.41119 -1.64483,0.93674 -1.64481,1.00498 -0.82241,0.45726 -0.82242,0.45644 -0.8224,0.36597 -0.82242,0.36514 -1.64482,0.63985 -0.82241,0.36514 -0.82241,0.34295 -1.64482,0.79938 -0.82241,0.43423 -1.64483,0.7081 -1.64481,0.63983 -1.64483,0.7081 -0.8224,0.41121 -1.64482,0.66286 -0.82241,0.2278 -0.82241,0.25166 -0.82242,0.20561 -1.64481,0.50249 -1.64483,0.54854 -2.46722,0.82242 -0.82242,0.27387 -1.64482,0.50248 -0.82241,0.2056 -0.8224,0.22863 -0.82241,0.18258 -0.82242,0.2056 -0.82241,0.16037 -1.64482,0.3191 -1.64481,0.34295 -1.64483,0.27386 -0.82242,0.0921 -1.64481,0.27386 -0.82241,0.18257 -0.82241,0.16038 -1.64482,0.31909 -0.82241,0.16037 -1.64482,0.31992 -0.82242,0.11432 -1.64481,0.13652 -0.82241,0.11431 -1.64482,0.31991 -1.64482,0.25165 -0.82241,0.0452 -1.64483,0.0231 h -0.8224 -1.64482 l -1.64483,0.0683 -1.64481,0.25167 -0.82242,0.18256 -1.64482,0.25166 -0.82241,0.0452 -1.64482,0.0231 h -1.64483 -5.75686 -9.86892 -2.46723 -0.82241 l -1.64483,-0.0231 -0.82241,-0.0452 -1.64482,-0.25166 -0.8224,-0.18256 -1.64483,-0.25167 -0.82241,-0.0452 -1.64482,-0.0231 h -0.82241 -2.46723 -0.82241 l -1.64482,-0.0231 -0.82241,-0.0452 -1.64482,-0.25165 -0.82241,-0.18257 -1.64481,-0.25165 -1.64483,-0.0912 -0.82241,-0.0452 -1.64482,-0.25167 -0.82241,-0.18256 -1.64483,-0.27387 -0.82241,-0.0921 -1.64481,-0.27386 -0.82242,-0.18258 -1.64482,-0.25166 -1.64482,-0.13652 -1.64482,-0.25165 -0.82241,-0.18258 -1.64481,-0.25166 -1.64483,-0.13651 -1.64481,-0.25166 -0.82242,-0.18258 -1.64482,-0.27386 -1.64483,-0.22863 -0.82239,-0.16037 -1.64483,-0.47946 -0.82242,-0.25167 -0.8224,-0.25083 -1.64482,-0.43423 -0.82241,-0.18258 -0.82241,-0.22862 -0.82242,-0.18259 -1.64481,-0.41119 -0.82241,-0.22863 -0.82242,-0.18258 -1.64481,-0.43424 -0.82241,-0.25083 -1.64482,-0.52552 -0.82242,-0.27468 -1.64482,-0.54773 -0.8224,-0.27469 -1.64483,-0.54772 -0.77635,-0.25166 -0.82242,-0.31991 -0.45725,-0.13652 -1.23362,-0.66287 V 327.8702 l 1.23362,0.22863 1.27967,0.47945 0.77635,0.34295 1.64483,0.9137 1.64482,1.00498 1.64482,0.93673 0.8224,0.38818 0.82242,0.45726 0.82241,0.36514 0.82241,0.43425 1.64482,0.70808 1.64482,0.63985 0.8224,0.34294 1.64483,0.66204 1.64482,0.63983 1.64481,0.7081 0.82242,0.4112 0.82241,0.34295 1.64481,0.66204 1.64483,0.52552 0.82241,0.20561 1.64483,0.43422 1.64481,0.50249 1.64483,0.54856 2.46722,0.8224 0.82242,0.27387 0.8224,0.25166 0.82242,0.25082 1.64481,0.43425 0.82241,0.18257 0.82242,0.22863 0.82242,0.18257 0.82239,0.22863 1.64483,0.38818 0.82241,0.16037 1.64482,0.3191 0.82241,0.16036 0.82241,0.18259 0.82241,0.16037 1.64481,0.31908 0.82242,0.16038 0.82241,0.18256 1.64482,0.25167 0.82241,0.0452 1.64482,0.046 0.82241,0.0452 1.64482,0.25166 0.82241,0.18256 1.64483,0.25166 0.8224,0.0452 1.64482,0.0231 h 1.64482 0.82242 l 1.64481,0.0231 0.82241,0.0452 1.64483,0.25166 0.8224,0.18257 1.64483,0.25165 0.8224,0.0452 1.64482,0.0231 h 1.64482 1.64483 l 0.82242,-0.0231 0.82239,-0.0452 1.64483,-0.25165 0.82241,-0.18257 1.64482,-0.25166 0.82241,-0.0452 1.64482,-0.0231 h 1.64481 l 0.82242,-0.0231 0.82241,-0.0452 1.64482,-0.25166 1.64482,-0.31991 0.82241,-0.11431 1.64483,-0.13652 1.64481,-0.25167 0.82242,-0.20559 1.64482,-0.41121 0.8224,-0.18258 0.82242,-0.22863 0.82241,-0.18258 1.64482,-0.47946 0.82241,-0.31991 1.64482,-0.63983 1.64483,-0.59379 0.82239,-0.27468 0.82242,-0.2969 0.82241,-0.29689 1.64482,-0.70809 0.82241,-0.43424 0.82241,-0.36514 0.82241,-0.45726 0.82241,-0.36515 0.82242,-0.45727 0.82239,-0.38817 1.64483,-0.93673 0.82242,-0.52551 1.64481,-1.14233 0.82241,-0.63901 1.64482,-1.32573 1.64483,-1.30187 0.8224,-0.68507 0.82241,-0.7081 1.64482,-1.57656 0.82242,-0.82241 1.57655,-1.64482 1.39317,-1.64481 0.63983,-0.82242 1.3249,-1.64483 0.63985,-0.8224 0.6168,-0.82241 1.05104,-1.64482 0.47947,-0.82241 1.00498,-1.64482 0.45726,-0.82241 0.45644,-0.82241 0.36598,-0.82242 0.36514,-0.8224 0.63984,-1.64482 0.66204,-1.64483 0.34294,-0.82241 0.29689,-0.82242 0.52551,-1.64481 0.20562,-0.82241 0.4112,-1.64482 0.2056,-0.82241 0.27387,-1.64482 0.0921,-0.82241 0.13652,-0.82242 0.31991,-1.64481 0.25166,-1.64483 0.0452,-0.8224 0.046,-1.64482 0.0452,-0.82242 0.25165,-1.64482 0.18258,-0.8224 0.25165,-1.64482 0.0222,-0.82242 -0.0222,-0.82241 -0.25165,-1.64481 -0.18258,-0.82242 -0.25165,-1.64482 -0.0452,-0.8224 -0.046,-1.64482 -0.0452,-0.82242 -0.25166,-1.64482 -0.18258,-0.8224 -0.31992,-1.64483 -0.31991,-1.64481 -0.38817,-1.64483 -0.22863,-0.82241 -0.20562,-0.82241 -0.25082,-0.82241 -0.52553,-1.64482 -0.57157,-1.64483 -0.29689,-0.8224 -0.7081,-1.64482 -0.43422,-0.82241 -0.82242,-1.64483 -0.38817,-0.8224 -0.47947,-0.82241 -0.45727,-0.82241 -1.07323,-1.64483 -1.23362,-1.64481 -1.32573,-1.64483 -1.30187,-1.64481 -1.39317,-1.6218 -0.77717,-0.77717 -1.6218,-1.39317 -0.8224,-0.63984 -0.82242,-0.66203 -1.64481,-1.32574 -1.64483,-1.23361 -1.64482,-1.07324 -0.82241,-0.47946 -0.82241,-0.50333 -0.8224,-0.45643 -0.82242,-0.47946 -1.64483,-0.82241 -0.82239,-0.34295 -0.82242,-0.38818 -0.82241,-0.34295 -0.82241,-0.4112 -1.64482,-0.7081 -0.82241,-0.29688 -0.82241,-0.2969 -1.64483,-0.54855 -1.64481,-0.50248 -1.64483,-0.43423 -0.82241,-0.20561 -0.8224,-0.25083 -0.82241,-0.25166 -1.64483,-0.54855 -1.64482,-0.52551 -0.8224,-0.22783 -1.64483,-0.29688 -0.82241,-0.0921 -0.8224,-0.13651 -1.64483,-0.31993 -1.64482,-0.25166 -0.82241,-0.0452 -1.64482,-0.0912 -1.64483,-0.25165 -0.82239,-0.18258 -1.64483,-0.25165 -0.82241,-0.0452 -1.64482,-0.046 -0.82241,-0.0452 -1.64482,-0.25166 -0.82242,-0.18257 -1.64481,-0.25165 -0.82241,-0.0452 -1.64482,-0.0231 h -1.64482 -2.46724 -10.69132 -7.4017 -1.64482 l -1.64483,0.0231 -0.82239,0.0452 -1.64484,0.25165 -0.8224,0.18257 -1.64482,0.25166 -0.82242,0.0452 -1.64482,0.0231 h -1.64481 -2.46724 -1.64481 l -1.64482,0.0682 -0.82242,0.11432 -1.64482,0.31991 -1.64482,0.25165 -0.82241,0.0452 -1.64481,0.0231 h -0.82242 -1.64482 l -1.64483,0.0682 -1.64481,0.25166 -0.82241,0.18258 -1.64482,0.25166 -0.82241,0.0452 -1.64482,0.0231 h -0.82241 -1.64482 l -1.64482,0.0682 -1.64482,0.25166 -0.82241,0.18258 -1.64483,0.25166 -0.8224,0.0452 -1.59877,0.0231 h -1.69087 v -2.51328 -1.59877 l 0.0231,-1.64483 0.0452,-0.8224 0.25166,-1.64482 0.18257,-0.82242 0.25166,-1.64482 0.0452,-0.8224 0.023,-1.64482 v -0.82242 -1.64481 l 0.0231,-1.64483 0.0452,-0.8224 0.25166,-1.64483 0.18256,-0.82241 0.25167,-1.64482 0.0452,-0.82241 0.0231,-1.64481 v -0.82242 -2.46723 -0.82241 l 0.0231,-1.64482 0.0452,-0.82241 0.25165,-1.64481 0.18257,-0.82242 0.25165,-1.64483 0.0452,-0.8224 0.0231,-1.64482 v -0.82241 -1.64483 l 0.0231,-1.64481 0.0452,-0.82241 0.25167,-1.64482 0.18256,-0.82241 0.25166,-1.64483 0.0452,-0.8224 0.0231,-1.64482 v -0.82241 -1.64483 l 0.0683,-1.64481 0.25165,-1.64483 0.18258,-0.82241 0.25166,-1.64481 0.0452,-0.82242 0.023,-1.64482 v -0.82242 -1.64481 -0.82241 l 0.0231,-1.64482 0.0452,-0.82242 0.25164,-1.64481 0.18259,-0.82241 0.25166,-1.64483 0.0452,-0.8224 0.0231,-1.64483 v -2.46722 -0.82242 l 0.0231,-1.64482 0.0452,-0.82241 0.25166,-1.64481 0.18258,-0.82242 0.25166,-1.64482 0.0452,-0.8224 0.0231,-1.64482 v -0.82242 -2.46722 -1.64483 l 0.0231,-1.64481 0.0452,-0.82242 0.25166,-1.64482 0.18257,-0.82241 0.25166,-1.64482 0.0452,-0.82241 0.0231,-1.64483 v -1.64481 l 0.0231,-0.82241 0.0452,-0.82242 0.25167,-1.64481 0.18257,-0.82241 0.25166,-1.64482 0.0452,-0.82242 0.0231,-1.64481 v -0.82241 -1.64483 l 0.0231,-1.64482 0.0452,-0.82241 0.25165,-1.64482 0.18259,-0.82242 0.25165,-1.64481 0.0452,-0.82241 0.0231,-1.64482 v -0.82241 -2.46723 -1.64482 l 0.0231,-1.64482 0.0452,-0.82242 0.25166,-1.64481 0.18258,-0.82241 0.25165,-1.64482 0.0452,-0.82242 0.0231,-1.64481 v -2.46723 -0.822417 l 0.0231,-1.644825 0.0452,-0.822413 0.25166,-1.644814 0.18257,-0.822412 0.25166,-1.644824 0.0452,-0.822403 0.023,-1.644824 0.0231,-0.82241 0.0452,-0.82241 0.25165,-1.644822 0.18257,-0.822411 0.25166,-1.64482 0.0452,-0.82241 0.0231,-1.64482 v -0.822411 -2.467229 l 0.0231,-1.64482 0.0452,-0.822412 0.25167,-1.64482 0.18257,-0.82241 0.25165,-1.64482 0.0452,-0.822411 0.0231,-0.82241 v -1.644961 -4.112052 -0.82241 l 0.0231,-1.64482 0.0452,-0.82241 0.25166,-1.644821 0.18257,-0.82241 0.25166,-1.64482 0.0452,-0.82241 0.0231,-1.64482 V 54.05292 51.540046 h 180.93027"
       id="path179" /></g></svg>
