<?xml version="1.0" encoding="UTF-8" standalone="no"?>
<!-- Created with Inkscape (http://www.inkscape.org/) -->

<svg
   version="1.1"
   id="svg2"
   width="556"
   height="515"
   viewBox="0 0 556 515"
   xml:space="preserve"
   sodipodi:docname="G.svg"
   inkscape:export-filename="G2.svg"
   inkscape:export-xdpi="96"
   inkscape:export-ydpi="96"
   xmlns:inkscape="http://www.inkscape.org/namespaces/inkscape"
   xmlns:sodipodi="http://sodipodi.sourceforge.net/DTD/sodipodi-0.dtd"
   xmlns="http://www.w3.org/2000/svg"
   xmlns:svg="http://www.w3.org/2000/svg"><sodipodi:namedview
     id="namedview1983"
     pagecolor="#ffffff"
     bordercolor="#000000"
     borderopacity="0.25"
     inkscape:showpageshadow="2"
     inkscape:pageopacity="0.0"
     inkscape:pagecheckerboard="0"
     inkscape:deskcolor="#d1d1d1"
     showgrid="false" /><defs
     id="defs6" /><g
     id="g8"
     transform="translate(-24.955794,-15.171445)"><path
       style="display:inline;fill:#00ff00;stroke:none;stroke-width:0.993828"
       d="m 431.74661,453.09434 0.99383,-0.99382 -0.11038,-2.04281 -0.22062,-0.99383 -0.967,-1.93248 -1.49072,-1.98766 -0.80004,-0.99382 -1.51857,-1.98766 -0.71754,-0.99381 -1.51857,-1.98767 -1.60104,-1.98764 -1.60107,-1.98765 -1.57321,-1.98767 -1.60206,-1.98763 -0.80003,-0.99383 -1.51857,-1.98765 -0.71753,-0.99383 -0.7732,-0.99382 -0.74536,-0.99382 -1.65671,-1.98766 -0.88253,-0.99383 -0.82884,-0.99382 -0.82785,-0.99383 -0.74539,-0.99382 -0.77318,-0.99384 -0.71754,-0.99382 -1.51857,-1.98765 -0.80003,-0.99382 -1.60205,-1.98766 -1.57322,-1.98763 -0.80003,-0.99384 -1.60205,-1.98764 -1.57322,-1.98766 -0.80003,-0.99382 -1.60204,-1.98767 -0.80004,-0.99381 -0.7732,-0.99384 -0.80004,-0.99382 -1.60204,-1.98766 -0.80001,-0.99382 -0.74538,-0.99381 -0.7732,-0.99384 -0.71753,-0.99381 -1.51858,-1.98767 -0.80002,-0.99381 -1.60205,-1.98766 -0.80003,-0.99381 -1.51855,-1.98766 -0.71755,-0.99383 -0.77321,-0.99382 -0.74535,-0.99382 -1.65672,-1.98766 -0.88252,-0.99382 -1.6567,-1.98765 -1.51857,-1.98766 -0.71753,-0.99382 -1.51858,-1.98765 -0.80003,-0.99383 -1.60205,-1.98765 -0.80002,-0.99383 -0.77319,-0.99381 -0.80004,-0.99384 -1.60205,-1.98764 -0.80003,-0.99384 -1.60104,-1.95981 -0.85569,-0.91134 -1.90515,-1.38042 -1.98766,-0.60724 -0.99383,-0.0824 -0.99383,-0.0278 h -1.98764 -0.99383 -1.98765 -6.95678 -36.77154 -1.98766 -117.27141 -4.96913 -7.9506 l -1.46292,2.04331 -1.51855,1.93199 -1.60106,1.98765 -1.57323,1.98766 -1.60204,1.98765 -0.80003,0.99382 -1.51857,1.98765 -0.71754,0.99383 -0.7732,0.99383 -0.74536,0.99382 -0.80002,0.99381 -1.60206,1.98767 -0.80003,0.99381 -0.7732,0.99384 -0.80003,0.99382 -1.60205,1.98766 -0.80002,0.99382 -0.7732,0.99382 -0.80003,0.99383 -1.60204,1.98765 -0.80004,0.99382 -1.57322,1.98765 -1.60204,1.98765 -0.80003,0.99383 -1.51858,1.98765 -0.71754,0.99382 -0.77318,0.99383 -0.74539,0.99383 -0.80002,0.99383 -1.60205,1.98764 -0.80003,0.99383 -0.7732,0.99383 -0.80002,0.99383 -1.60205,1.98764 -0.80003,0.99383 -0.77319,0.99382 -0.80004,0.99383 -1.60204,1.98765 -0.80003,0.99381 -0.7732,0.99384 -0.80001,0.99383 -1.60205,1.98765 -0.80003,0.99383 -1.51858,1.98766 -0.71753,0.99382 -1.51858,1.98765 -0.80003,0.99382 -0.80101,0.99382 -1.60106,1.98766 -0.77319,0.99381 -0.80003,0.99384 -1.60205,1.98764 -0.80004,0.99384 -0.77318,0.99381 -0.80003,0.99383 -1.60205,1.98766 -0.80002,0.99382 -0.77321,0.99384 -1.60106,1.98763 -0.80103,0.99383 -0.80002,0.99383 -1.51855,1.98764 -0.71755,0.99383 -0.77321,0.99382 -1.4629,1.98766 -1.18762,1.93248 -0.57941,1.54592 -0.11037,1.49072 1.49074,0.71775 0.55256,0.0277 0.99382,0.1933 0.93818,0.0275 1.98765,0.0277 h 1.98766 3.9753 3.97529 4.96914 9.93825 3.97532 2.98147 3.97529 7.95061 0.99383 16.89502 0.99384 9.93825 19.87652 1.98763 15.90121 7.95062 9.93825 18.88269 11.92589 11.92591 150.06764 m -321.99946,-2.98139 0.52473,-1.49075 0.3866,-0.55206 0.55157,-0.99381 0.69073,-0.93869 0.6897,-0.99382 1.51856,-1.98766 0.80004,-0.99381 1.60204,-1.98766 0.80003,-0.99382 0.7732,-0.99383 0.80003,-0.99382 1.60204,-1.98765 0.80004,-0.99383 0.77319,-0.99383 0.80003,-0.99382 1.60205,-1.98765 0.80002,-0.99383 0.7732,-0.99381 0.80003,-0.99384 1.60204,-1.98764 0.80004,-0.99384 0.74537,-0.99382 0.77319,-0.99382 0.71755,-0.99383 1.51856,-1.98764 0.80002,-0.99385 1.60205,-1.98763 0.80002,-0.99384 0.77322,-0.99382 0.80003,-0.99382 1.60205,-1.98765 0.80002,-0.99382 0.7732,-0.99384 0.80002,-0.99382 1.60205,-1.98766 0.80004,-0.99382 0.77317,-0.99382 0.80004,-0.99384 1.60205,-1.98764 0.80003,-0.99384 0.74538,-0.99381 0.77319,-0.99382 0.71753,-0.99385 1.51858,-1.98763 0.80003,-0.99383 1.60204,-1.98765 0.80004,-0.99383 0.77318,-0.99382 0.80003,-0.99383 1.60206,-1.98766 0.80002,-0.99382 0.77319,-0.99381 0.80003,-0.99384 1.60205,-1.98763 0.80003,-0.99385 1.57324,-1.98763 1.60204,-1.98766 0.80004,-0.99382 0.74536,-0.99384 0.77319,-0.99381 0.71754,-0.99383 1.51857,-1.98766 0.80003,-0.99382 1.60205,-1.98765 0.80002,-0.99382 0.7732,-0.99385 1.57324,-1.93198 0.74536,-0.99382 0.4969,-0.55257 0.7732,-1.49073 h 22.85799 9.93825 6.95679 12.91973 77.51839 35.77772 5.96295 1.98765 0.99383 1.98766 l 0.99382,0.0278 0.99382,0.0824 1.95983,0.60722 1.79484,1.38041 0.82787,0.91135 0.77318,0.966 1.60106,1.98766 1.60105,1.98764 0.7732,0.99383 0.80002,0.99382 1.60205,1.98766 0.80003,0.99382 1.51857,1.98765 0.71754,0.99383 0.77319,0.99383 0.74538,0.99382 1.65669,1.98764 0.88253,0.99385 0.82886,0.99382 0.82785,0.99381 0.74537,0.99384 0.7732,0.99382 0.71754,0.99382 1.51856,1.98766 0.80002,0.99381 1.60206,1.98766 0.80003,0.99383 1.51857,1.98765 0.71754,0.99382 0.77318,0.99382 0.74539,0.99384 0.80002,0.99382 1.60206,1.98765 0.80001,0.99382 0.77321,0.99383 0.80003,0.99383 1.60204,1.98764 0.80004,0.99383 0.77318,0.99382 0.80003,0.99384 1.60205,1.98765 0.80002,0.99382 0.7732,0.99383 0.80003,0.99383 1.60204,1.98765 0.80004,0.99382 1.51856,1.98766 0.71755,0.99382 0.77319,0.99381 0.74537,0.99384 0.82786,0.99382 0.82884,0.99382 0.88252,0.99384 1.65672,1.98764 0.74536,0.99383 0.7732,0.99383 0.71755,0.99382 1.51856,1.98766 0.80002,0.99381 1.60205,1.98766 1.57322,1.98766 0.80004,0.99381 1.60204,1.98766 0.80003,0.99382 1.51857,1.98765 0.71754,0.99382 0.77319,0.99384 0.71756,0.99382 1.40824,1.9325 0.46908,0.55206 0.74537,1.49074 h -1.49074 -52.17583 -160.99974 -4.96913 -3.9753 -10.93207 -4.96913 -4.96914 -1.98763 -15.90123 -7.95059 -31.80243 -7.95059 -3.97531 -4.96912 m 282.24645,-17.88885 -0.11038,-1.49075 -0.52475,-1.5459 -1.07631,-1.93249 -0.69069,-0.99382 -0.77221,-0.99382 -1.60206,-1.98766 -1.57321,-1.98766 -0.80003,-0.99381 -1.60204,-1.98767 -0.80004,-0.99381 -1.57324,-1.98765 -1.60204,-1.98765 -0.80003,-0.99383 -0.74537,-0.99382 -0.77319,-0.99383 -0.71753,-0.99382 -1.51858,-1.98766 -0.80002,-0.99383 -1.60205,-1.98764 -0.80003,-0.99383 -0.77319,-0.99383 -0.80004,-0.99382 -1.60204,-1.98765 -0.80003,-0.99382 -0.77321,-0.99384 -0.80002,-0.99382 -1.60206,-1.98765 -0.80003,-0.99382 -1.57322,-1.98766 -1.60204,-1.98764 -0.80004,-0.99384 -0.74535,-0.99382 -0.77321,-0.99382 -1.49073,-1.98766 -0.74537,-0.99381 -1.68355,-1.95985 -0.93916,-0.91133 -1.95983,-1.38042 -1.98763,-0.60723 -1.98767,-0.11037 h -0.99381 -0.99384 -1.98764 -4.96913 -28.82093 -83.48136 -1.98765 -0.99383 -10.93209 -12.91972 -4.96912 -1.98765 -0.99382 l -1.98767,0.0278 -1.95982,0.30311 -0.93916,0.3866 -1.68354,1.38044 -1.57324,1.87733 -0.801,0.99382 -1.60107,1.98765 -1.51856,1.98765 -0.71755,0.99382 -1.51856,1.98766 -0.80002,0.99381 -1.60205,1.98767 -0.80003,0.99381 -0.77319,0.99384 -0.80004,0.99382 -1.60204,1.98766 -0.80003,0.99382 -0.7732,0.99381 -0.80003,0.99384 -1.60205,1.98764 -0.80004,0.99384 -0.77318,0.99381 -0.80003,0.99383 -1.60204,1.98766 -0.80004,0.99382 -0.74536,0.99384 -0.77322,0.99381 -0.71753,0.99382 -1.51856,1.98766 -0.80004,0.99382 -1.60204,1.98765 -1.57323,1.98766 -0.80002,0.99382 -1.60205,1.98765 -0.80003,0.99382 -0.77319,0.99384 -0.80004,0.99382 -1.49072,1.98765 -0.967,1.93249 -0.22064,0.99383 -0.11036,2.04281 0.99381,0.99382 h 8.94453 21.86415 35.77772 10.9321 92.42576 50.6851 13.91355 2.98148 1.98766 l 0.99382,-0.0277 0.93817,-0.0275 0.99382,-0.19328 0.55257,-0.0277 1.49075,-0.71773 m -241.49961,-1.98765 0.74536,-1.49075 0.4691,-0.55206 0.66288,-0.99384 0.74536,-0.93866 0.74537,-0.99382 0.80003,-0.99383 1.60205,-1.98765 0.80002,-0.99383 1.57324,-1.98764 1.60205,-1.98766 0.80003,-0.99381 1.51855,-1.98766 0.71755,-0.99382 0.77321,-0.99384 0.74535,-0.99383 0.80004,-0.99381 1.60204,-1.98766 0.80003,-0.99382 0.7732,-0.99384 0.80002,-0.99382 1.60205,-1.98765 0.80003,-0.99383 0.77321,-0.99381 0.80003,-0.99384 1.60205,-1.98764 0.80002,-0.99384 0.77319,-0.99381 0.80003,-0.99383 1.60206,-1.98765 0.80003,-0.99382 0.74536,-0.99385 0.77318,-0.99381 0.71757,-0.99382 1.51855,-1.98765 1.60106,-1.98765 1.51856,-1.932 1.46292,-2.04331 h 19.87651 7.9506 9.93825 0.99382 1.98766 4.96913 69.56779 31.80241 5.96295 1.98766 0.99382 l 1.98766,0.0278 0.99381,0.0824 1.98767,0.60722 1.90514,1.38043 0.8557,0.91133 1.57322,1.95984 0.77319,0.99382 0.71754,0.99382 1.51857,1.98765 0.80004,0.99382 1.60204,1.98766 0.80003,0.99382 0.77318,0.99383 0.80004,0.99382 1.60205,1.98766 0.80003,0.99382 0.7732,0.99383 0.80003,0.99382 1.60204,1.98766 0.80004,0.99383 0.77319,0.99382 0.80003,0.99382 1.60205,1.98766 0.80002,0.99381 0.74537,0.99384 0.77321,0.99382 0.71753,0.99381 1.51856,1.98767 0.80003,0.99382 1.60204,1.98765 1.57324,1.98766 0.80004,0.99383 1.60204,1.98765 0.80003,0.99382 0.7732,0.99382 1.57321,1.98765 0.71754,0.93867 0.5804,0.99383 0.35878,0.55207 0.35877,1.49073 H 150.49383 m 198.76512,-79.50604 0.99381,-0.99382 v -36.77147 l -0.99381,-0.99383 h -17.88887 l -0.24845,-1.49073 -0.35877,-1.54639 -0.19381,-0.93818 -0.3856,-1.98765 -0.1938,-0.99382 -0.22063,-0.99382 -0.19379,-0.99383 -0.38561,-1.98765 -0.19379,-0.99384 -0.22064,-0.99382 -0.19378,-0.99381 -0.38561,-1.98767 -0.19379,-0.99381 -0.22063,-0.99384 -0.33095,-1.98764 -0.27629,-1.98766 -0.16596,-0.99381 -0.46909,-1.98767 -0.27628,-0.99382 -0.35877,-1.98765 0.30411,-1.98764 1.29694,-1.90517 0.91135,-0.85568 1.9598,-1.60106 0.99384,-0.82786 0.99382,-0.85567 1.98766,-1.90517 0.99382,-0.99383 1.95983,-1.98765 0.93916,-0.99383 1.68353,-1.98765 0.77321,-0.99381 1.60104,-1.98767 0.80104,-0.99381 0.7722,-0.99384 0.71852,-0.99382 1.35261,-1.98766 0.66189,-0.99382 1.27011,-1.98765 0.57939,-0.99382 1.18762,-1.98766 1.21446,-1.98764 0.55257,-0.99383 0.57941,-0.99383 1.02164,-1.98766 0.44126,-0.99381 0.52474,-0.93817 0.41442,-0.99383 0.33095,-0.55258 0.49691,-1.49072 h 2.0433 l 1.93201,-0.0278 0.99382,-0.0546 1.98765,-0.30411 0.99382,-0.22062 1.98766,-0.33095 0.99382,-0.11127 1.98765,-0.33094 0.99383,-0.22063 1.98765,-0.30411 1.98764,-0.16498 0.99384,-0.13816 1.98764,-0.38659 0.99384,-0.16596 0.99381,-0.13816 1.98766,-0.16498 0.99382,-0.13815 1.98766,-0.38661 1.98764,-0.30411 1.98766,-0.16496 0.99382,-0.13816 1.98765,-0.38661 1.98766,-0.33095 0.99382,-0.11127 1.98765,-0.33095 1.98765,-0.38658 0.99383,-0.13817 1.98764,-0.16497 1.98766,-0.30411 1.98765,-0.38661 0.99383,-0.13815 1.98766,-0.16497 0.99382,-0.13816 1.98765,-0.38661 0.99382,-0.16596 0.99382,-0.13816 1.98766,-0.16498 0.99381,-0.13815 0.99383,-0.16597 1.98766,-0.38659 0.99382,-0.13815 1.98765,-0.16498 1.98765,-0.3041 0.99383,-0.22064 1.98764,-0.33095 0.99383,-0.11126 1.98764,-0.33095 0.99384,-0.22063 1.98764,-0.30411 0.99384,-0.0546 1.98764,-0.0278 0.99384,0.0278 0.99382,0.0546 1.98766,0.30411 0.99382,0.22063 1.98765,0.30412 0.99382,0.0546 0.99382,0.0278 1.98765,-0.0278 0.99383,-0.0546 1.98765,-0.30412 1.98766,-0.38659 1.98764,-0.19281 1.98766,-0.0557 0.99382,-0.0546 1.98765,-0.30411 0.99382,-0.22062 1.98766,-0.30412 0.99382,-0.0546 1.98765,-0.0278 0.99384,-0.0278 0.99382,-0.0547 1.98765,-0.30411 0.99382,-0.22063 1.98766,-0.30411 0.99381,-0.0546 1.98766,-0.0278 0.99381,-0.0278 0.99385,-0.0547 1.98763,-0.30412 0.99384,-0.22063 1.98765,-0.3041 0.99383,-0.0547 1.98764,-0.0278 0.99384,-0.0278 0.99382,-0.0546 1.98766,-0.30412 0.99381,-0.22062 1.98766,-0.3041 0.99382,-0.0546 0.99382,-0.0278 h 1.98765 l 1.98766,-0.0824 1.93199,-0.35877 1.5464,-0.58041 1.49074,-0.96599 v -2.04331 l -0.0278,-1.93199 -0.0546,-0.99382 -0.3041,-1.98766 -0.22063,-0.99382 -0.30411,-1.98765 -0.11038,-1.98767 -0.0546,-0.99381 -0.30411,-1.98765 -0.3866,-1.98766 -0.13815,-0.99382 -0.16498,-1.98765 -0.13816,-0.99382 -0.16597,-0.99384 -0.38659,-1.98765 -0.13816,-0.99382 -0.16498,-1.98765 -0.13815,-0.99383 -0.38659,-1.98765 -0.30411,-1.98764 -0.0546,-0.99384 -0.0557,-1.98764 -0.0546,-0.99383 -0.30413,-1.98765 -0.22064,-0.99383 -0.3041,-1.98764 -0.11037,-1.98766 -0.0547,-0.99382 -0.3041,-1.98766 -0.22063,-0.99381 -0.30412,-1.98767 -0.11037,-1.98764 -0.0547,-0.99382 -0.30411,-1.98766 -0.22063,-0.99383 -0.3041,-1.98764 -0.0547,-0.99383 -0.11038,-1.98765 -0.30409,-1.98765 -0.22063,-0.99382 -0.30412,-1.98766 -0.11039,-1.98765 -0.0546,-0.99382 -0.30411,-1.98767 -0.22062,-0.99382 -0.30412,-1.98765 -0.0546,-0.99382 -0.11038,-1.98766 -0.30412,-1.98763 -0.22062,-0.99384 -0.30412,-1.93199 -0.0546,-0.99383 -0.0278,-2.0433 -0.99384,-0.99384 -2.0433,0.0824 -1.93199,0.30412 -1.98766,0.3866 -0.99382,0.13815 -1.98764,0.16499 -0.99384,0.13815 -1.98764,0.38659 -1.98766,0.30411 -1.98765,0.11037 -0.99383,0.0546 -1.98765,0.30412 -0.99382,0.22062 -1.98766,0.30412 -0.99383,0.0546 -1.98764,0.11038 -1.98765,0.30412 -1.98765,0.3866 -0.99382,0.13815 -1.98765,0.16498 -0.99383,0.13815 -0.99384,0.16597 -1.98763,0.38659 -0.99384,0.13816 -1.98765,0.11037 -0.99383,0.0547 -1.98764,0.3041 -1.98766,0.3866 -0.99382,0.13815 -1.98765,0.16496 -0.99382,0.13816 -1.98766,0.38661 -1.98763,0.30411 -1.98767,0.16498 -1.98765,0.30411 -0.99383,0.22062 -0.99381,0.16596 -1.98767,0.30312 -1.98765,0.63506 -1.98764,1.35261 -0.99384,0.85568 -1.98763,1.54639 -1.98765,0.99382 -1.98767,0.41442 -0.99382,0.0546 -1.98765,0.11037 -0.99383,0.13817 -0.99382,0.16596 -1.98765,0.38659 -0.99382,0.13816 -1.98766,0.16497 -1.98763,0.30412 -1.98766,0.38659 -0.99383,0.13815 -1.98766,0.16498 -0.99381,0.13816 -1.93201,0.3866 -0.55256,0.13815 -1.49075,0.24846 -0.49691,-1.49074 -0.3041,-0.55258 -0.80004,-1.93198 -0.77319,-1.98766 -0.44125,-0.99382 -0.41444,-0.99384 -0.966,-1.98763 -0.55255,-0.99384 -0.44127,-0.99382 -0.55258,-0.99383 -0.44125,-0.99383 -0.55256,-0.99382 -0.44126,-0.99382 -0.52473,-0.99384 -0.85568,-1.98764 -0.77322,-1.98765 -0.85567,-1.98767 -0.52473,-0.99381 -0.99385,-1.98764 -0.46908,-0.99383 -1.21445,-1.87734 -1.60104,-1.46291 -0.93917,-0.52474 -1.95982,-0.71754 -0.99384,-0.24845 -1.98764,-0.49693 -0.99383,-0.24846 -0.99382,-0.19379 -1.98766,-0.3856 -0.99383,-0.19379 -1.98764,-0.46909 -0.99383,-0.27628 -0.99382,-0.22064 -0.99384,-0.27627 -1.98763,-0.49693 -0.99384,-0.22062 -0.99383,-0.27629 -0.99381,-0.22063 -0.99384,-0.27627 -1.98763,-0.49692 -0.99385,-0.22063 -0.99382,-0.27628 -0.99382,-0.22063 -0.99383,-0.27628 -1.98765,-0.49693 -0.99384,-0.22061 -0.99381,-0.27629 -1.98766,-0.49691 -0.99381,-0.24846 -1.95983,-0.71754 -1.71137,-1.18763 -1.18762,-1.71135 -0.68972,-1.95984 -0.33193,-1.98764 -0.0546,-0.99383 -0.11037,-1.98765 -0.3041,-1.98765 -0.38662,-1.98766 -0.13815,-0.99382 -0.11038,-1.98765 -0.0546,-0.99383 -0.30411,-1.987651 -0.22063,-0.993821 -0.30411,-1.931991 -0.0546,-0.993835 -0.0278,-2.043306 -0.99383,-0.99382 h -2.04353 l -1.93201,0.02778 -0.99382,0.05466 -1.98765,0.304105 -0.99383,0.22063 -1.98765,0.30412 -1.98763,0.110376 -0.99385,0.05466 -1.98764,0.30412 -0.99383,0.22063 -1.98764,0.304107 -0.99385,0.05466 -1.98763,0.110373 -1.98765,0.304106 -0.99383,0.22063 -1.98765,0.304107 -1.98766,0.110373 -0.99382,0.05466 -1.98765,0.304106 -0.99382,0.22063 -1.98765,0.30412 -0.99384,0.05466 -1.98765,0.05572 -0.99382,0.05466 -1.98766,0.304119 -1.98764,0.386596 -0.99381,0.138155 -1.98767,0.110374 -0.99382,0.05466 -1.98765,0.304106 -0.99382,0.22063 -1.98766,0.304104 -0.99382,0.05466 -1.98765,0.05571 -0.99382,0.05466 -1.98766,0.304105 -0.99382,0.22063 -1.98765,0.304121 -0.99383,0.05466 -1.98765,0.05571 -0.99383,0.05467 -1.98766,0.30412 -1.98764,0.386591 -0.99383,0.13816 -1.98765,0.11037 -0.99383,0.0547 -1.98765,0.3041 -0.99382,0.22063 -1.98766,0.3041 -0.99382,0.0546 -1.98765,0.0557 -0.99382,0.0546 -1.98766,0.3041 -0.99383,0.22064 -1.98765,0.30412 -0.99383,0.0546 -1.98765,0.11037 -0.99382,0.13815 -1.98765,0.38661 -1.98764,0.3041 -0.99384,0.0547 -1.98763,0.0557 -0.99385,0.0546 -1.98764,0.30411 -0.99383,0.22062 -1.98765,0.30411 -0.99384,0.0546 -1.98763,0.11037 -1.98766,0.30411 -0.99382,0.22063 -1.98765,0.30412 -0.99382,0.0546 -1.98766,0.11037 -0.99383,0.13816 -1.98764,0.38661 -1.98767,0.30411 -1.98764,0.11037 -0.99383,0.0547 -1.98765,0.30411 -0.99383,0.22063 -1.98764,0.3041 -0.99383,0.0546 -1.98765,0.0557 -0.99383,0.0547 -1.98765,0.3041 -0.99381,0.22064 -1.98767,0.3041 -1.98765,0.0824 -1.98764,0.0824 -1.98765,0.33194 -1.98766,0.68972 -0.99382,0.52474 -1.98766,1.46291 -0.99381,0.91133 -1.98766,1.95983 -1.98765,1.98765 -2.98147,2.98148 -0.99384,0.99382 -1.98764,1.95982 -0.99383,0.91134 -0.99382,0.80003 -1.98766,1.18764 -1.98765,0.71752 -0.99382,0.24846 -1.98766,0.49691 -0.99382,0.27628 -0.99383,0.22063 -0.99382,0.27631 -0.99383,0.22062 -1.98765,0.49691 -0.99383,0.27628 -0.99382,0.22062 -0.99381,0.27629 -0.99385,0.22062 -0.99382,0.27629 -0.99381,0.22063 -0.99384,0.27628 -0.99382,0.22064 -1.98765,0.49692 -1.98765,0.49691 -0.99382,0.27627 -0.99384,0.22063 -0.99382,0.27628 -0.99382,0.22063 -0.99384,0.27628 -1.98763,0.49692 -0.99384,0.22063 -0.99382,0.2763 -0.99382,0.22062 -0.99383,0.27628 -0.99382,0.22062 -0.99384,0.27629 -0.99382,0.22063 -0.99383,0.27628 -1.98765,0.49691 -0.99382,0.22064 -0.99383,0.27627 -0.99383,0.22064 -0.99382,0.27629 -1.98765,0.46908 -0.99383,0.1938 -1.98765,0.38561 -0.99382,0.19378 -0.99381,0.24846 -0.99385,0.22063 -0.99382,0.27629 -1.93199,0.46908 -0.99383,0.16598 -0.55257,0.13814 -1.49075,0.0824 -0.99382,0.99384 v 2.0433 l 0.0278,1.932 0.0546,0.99382 0.30411,1.98765 0.22063,0.99382 0.30412,1.98766 0.0546,0.99382 0.0278,1.98765 0.0278,0.99382 0.0546,0.99385 0.30412,1.98763 0.22063,0.99384 0.30411,1.98765 0.0546,0.99383 0.0278,1.98764 0.0278,1.98765 0.0546,0.99383 0.3041,1.98765 0.22063,0.99382 0.30411,1.98766 0.0546,0.99383 0.0278,1.98765 0.0278,0.99382 0.0546,0.99384 0.30411,1.98764 0.22062,0.99383 0.30413,1.98764 0.0546,0.99384 0.0557,1.98763 0.19279,1.98766 0.38661,1.98765 0.30411,1.98765 0.0546,0.99382 0.0278,1.98766 0.0278,0.99382 0.0546,0.99384 0.30411,1.98764 0.22063,0.99383 0.30411,1.98764 0.0546,0.99383 0.0278,1.98766 0.0278,1.98765 0.0546,0.99382 0.30411,1.98766 0.22063,0.99382 0.30412,1.98765 0.0546,0.99382 0.0278,1.98766 0.0278,1.98765 0.0546,0.99382 0.30413,1.98766 0.22062,0.99382 0.30412,1.98765 0.0546,0.99383 0.0278,1.98766 0.0278,1.98763 0.0546,0.99384 0.30412,1.98764 0.22062,0.99384 0.30411,1.98763 0.0546,0.99385 0.0278,1.98763 0.0278,1.98765 0.0547,0.99384 0.30411,1.98765 0.22063,0.99382 0.30412,1.98765 0.0547,0.99383 0.0278,1.98765 v 0.99382 l 0.0824,1.98766 0.13816,0.99382 0.16597,0.99382 0.3866,1.98766 0.13816,0.99382 0.0824,1.98766 v 0.99381 l 0.0824,1.98766 0.35878,1.93199 0.58038,1.54639 0.966,1.49075 h 6.9568 1.98763 l 1.98765,0.0278 0.99382,0.0546 1.98766,0.30411 0.99383,0.22064 1.98765,0.3041 0.99383,0.0546 1.98765,0.0278 h 0.99382 2.98148 0.99383 l 1.98764,0.0278 0.99382,0.0546 1.98766,0.30411 1.98765,0.38659 0.99383,0.13816 1.98766,0.0824 h 1.98763 2.98148 1.98765 l 1.98767,0.0278 0.99381,0.0546 1.98766,0.30412 1.98764,0.38661 0.99384,0.13815 1.98764,0.0824 h 1.98765 2.98148 1.98765 l 1.98765,0.0278 1.98765,0.22063 0.966,0.24845 1.79485,0.99383 0.82785,0.74536 1.60107,1.76703 0.85568,0.96599 1.90517,1.98767 1.87732,1.98765 0.74537,0.99382 0.55157,0.99381 0.30412,1.98767 -0.30412,1.98765 -0.19279,0.99382 -0.38661,1.98766 -0.22062,0.99383 -0.38661,1.98763 -0.38659,1.98766 -0.22063,0.99382 -0.19379,0.99383 -0.38561,1.98764 -0.1938,0.99384 -0.22063,0.99382 -0.1938,0.99383 -0.38559,1.98765 -0.1938,0.99382 -0.22064,0.99383 -0.19378,0.99383 -0.38562,1.98765 -0.19378,0.99382 -0.22064,0.99383 -0.3041,1.932 -0.0546,0.99382 -0.0278,2.04331 -0.99382,0.99381 h -15.90121 l -0.99383,0.99384 v 36.77154 l 0.99383,0.99383 h 7.95061 7.9506 4.96912 2.98148 3.97529 28.82096 5.96294 102.36403 m -162.98745,-2.98086 v -2.04332 -30.75293 h 3.03714 3.91964 1.98766 0.99381 l 1.98767,-0.0278 0.99381,-0.0824 1.95984,-0.60722 0.91133,-0.60723 0.7732,-0.77318 1.02066,-1.87736 0.49691,-1.98764 0.1938,-0.99383 0.22062,-0.99382 0.19379,-0.99384 0.38561,-1.98764 0.1938,-0.99383 0.22063,-0.99382 0.3866,-1.98766 0.3866,-1.98763 0.22063,-0.99384 0.19379,-0.99382 0.38561,-1.98766 0.19379,-0.99383 0.22063,-0.99381 0.19379,-0.99384 0.38561,-1.98764 0.19379,-0.99384 0.22063,-0.99382 0.3866,-1.98763 0.38661,-1.98766 0.22062,-0.99382 0.30412,-1.98765 -0.0278,-1.98766 -0.22064,-0.99383 -0.3866,-0.99382 -0.60722,-0.99383 -1.68454,-1.98765 -0.96599,-0.99383 -1.90517,-1.98764 -1.68355,-1.95984 -0.77318,-0.93917 -1.68354,-1.57321 -1.90517,-0.99382 -1.98766,-0.41444 -1.98764,-0.0824 h -0.99383 -1.98765 -2.98147 -1.98766 l -0.99382,-0.0278 -0.99384,-0.0547 -1.98763,-0.30412 -0.99385,-0.22062 -1.98763,-0.30412 -0.99383,-0.0547 -1.98766,-0.0278 h -0.99382 -2.98148 -1.98765 l -1.98765,-0.0278 -0.99382,-0.0546 -1.98766,-0.30411 -0.99382,-0.22062 -1.98765,-0.30411 -0.99382,-0.0546 -1.98766,-0.0278 h -0.99382 -3.9753 l -1.98765,-0.0278 -0.99382,-0.0546 -1.98766,-0.30411 -0.99382,-0.22062 -1.98765,-0.30411 -0.99383,-0.0546 -1.98766,-0.0278 h -1.98764 -2.98149 -3.97529 l -0.5794,-2.04331 -0.1938,-0.99384 -0.13815,-0.93816 -0.0824,-1.98764 -0.0278,-1.98766 -0.0546,-0.99382 -0.30411,-1.98765 -0.22061,-0.99384 -0.30413,-1.98764 -0.0546,-0.99383 -0.0278,-1.98765 -0.0278,-1.98766 -0.0546,-0.99382 -0.3041,-1.98765 -0.22063,-0.99383 -0.30411,-1.98763 -0.0546,-0.99384 -0.0278,-1.98765 -0.0278,-1.98765 -0.0546,-0.99382 -0.3041,-1.98766 -0.22064,-0.99382 -0.30409,-1.98765 -0.0547,-0.99382 -0.0278,-1.98766 -0.0278,-1.98765 -0.0546,-0.99382 -0.30412,-1.98766 -0.22062,-0.99382 -0.30411,-1.98765 -0.0546,-0.99383 -0.0278,-1.98766 -0.0278,-1.98764 -0.0546,-0.99383 -0.30413,-1.98765 -0.22063,-0.99383 -0.3041,-1.98764 -0.0546,-0.99383 -0.0278,-1.98765 -0.0278,-1.98765 -0.0546,-0.99382 -0.30411,-1.98767 -0.22063,-0.99381 -0.30411,-1.98766 -0.0546,-0.99382 -0.0278,-0.99384 -0.0278,-1.98763 -0.0546,-0.99384 -0.3041,-1.98764 -0.22064,-0.99383 -0.30412,-1.98765 -0.0546,-0.99382 -0.0557,-1.98766 -0.0546,-0.99382 -0.30411,-1.98765 -0.22063,-0.99383 -0.3041,-1.98765 -0.0547,-0.99382 -0.0278,-0.99383 -0.0278,-1.98765 -0.0546,-0.99383 -0.30412,-1.98765 -0.22062,-0.99382 -0.3041,-1.98765 -0.0546,-0.99384 -0.0278,-1.98763 -0.0278,-1.98767 -0.0546,-0.99381 -0.30412,-1.98766 -0.22062,-0.99383 -0.30412,-1.98766 -0.0546,-0.99381 -0.0278,-1.98766 -0.0278,-0.99382 -0.0546,-0.99384 -0.30412,-1.98763 -0.22063,-0.93818 -0.16596,-0.99384 -0.13815,-0.55255 -0.0824,-1.49075 1.49073,-0.0824 0.55257,-0.13816 0.99382,-0.16597 1.932,-0.46909 0.99383,-0.27628 0.99381,-0.22063 0.99384,-0.24846 0.99382,-0.19379 1.98766,-0.3856 0.99382,-0.19379 1.98765,-0.46908 0.99382,-0.27631 0.99383,-0.22062 0.99383,-0.27629 0.99382,-0.22063 1.98766,-0.49691 0.99382,-0.27628 0.99382,-0.22063 0.99384,-0.27627 0.99381,-0.22064 0.99382,-0.27627 1.98766,-0.49693 0.99382,-0.22063 0.99384,-0.27629 0.99381,-0.22062 0.99383,-0.27629 0.99384,-0.22062 0.99382,-0.27629 0.99382,-0.22062 0.99383,-0.27628 1.98765,-0.49691 0.99381,-0.22063 0.99384,-0.2763 0.99382,-0.22063 0.99381,-0.27628 0.99385,-0.22063 0.99382,-0.27628 1.98765,-0.49691 0.99382,-0.22064 0.99382,-0.27626 0.99384,-0.22064 0.99383,-0.27627 0.99381,-0.22064 0.99384,-0.2763 0.99381,-0.22063 0.99383,-0.27628 1.98765,-0.49691 0.99382,-0.24845 1.98766,-0.71754 1.98766,-1.18762 0.99381,-0.80004 0.99383,-0.91133 1.98765,-1.95983 0.99383,-0.99383 2.98147,-2.98147 1.98766,-1.98766 1.98765,-1.9598 0.99382,-0.91135 1.98766,-1.46291 0.99382,-0.52474 1.98765,-0.68971 1.98766,-0.33195 1.98765,-0.0824 1.98764,-0.0824 1.98766,-0.30411 0.99381,-0.22062 1.98765,-0.30411 0.99383,-0.0546 1.98765,-0.0557 0.99382,-0.0546 1.98766,-0.30411 1.98766,-0.3866 0.99382,-0.13815 1.98766,-0.11038 0.99382,-0.0546 1.98766,-0.30412 0.99381,-0.22062 1.98766,-0.30411 1.98764,-0.11038 0.99383,-0.0546 1.98766,-0.3041 0.99382,-0.22064 1.98765,-0.3041 0.99382,-0.0546 1.98766,-0.11037 1.98765,-0.3041 0.99382,-0.22063 1.98766,-0.3041 0.99382,-0.0547 1.98765,-0.0557 0.99381,-0.0546 1.98767,-0.30411 0.99382,-0.22063 1.98766,-0.30412 0.99382,-0.0546 1.98766,-0.11022 0.99381,-0.13817 1.98766,-0.38658 1.98766,-0.30411 0.99382,-0.0546 1.98765,-0.0557 0.99382,-0.0546 1.98766,-0.30411 0.99381,-0.22063 1.98767,-0.3041 0.99382,-0.0546 1.98766,-0.11038 0.99381,-0.13815 1.98767,-0.3866 1.98763,-0.30412 0.99384,-0.0546 1.98764,-0.0557 0.99383,-0.0546 1.98764,-0.30411 0.99383,-0.22064 1.98766,-0.3041 0.99382,-0.0547 1.98765,-0.0557 0.99384,-0.0546 1.98764,-0.3041 1.98765,-0.3866 0.99383,-0.13816 1.98765,-0.11037 0.99382,-0.0547 1.98765,-0.304109 0.99383,-0.22063 1.98765,-0.30412 0.99382,-0.05466 1.98767,-0.05571 0.99381,-0.05466 1.98766,-0.304119 0.99381,-0.220631 1.98767,-0.304105 1.98763,-0.110374 0.99384,-0.05466 1.98765,-0.304106 0.99382,-0.22063 1.98765,-0.304105 0.99383,-0.05466 1.98765,-0.110375 1.98765,-0.304104 0.99382,-0.220631 1.98766,-0.30412 0.99382,-0.05466 1.98765,-0.110375 1.98766,-0.304121 0.93817,-0.22063 0.99382,-0.165965 0.55256,-0.138155 1.49075,-0.08244 0.0278,2.043306 0.0547,0.993822 0.30409,1.931997 0.22064,0.99382 0.30412,1.98766 0.0546,0.99382 0.11037,1.98765 0.13815,0.99383 0.3866,1.98765 0.30411,1.98764 0.11037,1.98766 0.0546,0.99382 0.33194,1.98765 0.68971,1.98766 1.18762,1.87733 0.80003,0.80003 1.87734,1.18762 1.98765,0.71754 0.99382,0.24845 1.98766,0.49691 0.99382,0.27631 1.98765,0.49691 0.99382,0.22063 1.98765,0.49691 0.99384,0.27627 0.99382,0.22063 0.99381,0.27628 0.99385,0.22064 0.99382,0.27627 1.98765,0.49692 0.99382,0.22063 0.99382,0.2763 0.99384,0.22062 0.99381,0.27628 0.99383,0.22062 0.99383,0.27629 1.98765,0.46909 0.99384,0.19378 1.98763,0.38562 0.99384,0.19379 0.99382,0.24846 1.98766,0.49692 1.95981,0.5794 0.93917,0.38659 1.60105,1.18763 1.21447,1.71137 1.02164,1.95981 0.44126,0.99383 0.52474,0.99382 0.85567,1.98767 0.77322,1.98763 0.44126,0.99384 0.41441,0.99382 0.52474,0.99382 0.99383,1.98765 0.44126,0.99382 0.55256,0.99384 0.44126,0.99382 0.55257,0.99382 0.96598,1.98765 0.41445,0.99383 0.44126,0.99383 0.80101,1.98765 1.0763,1.95982 1.57325,1.68455 0.93915,0.60722 1.95983,0.57941 0.99382,0.0278 1.98766,-0.27629 0.99382,-0.22062 1.98766,-0.30412 1.98764,-0.16498 0.99384,-0.13816 1.98763,-0.38659 1.98766,-0.30412 1.98766,-0.16498 0.99381,-0.13815 1.98766,-0.38659 0.99383,-0.16597 0.99382,-0.13815 1.98765,-0.11037 0.99383,-0.0547 1.98765,-0.41442 0.99382,-0.44125 0.99381,-0.55257 1.98767,-1.54639 0.99381,-0.85569 1.98766,-1.3526 0.99382,-0.3866 1.98767,-0.38659 0.99381,-0.16497 1.98765,-0.38661 1.98767,-0.30411 1.98763,-0.16497 1.98766,-0.30411 1.98766,-0.38661 0.99381,-0.13815 1.98766,-0.16496 0.99382,-0.13817 1.98766,-0.38658 1.98764,-0.30412 0.99384,-0.0546 1.98764,-0.11039 1.98765,-0.3041 1.98764,-0.38659 0.99384,-0.13815 1.98764,-0.16498 0.99383,-0.13816 0.99384,-0.16596 1.98765,-0.38661 0.99382,-0.13816 1.98766,-0.11037 0.99382,-0.0547 1.98765,-0.30412 0.99381,-0.22063 1.98767,-0.3041 0.99381,-0.0547 1.98766,-0.11036 1.98765,-0.30411 0.99383,-0.22063 1.98764,-0.30412 0.99384,-0.0546 1.93199,-0.0278 h 2.04324 l 0.0278,1.49074 0.19282,1.5464 0.38659,1.93199 0.3041,1.98765 0.11037,1.98766 0.0546,0.99382 0.3041,1.98766 0.22064,0.99383 0.3041,1.98765 0.0546,0.99382 0.11037,1.98765 0.3041,1.98764 0.22063,0.99384 0.30412,1.98764 0.11038,1.98767 0.0546,0.99381 0.30411,1.98766 0.22062,0.99382 0.30412,1.98765 0.11036,1.98766 0.0546,0.99382 0.30413,1.98766 0.22062,0.99381 0.30411,1.98766 0.0546,0.99382 0.11038,1.98765 0.3041,1.98765 0.22064,0.99383 0.30411,1.98765 0.0546,0.99382 0.0557,1.98766 0.0546,0.99381 0.3041,1.98766 0.22063,0.99382 0.30411,1.98767 0.16498,1.98764 0.13815,0.99383 0.3866,1.98766 0.30411,1.98763 0.16498,1.98766 0.13815,0.99382 0.38659,1.98765 0.30413,1.98766 0.0546,0.99382 0.11037,1.98766 0.30411,1.98764 0.22063,0.93818 0.16596,0.99382 0.13816,0.55257 0.0824,1.49075 -2.0433,0.57939 -0.99382,0.1938 -0.93817,0.13815 -1.98766,0.0824 h -0.99381 l -1.98767,0.0278 -0.99382,0.0547 -1.98765,0.30411 -0.99382,0.22063 -1.98767,0.3041 -0.99381,0.0547 -0.99382,0.0278 -1.98766,0.0278 -0.99382,0.0546 -1.98765,0.30411 -0.99382,0.22063 -1.98766,0.30412 -0.99383,0.0546 -1.98765,0.0278 -0.99382,0.0278 -0.99384,0.0546 -1.98764,0.30413 -0.99383,0.22062 -1.98765,0.30411 -0.99383,0.0546 -1.98763,0.0278 -0.99384,0.0278 -0.99383,0.0546 -1.98765,0.30411 -0.99382,0.22062 -1.98764,0.30411 -0.99385,0.0546 -1.98763,0.0557 -0.99384,0.0547 -1.98764,0.3041 -0.99384,0.22063 -1.98763,0.2763 h -0.99383 l -1.98766,-0.2763 -1.98765,-0.46909 -0.99382,-0.27628 -1.98766,-0.38659 h -1.98765 l -0.99382,0.16596 -1.98766,0.27628 -1.98764,0.16499 -0.99383,0.13814 -1.98765,0.38661 -1.98765,0.33094 -0.99382,0.11126 -1.98767,0.33096 -1.98765,0.38659 -0.99382,0.13815 -1.98765,0.16498 -0.99383,0.13816 -0.99381,0.16596 -1.98766,0.38659 -0.99381,0.13816 -1.98767,0.16498 -0.99381,0.13815 -1.98765,0.38661 -1.98766,0.30411 -1.98765,0.16497 -0.99382,0.13816 -1.98766,0.3866 -0.99382,0.16598 -0.99381,0.13815 -1.98766,0.16497 -0.99383,0.13816 -1.98766,0.3866 -1.98764,0.33093 -0.99383,0.11128 -1.98766,0.33095 -0.99381,0.22063 -1.98767,0.30411 -1.98763,0.16497 -0.99384,0.13816 -0.99381,0.16597 -1.98767,0.3866 -0.99381,0.13815 -1.98766,0.16499 -1.98765,0.30411 -1.98765,0.38658 -0.99382,0.13816 -1.98766,0.16498 -0.99382,0.13815 -1.98765,0.3866 -1.98766,0.33095 -0.99382,0.11127 -1.98765,0.33094 -0.99382,0.22063 -1.98766,0.30411 -1.98765,0.19281 -0.99383,0.22062 -1.90515,0.99382 -1.60107,1.68454 -0.60721,0.966 -0.60723,0.99382 -0.46909,0.99383 -0.55258,0.99383 -0.46908,0.99382 -0.57939,0.99383 -0.55257,0.99382 -1.21445,1.98766 -1.18763,1.98764 -0.5794,0.99383 -0.63504,0.99382 -0.63507,0.99382 -1.32477,1.98766 -1.40824,1.98765 -0.77221,0.99383 -0.80103,0.99382 -1.60105,1.98766 -0.77319,0.99381 -1.68354,1.98767 -1.90516,1.98765 -1.98765,1.95981 -0.99383,0.93917 -1.98765,1.68354 -1.98766,1.60107 -0.96599,0.85568 -0.91135,0.93914 -1.38041,1.95984 -0.60722,1.98766 -0.0278,1.98764 0.13815,0.99384 0.41442,1.98763 0.22062,0.99382 0.49692,1.98766 0.24845,0.99382 0.33095,1.98766 0.11127,0.99382 0.33095,1.98766 0.22062,0.99381 0.19379,0.99384 0.38562,1.98764 0.19379,0.99384 0.22063,0.99382 0.38659,1.98765 0.38661,1.98764 0.22063,0.99384 0.3866,1.98764 0.46908,1.98766 0.71754,1.93199 0.30411,0.55258 0.49691,1.49072 h 17.88894 v 32.79631 h -160.9994 m 117.27142,-76.52457 1.49073,-0.27626 1.54639,-0.63508 0.93818,-0.49691 0.99382,-0.60722 1.98765,-1.35259 0.99382,-0.74537 1.98766,-1.49074 0.99383,-0.74537 1.98765,-1.68355 1.98764,-1.90515 0.99384,-0.99384 1.98763,-1.98764 1.98766,-1.98766 0.966,-0.99382 0.93917,-0.99384 1.68354,-1.98763 0.74535,-0.99385 1.49076,-1.98763 0.74536,-0.99384 0.69072,-0.99381 1.29694,-1.98766 1.13196,-1.98764 1.02165,-1.98766 0.44126,-0.99383 0.55256,-0.99382 0.96601,-1.98765 0.41443,-0.99382 0.44125,-0.99384 0.7732,-1.98763 0.41442,-0.99384 0.38561,-0.99382 0.8835,-1.98766 0.55258,-0.966 1.46291,-1.68453 1.87733,-0.99382 1.98765,-0.33095 1.98765,-0.22062 1.98766,-0.3866 1.98765,-0.30411 1.98765,-0.16498 0.99382,-0.13815 0.99384,-0.16598 1.98763,-0.3866 0.99384,-0.13816 1.98764,-0.16497 0.99384,-0.13817 1.98764,-0.38658 1.98766,-0.33094 0.99382,-0.11128 1.98766,-0.33095 1.98764,-0.38659 0.99383,-0.13815 1.98764,-0.16498 0.99383,-0.13814 1.98765,-0.38661 1.98765,-0.33094 0.99383,-0.11126 1.98766,-0.33095 1.98765,-0.38659 0.99382,-0.13816 1.98766,-0.16498 1.98764,-0.30411 1.98765,-0.38659 0.99382,-0.13816 1.98766,-0.16496 0.99381,-0.13815 1.98766,-0.38661 1.98766,-0.33094 0.99383,-0.11127 1.98765,-0.33094 1.98764,-0.3866 0.99384,-0.13815 1.98763,-0.16499 0.99385,-0.13814 0.99381,-0.16597 1.98766,-0.3866 0.99381,-0.13815 1.98767,-0.16497 0.99381,-0.13815 1.98765,-0.38661 1.98766,-0.30411 1.98763,-0.16498 1.98766,-0.3041 1.98766,-0.38659 0.99382,-0.13817 1.98765,-0.16497 1.98765,-0.30411 0.99384,-0.22062 1.98763,-0.33095 0.99384,-0.11128 1.98764,-0.3031 0.99384,-0.16598 1.98763,0.0278 1.98766,0.49692 1.98766,0.57941 0.99381,0.19379 0.99384,0.13815 1.98765,0.0546 0.99382,-0.0546 1.98765,-0.3041 0.99383,-0.22063 1.98765,-0.30411 0.99382,-0.0546 1.98766,-0.0278 0.99382,-0.0278 0.99383,-0.0546 1.98765,-0.30413 1.98766,-0.38659 0.99381,-0.13815 1.98766,-0.0824 1.98766,-0.0278 0.99382,-0.0547 1.98765,-0.3041 0.99382,-0.22064 1.98764,-0.30409 0.99384,-0.0546 1.98764,-0.0557 0.99384,-0.0824 1.87732,-0.60722 0.7732,-0.60723 0.99383,-1.68453 0.22063,-1.95983 -0.27628,-1.98765 -0.22063,-0.99383 -0.3041,-1.98764 -0.0824,-0.99384 -0.22062,-1.98763 -0.3866,-1.98766 -0.30413,-1.98766 -0.0546,-0.99383 -0.11037,-1.98765 -0.13816,-0.99383 -0.38659,-1.98765 -0.3041,-1.98763 -0.11038,-1.98767 -0.0546,-0.99381 -0.30412,-1.98765 -0.22063,-0.99382 -0.3041,-1.98766 -0.0546,-0.99383 -0.11039,-1.98765 -0.13815,-0.99383 -0.3866,-1.98765 -0.16596,-0.99382 -0.30311,-1.98766 -0.63506,-1.87733 -1.38043,-1.38043 -0.91133,-0.38658 -1.95982,-0.30313 -0.99384,-0.0278 -1.98765,0.0824 -1.98765,0.30411 -0.99383,0.22062 -1.98765,0.30411 -1.98764,0.16497 -0.99384,0.13817 -1.98764,0.38658 -1.98765,0.30413 -1.98766,0.16496 -0.99383,0.13816 -1.98764,0.3866 -1.98765,0.3041 -1.98766,0.16498 -1.98763,0.3041 -0.99385,0.22063 -1.98763,0.41442 -0.99384,0.2763 -1.98765,1.02066 -0.99382,0.74537 -1.98765,1.57421 -0.99383,0.63506 -1.98765,0.80003 -0.99383,0.24844 -0.99382,0.24847 -1.98765,0.3041 -1.98765,0.16498 -1.98765,0.3041 -1.98766,0.38661 -0.99382,0.13816 -1.98765,0.16497 -0.99383,0.13815 -1.98766,0.3866 -0.99382,0.16596 -0.99381,0.13816 -1.98766,0.16497 -0.99382,0.13817 -1.98766,0.38658 -1.98764,0.30412 -0.99384,0.0546 -1.98764,0.11037 -1.98765,0.30411 -0.99383,0.22064 -1.98765,0.30411 -0.99382,0.0546 -1.98766,0.0557 -0.99382,0.0547 -1.98765,0.30412 -0.99382,0.22063 -1.98766,0.30411 -0.93817,0.0547 -0.99382,0.0278 h -2.04331 l -0.49691,-1.49076 -0.33094,-0.55255 -0.41442,-0.99382 -0.52475,-0.93817 -0.44126,-0.99384 -0.99383,-1.98765 -0.55256,-0.99383 -0.96601,-1.98764 -0.41442,-0.99383 -0.44126,-0.99383 -0.77319,-1.98765 -0.44126,-0.99382 -0.41441,-0.99382 -0.96603,-1.98766 -0.55255,-0.99382 -0.44126,-0.99383 -0.99382,-1.98765 -0.55258,-0.99384 -0.44126,-0.99382 -0.52472,-0.99382 -0.85569,-1.98766 -0.3866,-0.99381 -0.38661,-0.99384 -0.8835,-1.98764 -1.18662,-1.87734 -0.7732,-0.80003 -0.82785,-0.66288 -1.90517,-0.91135 -0.99383,-0.30312 -0.99382,-0.22162 -1.98766,-0.3856 -0.99382,-0.19379 -1.98765,-0.46909 -0.99383,-0.27628 -0.99383,-0.22063 -0.99382,-0.27628 -0.99383,-0.22063 -1.98765,-0.49691 -0.99383,-0.27629 -0.99382,-0.22063 -0.99383,-0.27628 -0.99382,-0.22064 -0.99382,-0.27627 -0.99384,-0.22064 -0.99382,-0.27627 -0.99381,-0.22064 -0.99382,-0.27627 -0.99384,-0.22063 -1.98765,-0.49693 -0.99383,-0.27628 -0.99382,-0.22063 -0.99382,-0.27628 -0.99384,-0.22063 -0.99382,-0.27628 -0.99382,-0.22063 -0.99384,-0.27629 -0.99381,-0.22062 -0.99382,-0.27628 -0.99385,-0.22063 -0.99381,-0.27629 -1.98765,-0.46909 -1.932,-0.30411 -2.0433,-0.0824 -0.0824,-1.49072 -0.13816,-0.55258 -0.16597,-0.99382 -0.22062,-0.93818 -0.30412,-1.98765 -0.0546,-0.99382 -0.0557,-1.98767 -0.0546,-0.99381 -0.30412,-1.98765 -0.38659,-1.98765 -0.13816,-0.99383 -0.19281,-1.98764 -0.22062,-0.96601 -0.3866,-0.91134 -0.60722,-0.77318 -0.77321,-0.60724 -1.87732,-0.57941 -0.99384,-0.0278 -1.98765,0.27629 -0.99383,0.22062 -1.98764,0.30413 -0.99384,0.0546 -0.99382,0.0278 -1.98765,0.0824 -0.99382,0.13816 -0.99382,0.16596 -1.98766,0.38659 -0.99382,0.13816 -1.98765,0.11037 -0.99383,0.0546 -1.98765,0.3041 -0.99383,0.22063 -1.98765,0.3041 -0.99383,0.0547 -1.98765,0.0557 -0.99381,0.0546 -1.98767,0.30411 -0.99381,0.22063 -1.98766,0.30412 -0.99381,0.0546 -1.98767,0.11038 -1.98764,0.30412 -1.98765,0.38659 -0.99383,0.13816 -1.98765,0.11037 -0.99382,0.0546 -1.98766,0.30411 -0.99382,0.22063 -1.98765,0.30411 -0.99382,0.0546 -1.98766,0.0557 -0.99383,0.0546 -1.98765,0.30411 -0.99383,0.22062 -1.98765,0.30413 -0.99382,0.0546 -1.98765,0.11038 -0.99383,0.13815 -1.98765,0.3866 -1.98765,0.3041 -0.99383,0.0546 -1.98764,0.11039 -0.99383,0.13815 -1.98765,0.3866 -1.98765,0.3041 -0.99382,0.0547 -1.98765,0.0557 -0.99383,0.0546 -1.98765,0.3041 -0.99382,0.22064 -1.98766,0.30412 -0.99383,0.0546 -1.98765,0.0557 -0.99382,0.0546 -1.98766,0.30411 -0.99382,0.22063 -1.98765,0.30411 -0.99383,0.0546 -1.98765,0.0557 -0.99382,0.0546 -1.98765,0.30412 -1.98766,0.38658 -0.99382,0.13817 -1.98765,0.11037 -0.99384,0.0546 -1.98765,0.3041 -1.98763,0.38662 -0.99385,0.13815 -1.98763,0.11037 -0.99384,0.0546 -1.98763,0.41442 -1.98767,0.99383 -1.98764,1.57322 -1.98766,1.90517 -1.98765,1.98766 -2.98148,2.98147 -0.99382,0.99382 -1.98765,1.95984 -0.99382,0.91133 -1.98766,1.40826 -1.98765,0.80002 -1.98765,0.52474 -0.99383,0.22062 -0.99383,0.27629 -1.98763,0.49691 -0.99384,0.22062 -0.99383,0.2763 -0.99381,0.22062 -0.99384,0.27629 -0.99382,0.22063 -0.99381,0.27628 -0.99385,0.22063 -0.99382,0.27628 -0.99381,0.22063 -1.98766,0.49692 -0.99383,0.27627 -0.99383,0.22064 -0.99382,0.27628 -0.99382,0.22062 -0.99384,0.2763 -0.99381,0.22062 -0.99383,0.27629 -0.99384,0.22063 -0.99381,0.27628 -0.99382,0.22063 -0.99384,0.27628 -0.99382,0.22063 -1.98765,0.49691 -0.99382,0.27629 -0.99382,0.22062 -0.99384,0.27629 -0.99382,0.22064 -0.99383,0.27627 -1.98765,0.49691 -0.99382,0.22064 -0.99382,0.27627 -1.98766,0.49692 -0.99381,0.24845 -1.87734,0.80003 -1.38044,1.40826 -0.38659,0.91133 -0.22064,0.96601 -0.11037,1.98764 v 1.98766 0.99382 l 0.0824,1.98765 0.13816,0.99383 0.16597,0.99383 0.38661,1.98764 0.13815,0.99383 0.0824,1.98765 v 0.99383 1.98764 l 0.0278,0.99383 0.0546,0.99383 0.30412,1.98765 0.22063,0.99383 0.30409,1.98766 0.0546,0.99382 0.0278,1.98765 0.0278,1.98764 0.0546,0.99382 0.30411,1.98765 0.22063,0.99382 0.3041,1.98766 0.0546,0.99383 0.0278,1.98765 0.0278,0.99382 0.0546,0.99384 0.30411,1.98764 0.22063,0.99383 0.30413,1.98765 0.0546,0.99383 0.0278,1.98764 0.0278,0.99383 0.0546,0.99383 0.30412,1.98765 0.22063,0.99382 0.30411,1.98765 0.0546,0.99384 0.0278,1.98765 0.0278,0.99382 0.0547,0.99381 0.3041,1.98767 0.22064,0.99381 0.3041,1.98766 0.0547,0.99382 0.0278,1.98766 v 0.99382 l 0.0824,1.98767 0.3041,1.98765 0.22064,0.99381 0.30412,1.98766 0.0546,0.99382 0.0278,1.98766 0.0824,1.98763 0.13814,0.99383 0.1938,0.99383 0.68971,1.95982 0.52474,0.91135 0.66289,0.77319 0.80003,0.60722 0.91133,0.38661 0.966,0.22061 1.98765,0.11038 h 0.99382 1.98766 0.99382 l 1.98765,0.0824 0.99383,0.13816 1.98765,0.38661 1.98765,0.30412 0.99382,0.0546 1.98766,0.0278 h 0.99382 2.98149 0.99382 l 1.98765,0.0278 0.99382,0.0546 1.98766,0.30412 0.99382,0.22062 1.98765,0.30412 0.99382,0.0546 1.98766,0.0278 h 2.98147 0.99383 l 1.98766,0.0278 0.99381,0.0547 1.98767,0.30411 0.99381,0.22063 1.98766,0.30412 0.99381,0.0546 1.98767,0.0278 h 1.98764 0.99383 l 1.98765,0.11038 0.99383,0.22063 0.99382,0.38661 1.90517,1.38041 1.68353,1.87735 0.7732,0.99382 1.68355,1.98766 0.93915,0.99382 0.966,0.99381 1.98765,1.98767 1.98765,1.95982 0.99383,0.93916 1.98766,1.68353 1.98763,1.51858 0.99384,0.68972 0.93818,0.69071 0.99381,0.55155 0.55258,0.38662 1.49072,0.52473 -0.0824,1.49074 -0.13816,0.55257 -0.16597,0.99382 -0.46909,1.93201 -0.27627,0.99381 -0.22064,0.99383 -0.24845,0.99383 -0.19381,0.99382 -0.38559,1.98765 -0.1938,0.99383 -0.22064,0.99383 -0.19379,0.99382 -0.38561,1.98765 -0.19378,0.99382 -0.22064,0.99384 -0.33095,1.98763 -0.11126,0.99384 -0.33093,1.98764 -0.41444,1.98766 -0.38558,1.98765 -0.19382,0.99382 -0.22062,0.99383 -0.1938,0.99383 -0.38561,1.98764 -0.19379,0.99384 -0.22062,0.99382 -0.33095,1.98766 -0.11127,0.99381 -0.33093,1.98767 -0.24848,0.99381 -0.49691,1.98766 -0.22063,0.99381 -0.24846,0.99384 -0.33094,1.98764 -0.11127,0.99383 -0.33093,1.98766 -0.24846,0.99382 -0.22064,0.99383 -0.27627,0.99382 -0.22064,0.99382 -0.24845,0.99383 -0.30413,1.98765 -0.0546,0.99383 -0.0278,1.93199 v 0.99382 2.04332 l 0.99383,0.99382 h 71.55591 10.93209 3.97528 1.98766 0.99383 l 1.98765,-0.11037 1.87734,-0.60723 0.7732,-0.60724 0.5794,-0.77318 0.41442,-1.87735 -0.0835,-0.99382 -0.19279,-0.99382 -0.1938,-0.99383 -0.19281,-0.99382 -0.38659,-1.98766 -0.22063,-0.99382 -0.19379,-0.99382 -0.38561,-1.98766 -0.19379,-0.99382 -0.22064,-0.99383 -0.38658,-1.98764 -0.38661,-1.98767 -0.22064,-0.99381 -0.19379,-0.99384 -0.38561,-1.98763 -0.19378,-0.99385 -0.22064,-0.99382 -0.19378,-0.99381 -0.38561,-1.98765 -0.19381,-0.99383 -0.22062,-0.99384 -0.1938,-0.99382 -0.3856,-1.98766 -0.1938,-0.99381 -0.22063,-0.99383 -0.19379,-0.99384 -0.38562,-1.98763 -0.19379,-0.99384 -0.22063,-0.99382 -0.19379,-0.99382 -0.3856,-1.98765 -0.41443,-1.98765 -0.1938,-0.99383 -0.38559,-1.98764 -0.19381,-0.99384 -0.22061,-0.99382 -0.33095,-1.98766 -0.27629,-1.98763 -0.3866,-1.93202 -0.16596,-0.99381 -0.13817,-0.55258 -0.0824,-1.49073 m -82.48754,56.64806 0.0278,-1.49075 0.19279,-1.54639 0.16598,-0.93817 0.46908,-1.98765 0.27629,-0.99383 0.22062,-0.99382 0.24846,-0.99382 0.33095,-1.98766 0.11127,-0.99382 0.33095,-1.98766 0.24845,-0.99381 0.22063,-0.99384 0.49692,-1.98764 0.24845,-0.99384 0.33094,-1.98763 0.11127,-0.99385 0.33094,-1.98763 0.41443,-1.98765 0.38561,-1.98767 0.19379,-0.99382 0.22063,-0.99382 0.1938,-0.99384 0.38559,-1.98764 0.19381,-0.99384 0.22064,-0.99381 0.33092,-1.98766 0.11128,-0.99382 0.33094,-1.98766 0.41442,-1.98763 0.38561,-1.98766 0.19379,-0.99383 0.22062,-0.99381 0.19381,-0.99384 0.3856,-1.98764 0.19381,-0.99384 0.46908,-1.98763 0.27628,-0.99384 0.22062,-0.99383 0.41443,-1.98765 0.16499,-1.98764 -0.0547,-0.99384 -0.60722,-1.95981 -1.38043,-1.79485 -0.91133,-0.82787 -1.95983,-1.51856 -0.99383,-0.71755 -1.98765,-1.51856 -1.98764,-1.68354 -1.98766,-1.90517 -0.99382,-0.99381 -0.99383,-0.99382 -1.90515,-1.98766 -1.68356,-1.98766 -0.77319,-0.99382 -1.68354,-1.95982 -0.93916,-0.91134 -1.95983,-1.38042 -1.98765,-0.60724 -1.98766,-0.11037 h -0.99382 -1.98765 l -1.98764,-0.0278 -0.99384,-0.0546 -1.98763,-0.30413 -0.99384,-0.22063 -1.98765,-0.3041 -0.99383,-0.0546 -1.98764,-0.0278 h -0.99384 -1.98764 -0.99384 l -1.98763,-0.0278 -0.99385,-0.0547 -1.98763,-0.3041 -0.99383,-0.22064 -1.98766,-0.3041 -0.99382,-0.0547 -1.98765,-0.0278 h -0.99382 -2.98149 -0.99382 l -1.98765,-0.0278 -0.99383,-0.0546 -1.98765,-0.3041 -0.99382,-0.22063 -1.98766,-0.30412 -0.99382,-0.0546 -0.99382,-0.0278 h -1.98766 -5.96295 l -0.80101,-1.49073 -0.16498,-0.55257 -0.35878,-0.99382 -0.24845,-0.93818 -0.33195,-1.98764 -0.0546,-0.99383 -0.0278,-0.99383 -0.0278,-1.98766 -0.0546,-0.99382 -0.30413,-1.98765 -0.22062,-0.99382 -0.3041,-1.98766 -0.0546,-0.99382 -0.0278,-1.98765 -0.0278,-1.98764 -0.0546,-0.99384 -0.3041,-1.98764 -0.22064,-0.99384 -0.3041,-1.98764 -0.0546,-0.99384 -0.0278,-0.99381 -0.0278,-1.98767 -0.0546,-0.99381 -0.3041,-1.98766 -0.22064,-0.99381 -0.30412,-1.98766 -0.0547,-0.99382 -0.0278,-0.99383 -0.0278,-1.98765 -0.0546,-0.99383 -0.30411,-1.98765 -0.22064,-0.99382 -0.30411,-1.98766 -0.0546,-0.99382 -0.0278,-0.99383 -0.0278,-1.98765 -0.0546,-0.99383 -0.30411,-1.98764 -0.22063,-0.99383 -0.30411,-1.98765 -0.0546,-0.99382 -0.0278,-1.98765 -0.0278,-1.98767 -0.0547,-0.99381 -0.3041,-1.98766 -0.22064,-0.99381 -0.30412,-1.98767 -0.0546,-0.99381 -0.0278,-1.98766 v -1.98765 l -0.0278,-0.99382 -0.0546,-0.99383 -0.30411,-1.98765 -0.22064,-0.99383 -0.3041,-1.98765 -0.0546,-0.99382 -0.0278,-1.932 v -2.0433 l 0.99385,-0.99383 1.49073,-0.0824 0.55256,-0.13815 0.99384,-0.16597 0.93816,-0.24846 1.98767,-0.4969 0.99381,-0.22063 0.99382,-0.27628 0.99384,-0.22063 1.98764,-0.49691 0.99384,-0.2763 0.99381,-0.22062 0.99382,-0.27629 0.99383,-0.22063 0.99383,-0.27628 1.98765,-0.4969 0.99382,-0.22064 0.99383,-0.27627 0.99382,-0.22064 0.99384,-0.27627 0.99382,-0.22064 0.99381,-0.27629 1.98766,-0.49692 0.99382,-0.22063 0.99384,-0.27628 0.99382,-0.22063 0.99381,-0.27627 0.99384,-0.22063 1.98765,-0.49691 0.99383,-0.27629 0.99383,-0.22063 0.99381,-0.27629 0.99384,-0.22062 0.99382,-0.27629 0.99382,-0.22064 0.99384,-0.27627 0.99381,-0.22063 0.99382,-0.27628 1.98766,-0.49691 0.99382,-0.24846 1.98765,-0.80003 1.98767,-1.40825 0.99381,-0.91133 1.98766,-1.95984 0.99383,-0.99381 2.98147,-2.98148 1.98765,-1.98766 1.98765,-1.90516 1.98765,-1.57322 1.98765,-0.99382 0.99383,-0.24846 1.98764,-0.22063 0.99383,-0.0557 0.99384,-0.0546 1.98765,-0.30412 0.99382,-0.22063 1.98766,-0.30411 0.99381,-0.0546 1.98766,-0.11037 1.98763,-0.30411 0.99385,-0.22063 1.98764,-0.3041 0.99383,-0.0547 1.98765,-0.0557 0.99383,-0.0546 1.98764,-0.3041 0.99384,-0.22063 1.98764,-0.30412 0.99383,-0.0546 1.98764,-0.0557 0.99384,-0.0546 1.98764,-0.30413 0.99383,-0.22062 1.98765,-0.30411 0.99383,-0.0546 1.98765,-0.0557 0.99383,-0.0546 1.98765,-0.30411 0.99383,-0.22063 1.98765,-0.30411 1.98765,-0.11037 0.99383,-0.0546 1.98764,-0.30411 0.99383,-0.22063 1.98765,-0.30411 0.99383,-0.0546 1.98765,-0.11038 1.98766,-0.30412 0.99382,-0.22064 1.98765,-0.3041 0.99382,-0.0546 1.98766,-0.0557 0.99381,-0.0546 1.98766,-0.3041 0.99382,-0.22064 1.98766,-0.30409 0.99381,-0.0547 1.98766,-0.11037 1.98765,-0.3041 0.99384,-0.22064 1.98763,-0.30412 0.99385,-0.0546 1.98763,-0.11036 0.99383,-0.13815 1.98765,-0.38662 1.98765,-0.30411 0.99383,-0.0546 1.98765,-0.0557 0.99383,-0.0546 1.98765,-0.30411 0.99382,-0.22062 1.98766,-0.30412 0.99382,-0.0546 1.98765,-0.11037 0.99382,-0.13815 1.98766,-0.3866 1.98765,-0.30412 0.99382,-0.0546 1.98766,-0.0557 0.99383,-0.0546 1.93198,-0.33194 2.04331,-0.57939 0.71753,1.49073 0.0278,0.55257 0.19281,0.99383 0.13816,1.932 0.30412,1.98765 0.22061,0.99382 0.30413,1.98765 0.0824,1.98764 0.0824,1.98766 0.13815,0.99381 0.19379,0.99385 0.2753,0.99382 0.63504,1.93198 0.22163,0.55258 0.44126,1.49074 2.04331,0.0824 1.93199,0.3041 1.98765,0.4691 0.99384,0.27628 0.99382,0.22063 0.99381,0.27628 0.99384,0.22063 0.99383,0.27628 0.99381,0.22063 0.99384,0.27628 0.99382,0.22064 0.99381,0.27627 0.99385,0.22064 0.99381,0.27628 1.98766,0.49692 0.99382,0.22062 0.99382,0.27629 0.99384,0.22062 0.99382,0.27629 0.99382,0.22063 0.99384,0.27628 0.99381,0.22063 0.99383,0.27628 1.98765,0.49691 0.99382,0.22063 0.99384,0.27629 0.99382,0.22062 0.99382,0.27629 0.99383,0.22064 0.99382,0.27627 1.98766,0.46909 1.98765,0.38659 1.98765,0.41442 1.90517,0.68972 1.60105,1.18763 0.60721,0.80003 0.57941,0.91135 0.88353,1.95981 0.38658,0.99383 0.38659,0.99383 0.85568,1.98764 0.52476,0.99383 0.44124,0.99383 0.55258,0.99382 0.99382,1.98765 0.44126,0.99382 0.55258,0.99384 0.96599,1.98764 0.41442,0.99383 0.44126,0.99382 0.7732,1.98766 0.44126,0.99382 0.41442,0.99382 0.96601,1.98766 0.55255,0.99382 0.44126,0.99384 0.55258,0.99382 0.44124,0.99381 0.99384,1.98767 0.52473,0.93816 0.41443,0.99382 0.33094,0.55258 0.49691,1.49072 1.49074,-0.24845 1.54641,-0.35876 1.93198,-0.30412 0.99383,-0.0546 1.98766,-0.11037 1.98764,-0.30411 0.99383,-0.22063 1.98766,-0.30412 0.99382,-0.0546 1.98765,-0.0557 0.99382,-0.0546 1.98766,-0.30413 0.99382,-0.22062 1.98765,-0.30412 1.98766,-0.11037 0.99382,-0.0547 1.98764,-0.3041 1.98767,-0.3866 0.99381,-0.13815 1.98766,-0.16499 0.99381,-0.13815 1.98767,-0.38659 1.98763,-0.30412 1.98765,-0.16496 0.99384,-0.13816 1.98765,-0.38661 1.98765,-0.30411 1.98765,-0.16498 1.98765,-0.3041 1.98764,-0.49691 0.99384,-0.35877 0.99382,-0.44127 1.98765,-1.38043 1.98765,-1.5742 0.99383,-0.60724 0.99383,-0.41341 0.99381,-0.2763 1.98767,-0.41442 0.99381,-0.22063 1.98765,-0.30411 1.98767,-0.16497 0.99381,-0.13817 0.99382,-0.16596 1.98765,-0.3866 0.99383,-0.13815 1.98766,-0.16497 1.98766,-0.30412 1.98764,-0.38659 0.99384,-0.13815 1.98763,-0.16498 1.98766,-0.30411 0.99382,-0.22063 1.932,-0.3041 2.04331,-0.0824 0.99382,0.99383 0.0278,2.04331 0.0546,0.99383 0.30411,1.93198 0.22063,0.99384 0.3041,1.98765 0.0546,0.99382 0.11037,1.98766 0.13817,0.99382 0.3866,1.98765 0.30411,1.98766 0.11037,1.98764 0.0546,0.99382 0.30411,1.98765 0.38661,1.98767 0.13815,0.99381 0.11038,1.98766 0.0547,0.99382 0.30411,1.98766 0.38659,1.98763 0.13816,0.99385 0.16498,1.98763 0.13815,0.93817 0.19378,0.99383 0.57942,2.04332 -1.49075,0.71753 -0.55257,0.0278 -0.99382,0.19282 -0.93817,0.0278 -1.98766,0.0557 -0.99382,0.0546 -1.98765,0.30411 -0.99382,0.22062 -1.98766,0.30412 -0.99382,0.0546 -1.98765,0.0278 -0.99381,0.0278 -0.99384,0.0547 -1.98765,0.30412 -0.99382,0.22062 -1.98766,0.30411 -0.99382,0.0546 -0.99384,0.0278 h -0.99381 l -1.98766,0.0824 -1.98764,0.3041 -0.99384,0.19281 -1.98764,0.11037 -1.98765,-0.38561 -0.99383,-0.30411 -1.98765,-0.57939 -0.99383,-0.19381 -0.99383,-0.13816 h -1.98764 l -1.98766,0.30412 -0.99382,0.22062 -1.98765,0.33095 -0.99382,0.11126 -1.98766,0.33095 -0.99383,0.22063 -1.98765,0.30411 -1.98765,0.16498 -0.99383,0.13815 -1.98765,0.38659 -0.99382,0.16597 -0.99382,0.13815 -1.98766,0.16498 -1.98763,0.30413 -1.98766,0.38658 -0.99383,0.13817 -1.98765,0.16497 -0.99382,0.13816 -1.98766,0.3866 -0.99382,0.16597 -0.99381,0.13815 -1.98767,0.16498 -0.99381,0.13816 -1.98766,0.38659 -1.98766,0.33094 -0.99382,0.11127 -1.98765,0.33093 -1.98764,0.38661 -0.99385,0.13816 -1.98763,0.16497 -0.99384,0.13814 -1.98764,0.38661 -1.98765,0.30409 -1.98766,0.16499 -0.99382,0.13815 -1.98766,0.3866 -1.98764,0.33095 -0.99385,0.11126 -1.98763,0.33094 -1.98765,0.38661 -0.99382,0.13816 -1.98766,0.16495 -0.99382,0.13816 -1.98765,0.3866 -1.98765,0.33094 -0.99383,0.11127 -1.98764,0.33094 -1.98767,0.38661 -0.99381,0.13814 -1.98766,0.16499 -0.99382,0.13815 -1.98765,0.3866 -0.99382,0.16597 -0.99384,0.13816 -1.98765,0.16497 -1.98764,0.30411 -1.98766,0.3866 -1.98765,0.22064 -1.98765,0.33094 -1.95984,0.99382 -1.71135,1.68453 -1.21546,1.95984 -0.8835,1.98763 -0.38561,0.99384 -0.41442,0.99383 -0.77319,1.98765 -0.44126,0.99382 -0.41443,0.99381 -0.52474,0.99385 -0.99382,1.98764 -0.44127,0.99382 -0.55257,0.99383 -0.46908,0.99382 -1.13196,1.98766 -0.63506,0.99382 -1.35261,1.98765 -0.74535,0.99383 -0.71755,0.99382 -1.51857,1.98765 -1.68353,1.98766 -0.93917,0.99383 -0.966,0.99382 -1.98766,1.98765 -1.98763,1.98766 -0.99383,0.96599 -0.99383,0.93916 -1.98765,1.68355 -0.99384,0.74536 -1.98763,1.49076 -0.99384,0.74535 -0.99382,0.6907 -1.98766,1.29695 -1.93198,1.10415 -0.99383,0.44224 -0.55257,0.33094 -1.49074,0.49692 v 2.0433 l 0.0278,1.93202 0.0546,0.99381 0.30411,1.98766 0.22064,0.99381 0.16596,0.99382 0.16497,0.99385 0.11127,0.99381 0.33094,1.98766 0.22064,0.99381 0.19379,0.99383 0.38561,1.98765 0.19379,0.99383 0.22063,0.99382 0.19379,0.99384 0.38561,1.98764 0.1938,0.99383 0.22062,0.99382 0.1938,0.99382 0.3856,1.98766 0.19381,0.99381 0.22062,0.99384 0.1938,0.99382 0.38561,1.98766 0.19379,0.99383 0.22062,0.99381 0.1938,0.99383 0.38561,1.98765 0.19379,0.99384 0.22063,0.99382 0.19381,0.99381 0.38559,1.98766 0.1938,0.99382 0.22063,0.99384 0.1938,0.99381 0.3856,1.98767 0.19379,0.99381 0.22063,0.99383 0.3866,1.98765 0.3866,1.98767 0.22063,0.99381 0.30411,1.93199 0.0546,0.99384 0.0278,2.0433 h -89.4443"
       id="path116" /><path
       style="fill:#00ff00;stroke:none"
       d="m 41.955794,15.893675 -2,1.38885 -1,0.91669 -2,1.97223 -1,1 -3,3 -2,2 -1,1 -1.97222,2 -0.91667,1 -1.38889,2 -0.38889,1 -0.22222,1 -0.11111,2 v 1 3 14 48.000005 29 5 2 1 l 0.02778,2 0.08333,1 0.61111,2 1.38889,2 0.91667,1 1.97222,2 2,2 2,2 0.9722,1 0.9445,1 1.6944,2 1.6111,1.917 1.7778,1.694 0.9167,0.778 1.6944,1.694 0.75,0.945 1.4722,1.972 0.7223,1 1.1666,2 0.4445,1 0.4444,1 0.6945,2 0.2777,1 0.1945,1 0.1389,1 0.0833,2 v 1 1 2 11 35 109 23 5 2 l -0.0278,1 -0.0555,1 -0.3334,2 -0.5833,2 -0.3333,1 -0.75,2 -0.4723,1 -0.5277,1 -0.6389,1 -0.6945,1 -1.6666,2 -0.9445,1 -0.9722,1 -2,2 -1,1 -2,2 -5,5 -2,2 -1.97222,2 -1.69445,2 -0.61111,1 -0.38889,1 -0.22222,1 -0.11111,2 v 1 3 15 48 30 4 2 1 l 0.08333,2 0.41667,2 0.44444,1 1.30556,2 1.77778,2 1.97222,2 2,2 2,2 2,2 1,0.972 1,0.917 2,1.389 2,0.611 1,0.083 2,0.028 h 2 3 22 77.999996 96 201 83 23 3 2 l 2,-0.028 1,-0.083 2,-0.611 2,-1.389 1,-0.917 2,-1.972 1,-1 3,-3 2,-2 1,-1 1,-1 1.889,-2 1.389,-2 0.389,-1 0.222,-1 0.111,-2 v -1 -3 -14 -48 -2 -27 -5 -2 -1 -1 l -0.111,-2 -0.611,-2 -1.389,-2 -0.917,-1 -1.972,-2 -2,-2 -6,-6 -2,-2 -1,-1 -1,-1 -1.917,-2 -1.666,-2 -1.389,-2 -0.611,-1 -1,-2 -0.389,-1 -0.611,-2 -0.195,-1 -0.139,-1 -0.083,-2 v -1 -1 -2 -11 -36 -109 -22 -4 -2 -2 l 0.083,-2 0.139,-1 0.195,-1 0.277,-1 0.695,-2 0.444,-1 0.945,-2 0.472,-1 1.222,-2 1.611,-2 1.917,-2 2,-2 1,-1 2,-2 5,-5 2,-2 1.972,-2 1.695,-2 0.611,-1 0.389,-1 0.222,-1 0.111,-2 v -1 -3 -14 -48.000004 -30.000001 -4 -2 -2 l -0.028,-1 -0.083,-1 -0.222,-1 -1,-2 -1.695,-2 -1.972,-2 -1,-1 -3,-3 -2,-2 -1,-1 -2,-1.97223 -1,-0.91669 -2,-1.38885 -1,-0.38886 -2,-0.3056 -2,-0.02777 h -2 -5 -22 -74 -56 -241 -82.999996 -23 -4 -2 -1 l -2,0.11108 -2,0.61115 m 3,2.61108 2,-0.30554 1,-0.02777 h 2 2 5 25 84.999996 284 82 19 3 2 l 2,0.02777 2,0.30554 1,0.38892 2,1.38888 1,0.91666 2,1.97223 2,2 3,3 1,1 1.972,2 1.695,2 1,2 0.222,1 0.083,1 0.028,1 v 1 3 17 59.000005 16 3 1 l -0.111,2 -0.611,2 -1.389,2 -0.917,1 -1.972,2 -2,2 -7,7 -2,2 -1.972,2 -0.945,1 -1.611,2 -1.222,2 -0.472,1 -0.528,1 -0.861,2 -0.695,2 -0.277,1 -0.195,1 -0.139,1 -0.083,2 v 2 2 5 21 67 67 21 5 2 2 l 0.083,2 0.139,1 0.195,1 0.611,2 0.389,1 1,2 0.611,1 1.389,2 1.666,2 1.917,2 1,1 1,1 2,2 6,6 2,2 1.972,2 0.917,1 1.389,2 0.611,2 0.111,2 v 1 1 3 2 64 21 6 2 l -0.028,1 -0.083,1 -0.611,2 -1.389,2 -1.889,2 -1,1 -1,1 -2,2 -2,2 -1,1 -1,1 -2,1.889 -2,1.389 -1,0.389 -2,0.305 -1,0.028 h -2 -2 -5 -25 -85 -282 -83.999996 -20 -3 -2 l -2,-0.028 -1,-0.083 -2,-0.611 -2,-1.389 -1,-0.917 -1,-0.972 -2,-2 -1,-1 -2,-2 -1,-1 -0.97222,-1 -1.77778,-2 -1.30556,-2 -0.44444,-1 -0.41667,-2 -0.08333,-2 v -1 -1 -2 -15 -60 -17 -3 -1 l 0.11111,-2 0.61111,-2 1.38889,-2 0.91667,-1 1.97222,-2 2,-2 5,-5 2,-2 1,-1 1,-1 1.9722,-2 0.9445,-1 1.6666,-2 1.3334,-2 1,-2 0.75,-2 0.6389,-2 0.4722,-2 0.1389,-1 0.0833,-2 v -2 -2 -5 -22 -67 -65 -21 -5 -2 -2 l -0.0833,-2 -0.1389,-1 -0.1945,-1 -0.2777,-1 -0.6945,-2 -0.4444,-1 -0.4445,-1 -1.1666,-2 -0.7223,-1 -1.4722,-2 -0.75,-0.972 -0.8333,-0.945 -1.7778,-1.694 -0.9167,-0.778 -0.8611,-0.833 -0.8333,-0.861 -0.7778,-0.945 -1.6944,-1.972 -0.9445,-1 -0.9722,-1 -2,-2 -2,-2 -1.97222,-2 -0.91667,-1 -1.38889,-2 -0.61111,-2 -0.11111,-2 v -1 -1 -3 -66.000004 -21.000001 -6 -2 l 0.02778,-1 0.08333,-1 0.61111,-2 0.61111,-1 0.77778,-1 1.88889,-2 1,-1 2,-2 3,-3 1,-1 2,-1.97223 1,-0.91666 2,-1.38888 1,-0.38892 m 51,10.08339 -2,0.6111 -1,0.3611 -2,0.8889 -2,1.1944 -1,0.7778 -1,0.8333 -1.9722,1.9167 -1.7778,2 -0.7778,1 -1.2222,2 -0.4722,1 -0.5278,1 -0.7778,2 -0.4722,2 -0.3889,2 -0.3889,2 -0.1389,1 v 2 l 0.3056,2 0.4167,2 0.3888,2 0.2223,1 0.6111,2 0.3889,1 1,2.000001 1.2777,2 1.5278,1.9722 0.8611,0.9445 1.9167,1.6666 2,1.3889 1,0.6111 2,1 1,0.3889 2,0.6111 1,0.1945 1,0.1389 2,0.0833 h 0.999997 0.999999 2 2 1 l 2,-0.0833 2,-0.3334 1,-0.2778 2,-0.7222 2,-1 1,-0.6111 2,-1.3889 1.9722,-1.6666 1.7778,-1.9167 0.7778,-1 1.2222,-2 0.472,-1 0.528,-1.000001 0.778,-2 0.25,-1 0.222,-1 0.389,-2 0.222,-1 0.306,-2 0.083,-2 -0.028,-1 -0.055,-1 -0.306,-2 -0.25,-1 -0.5,-2 -0.25,-1 -0.639,-2 -0.389,-1 -0.9997,-2 -1.2777,-2 -0.7223,-0.9722 -1.6666,-1.8056 -0.9445,-0.8055 -0.9722,-0.7222 -2,-1.3056 -1,-0.5556 -1,-0.5555 -2,-0.8889 -2,-0.6944 -1,-0.2778 -1,-0.1945 -1,-0.1389 -2,-0.0833 h -1 -2 -1.999999 l -1.999997,0.0833 -2,0.3334 m 400.999996,0 -1,0.2778 -2,0.6944 -2,0.8889 -1,0.5555 -1,0.5556 -2,1.3056 -0.972,0.7222 -1.806,1.6666 -1.528,1.9167 -0.666,1 -0.639,1 -1.111,2 -0.834,2 -0.277,1 -0.306,1 -0.472,2 -0.306,2 -0.055,1 -0.028,2 0.028,2 0.055,1 0.306,2 0.25,1 0.222,1 0.583,2 0.806,2 0.528,1.000001 1.083,2 0.611,1 0.778,1 1.778,1.9167 0.972,0.8611 2,1.5277 2,1.2778 2,1 2,0.7222 1,0.2778 2,0.3334 2,0.0833 h 1 1 2 2 1 l 2,-0.0833 2,-0.3889 1,-0.3889 1,-0.3889 1,-0.5278 2,-1.0555 1,-0.5556 2,-1.3056 0.972,-0.7222 1.778,-1.6666 0.778,-0.9445 1.222,-1.9722 0.472,-1 1,-2.000001 0.528,-1 0.806,-2 0.583,-2 0.222,-1 0.25,-1 0.306,-2 0.055,-2 -0.055,-1 -0.306,-2 -0.222,-1 -0.389,-2 -0.222,-1 -0.25,-1 -0.778,-2 -0.528,-1 -0.472,-1 -1.222,-2 -0.778,-1 -1.778,-2 -1.972,-1.9167 -1,-0.8333 -1,-0.7778 -2,-1.1944 -2,-0.8889 -1,-0.3611 -2,-0.6111 -2,-0.3334 -2,-0.0833 h -1 -2 -2 l -2,0.0833 -2,0.3334 m -397.999996,2.8055 1.999996,-0.1944 1,-0.0278 2,0.0278 1,0.0555 2,0.3334 1,0.2778 2,0.6944 1,0.4444 1,0.4445 1,0.5555 1,0.5556 1.9722,1.3056 0.9445,0.7222 1.6666,1.6666 0.7223,0.9445 1.2777,1.9722 0.5278,1 0.4722,1 0.3889,1 0.6389,2 0.25,1 0.5,2 0.25,1 0.2222,2 -0.0833,1 -0.1389,1 -0.4167,2 -0.4166,2 -0.25,1 -0.7778,2 -0.5278,1 -1.0833,2.000001 -0.6111,1 -1.6111,1.9167 -1.9167,1.6666 -1,0.7222 -2,1.2778 -1,0.5278 -1,0.4722 -2,0.7222 -1,0.2778 -1,0.1945 -1,0.1389 -2,0.0833 h -1 -2 l -1.999996,-0.0833 -1,-0.1389 -1,-0.1945 -2,-0.6111 -1,-0.3889 -2,-1 -1,-0.6111 -1,-0.6667 -0.9722,-0.7222 -1.8056,-1.6666 -1.5278,-1.9167 -0.6666,-1 -0.6111,-1.000001 -1,-2 -0.3889,-1 -0.3334,-1 -0.2777,-1 -0.4167,-2 -0.3611,-2 -0.1667,-1 v -2 l 0.3334,-2 0.4166,-2 0.25,-1 0.7778,-2 0.5278,-1 0.4722,-1 1.2222,-2 0.7778,-1 1.7778,-1.9722 1.9722,-1.7778 1,-0.7778 1,-0.6111 2,-1.0278 1,-0.4444 2,-0.6944 1,-0.2778 1,-0.1945 m 400.999996,0 2,-0.1944 1,-0.0278 h 1 l 2,0.0833 2,0.3334 1,0.2778 2,0.6944 1,0.4444 2,1.0278 1,0.6111 1,0.7778 1.972,1.7778 1.778,1.9722 0.778,1 1.222,2 0.472,1 0.528,1 0.778,2 0.25,1 0.416,2 0.195,1 0.305,2 -0.111,2 -0.222,1 -0.528,2 -0.277,1 -0.806,2 -0.528,1 -0.444,1 -0.556,1 -0.472,1.000001 -1.222,1.9167 -0.778,0.8611 -0.833,0.8055 -0.945,0.7222 -1.972,1.3056 -1,0.5556 -2,1.0555 -1,0.5278 -2,0.7778 -1,0.2222 -1,0.1667 -2,0.0833 h -1 -2 l -2,-0.0833 -2,-0.3334 -2,-0.6111 -1,-0.3889 -2,-1 -2,-1.2778 -1.972,-1.5277 -0.945,-0.8611 -1.611,-1.9167 -1.222,-2.000001 -0.472,-1 -0.528,-1 -0.806,-2 -0.277,-1 -0.528,-2 -0.25,-1 -0.306,-2 v -2 l 0.139,-1 0.417,-2 0.528,-2 0.277,-1 0.834,-2 1.111,-2 1.305,-1.9722 0.723,-0.9445 0.805,-0.8611 1.806,-1.5277 1.972,-1.3056 1,-0.5556 2,-1 1,-0.4444 2,-0.6944 1,-0.2778 1,-0.1945 M 96.955794,469.56045 l -1,0.25 -2,0.528 -1,0.277 -2,0.834 -1,0.583 -1,0.611 -2,1.611 -1,0.945 -1.9167,1.972 -0.8333,1 -0.7778,1 -1.2222,2 -0.4722,1 -0.5278,1 -0.7778,2 -0.25,1 -0.2222,1 -0.3889,2 -0.3889,2 -0.1389,1 v 2 l 0.3056,2 0.2222,1 0.3889,2 0.4167,2 0.2777,1 0.3334,1 0.3889,1 1,2 1.2777,2 1.5278,1.972 0.8611,0.945 1.9167,1.611 2,1.222 1,0.472 1,0.528 2,0.861 2,0.695 1,0.277 1,0.195 1,0.139 1.999997,0.083 h 0.999999 2 2 1 l 2,-0.083 2,-0.334 1,-0.277 2,-0.723 2,-1 1,-0.611 2,-1.389 0.9722,-0.805 0.9445,-0.861 1.6666,-1.917 0.7223,-1 1.3055,-2 1.1109,-2 0.806,-2 0.25,-1 0.222,-1 0.389,-2 0.222,-1 0.306,-2 0.083,-2 -0.028,-1 -0.055,-1 -0.306,-2 -0.25,-1 -0.5,-2 -0.25,-1 -0.639,-2 -0.389,-1 -0.9997,-2 -1.2777,-2 -0.7223,-0.972 -1.6666,-1.806 -0.9445,-0.805 -1.9722,-1.389 -2,-1.195 -1,-0.555 -1,-0.417 -1,-0.417 -1,-0.277 -1,-0.306 -2,-0.472 -2,-0.306 -1,-0.055 -1,-0.028 h -2 -1 l -1.999996,0.083 -2,0.306 m 400.999996,0 -1,0.25 -1,0.222 -2,0.583 -2,0.806 -1,0.528 -1,0.472 -2,1.222 -1.917,1.611 -0.861,0.945 -0.805,0.972 -1.389,2 -1.195,2 -0.555,1 -0.834,2 -0.583,2 -0.472,2 -0.306,2 -0.055,1 -0.028,2 v 1 1 l 0.083,2 0.334,2 0.277,1 0.695,2 0.444,1 0.417,1 0.528,1 0.472,1 1.222,2 1.611,1.972 1.917,1.806 2,1.528 2,1.277 2,1 2,0.723 1,0.277 1,0.195 1,0.139 2,0.083 h 1 1 2 2 1 l 2,-0.083 1,-0.167 1,-0.222 2,-0.778 1,-0.528 2,-1.055 1,-0.556 2,-1.305 0.972,-0.723 1.778,-1.666 0.778,-0.945 1.278,-1.972 0.555,-1 0.583,-1 0.973,-2 0.361,-1 0.528,-2 0.388,-2 0.417,-2 0.167,-1 0.139,-1 v -2 l -0.306,-2 -0.222,-1 -0.389,-2 -0.222,-1 -0.25,-1 -0.778,-2 -0.528,-1 -0.472,-1 -1.222,-2 -1.611,-2 -0.945,-1 -0.972,-0.972 -1,-0.945 -2,-1.611 -2,-1.194 -1,-0.417 -2,-0.694 -1,-0.306 -2,-0.472 -2,-0.306 -1,-0.055 -2,-0.028 h -1 -1 l -2,0.083 -2,0.306 m -397.999999,2.833 0.999999,-0.139 1,-0.055 2,0.055 2,0.306 1,0.25 1,0.222 2,0.583 1,0.417 1,0.417 1,0.555 2,1.195 1.9167,1.389 1.6666,1.666 0.7223,0.945 1.2777,1.972 1,2 0.3889,1 0.6389,2 0.25,1 0.5,2 0.25,1 0.2222,2 -0.0833,1 -0.1389,1 -0.4167,2 -0.4166,2 -0.25,1 -0.8056,2 -1.1111,2 -0.6389,1 -0.6666,1 -1.5278,1.917 -1.8056,1.666 -0.9722,0.723 -1,0.666 -1,0.611 -2,1 -1,0.389 -2,0.611 -1,0.195 -1,0.139 -2,0.083 h -1 l -2,-0.028 -0.999999,-0.055 -1.999997,-0.334 -1,-0.277 -2,-0.695 -1,-0.444 -1,-0.417 -1,-0.528 -1,-0.472 -1.9722,-1.222 -1.8056,-1.611 -1.5278,-1.917 -1.2777,-2 -1,-2 -0.7223,-2 -0.2777,-1 -0.4167,-2 -0.3611,-2 -0.1667,-1 v -2 l 0.3334,-2 0.4166,-2 0.25,-1 0.7778,-2 0.5278,-1 0.4722,-1 1.2222,-2 0.7778,-1 1.7778,-1.972 1.9722,-1.778 1,-0.778 2,-1.194 2,-0.834 1,-0.277 2,-0.528 1.999997,-0.417 m 400.999999,0 1,-0.139 1,-0.055 2,0.055 2,0.306 1,0.25 2,0.528 1,0.277 1,0.417 1,0.417 2,1.194 1,0.778 1.972,1.778 1.778,1.972 0.778,1 1.222,2 0.472,1 0.528,1 0.778,2 0.25,1 0.416,2 0.334,2 v 2 l -0.167,1 -0.361,2 -0.417,2 -0.666,2 -0.973,2 -0.583,1 -0.555,1 -1.278,1.917 -0.778,0.861 -0.833,0.805 -0.945,0.723 -1.972,1.305 -1,0.556 -2,1.055 -1,0.528 -2,0.778 -2,0.389 -1,0.055 -2,0.028 h -2 l -2,-0.083 -2,-0.334 -2,-0.611 -1,-0.389 -2,-1 -2,-1.277 -1.972,-1.528 -0.945,-0.861 -1.611,-1.917 -1.222,-2 -0.472,-1 -0.528,-1 -0.861,-2 -0.695,-2 -0.277,-1 -0.334,-2 -0.055,-2 0.055,-1 0.306,-2 0.25,-1 0.528,-2 0.277,-1 0.834,-2 0.555,-1 1.195,-2 1.389,-1.972 0.805,-0.945 1.806,-1.611 0.972,-0.611 2,-1.083 1,-0.528 2,-0.806 2,-0.583 1,-0.222 z"
       id="path226" /></g></svg>
