<?xml version="1.0" encoding="UTF-8" standalone="no"?>
<!-- Created with Inkscape (http://www.inkscape.org/) -->

<svg
   width="151mm"
   height="151.00002mm"
   viewBox="0 0 151 151.00002"
   version="1.1"
   id="svg5"
   xml:space="preserve"
   inkscape:export-filename="位图.svg"
   inkscape:export-xdpi="25.4"
   inkscape:export-ydpi="25.4"
   xmlns:inkscape="http://www.inkscape.org/namespaces/inkscape"
   xmlns:sodipodi="http://sodipodi.sourceforge.net/DTD/sodipodi-0.dtd"
   xmlns="http://www.w3.org/2000/svg"
   xmlns:svg="http://www.w3.org/2000/svg"><sodipodi:namedview
     id="namedview7"
     pagecolor="#ffffff"
     bordercolor="#000000"
     borderopacity="0.25"
     inkscape:showpageshadow="2"
     inkscape:pageopacity="0.0"
     inkscape:pagecheckerboard="0"
     inkscape:deskcolor="#d1d1d1"
     inkscape:document-units="mm"
     showgrid="false" /><defs
     id="defs2" /><g
     inkscape:label="图层 1"
     inkscape:groupmode="layer"
     id="layer1"
     transform="translate(0.50000001,0.50000005)"><path
       style="fill:none;stroke:#00ff00;stroke-width:1;stroke-dasharray:none;stroke-opacity:1"
       d="M 0,0 H 30 V 10 H 10 V 30 H 0 Z"
       id="path1080"
       sodipodi:nodetypes="ccccccc"
       sodipodi:insensitive="true" /><path
       style="fill:none;stroke:#00ff00;stroke-width:1;stroke-dasharray:none;stroke-opacity:1"
       d="m 149.99999,0 v 30.000001 h -10 v -20 H 120 V 0 Z"
       id="path1080-3"
       sodipodi:nodetypes="ccccccc"
       sodipodi:insensitive="true" /><path
       style="fill:none;stroke:#00ff00;stroke-width:1;stroke-dasharray:none;stroke-opacity:1"
       d="m 0,150 v -30 h 10 v 20 h 20 v 10 z"
       id="path1080-9"
       sodipodi:nodetypes="ccccccc"
       sodipodi:insensitive="true" /><path
       style="fill:none;stroke:#00ff00;stroke-width:1;stroke-dasharray:none;stroke-opacity:1"
       d="m 120,120 h 30 c 0,10 0,20 0,30 -10,0 -20,0 -30,0 z"
       id="path1080-5"
       sodipodi:nodetypes="ccccc"
       sodipodi:insensitive="true" /><path
       style="fill:none;stroke:#00ff00;stroke-width:1;stroke-dasharray:none;stroke-opacity:1"
       d="m 35.503604,31.112698 h 62.476305 c 24.698871,1.565324 31.398771,42.549606 0,47.547228 H 64.734484 L 57.332673,106.00899 H 31.739969 l 3.512725,-1.75636 11.405312,-42.701447 h 49.237155 c 8.865639,-3.906036 4.346739,-10.711328 1.508065,-12.76086 h -24.83871 l 9.42475,10.844105 -24.793048,-0.188181 C 48.701559,50.576179 41.396547,41.165363 35.503604,31.112698 Z"
       id="path3729"
       sodipodi:nodetypes="cccccccccccccc" /><path
       style="fill:none;stroke:#00ff00;stroke-width:1;stroke-dasharray:none;stroke-opacity:1"
       d="m 75.586291,80.102652 h 25.090879 l 19.82181,22.017248 -17.50089,0.18818 16.18362,18.12817 L 69.313572,95.282638 90.07628,95.47082 Z"
       id="path3731"
       sodipodi:nodetypes="cccccccc" /></g></svg>
